# This file uses centimeters as units for non-parametric coordinates.

mtllib yari_te.mtl
g default
v -0.527414 2.401043 0.297705
v -0.532254 2.401043 0.081577
v -0.534674 2.216835 -0.026487
v -0.532254 2.032626 0.081577
v -0.527414 2.032626 0.297705
v -0.524995 2.216835 0.405769
v -0.710229 2.107530 0.295156
v -0.784805 2.057857 0.215032
v -0.802193 1.931787 0.196352
v -0.745003 1.855389 0.257795
v -0.670426 1.905063 0.337919
v -0.653039 2.031133 0.356599
v -0.858781 1.953857 0.530866
v -0.975478 1.894198 0.530866
v -0.989059 1.768749 0.530866
v -0.885944 1.702960 0.530866
v -0.769247 1.762620 0.530866
v -0.755665 1.888068 0.530866
v -0.872298 1.813160 0.705538
v -0.974523 1.763294 0.705537
v -0.987457 1.661212 0.705537
v -0.898165 1.608995 0.705536
v -0.795940 1.658861 0.705536
v -0.783006 1.760944 0.705537
v -0.844937 1.758672 0.987958
v -0.896000 1.707544 0.987958
v -0.917985 1.626952 0.956848
v -0.879180 1.559382 0.956847
v -0.814988 1.598891 0.963324
v -0.801185 1.710404 0.963325
vt 0.083202 0.592468
vt 0.124869 0.592468
vt 0.166536 0.592468
vt 0.208202 0.592468
vt 0.249869 0.592468
vt 0.291536 0.592468
vt 0.333202 0.592468
vt 0.083202 0.686453
vt 0.124869 0.686453
vt 0.166536 0.686453
vt 0.208202 0.686453
vt 0.249869 0.686453
vt 0.291536 0.686453
vt 0.333202 0.686453
vt 0.083202 0.780438
vt 0.124869 0.780438
vt 0.166536 0.780438
vt 0.208202 0.780438
vt 0.249869 0.780438
vt 0.291536 0.780438
vt 0.333202 0.780438
vt 0.083202 0.874423
vt 0.124869 0.874423
vt 0.166536 0.874423
vt 0.208202 0.874423
vt 0.249869 0.874423
vt 0.291536 0.874423
vt 0.333202 0.874423
vt 0.083202 0.968408
vt 0.124869 0.968408
vt 0.166536 0.968408
vt 0.208202 0.968408
vt 0.249869 0.968408
vt 0.291536 0.968408
vt 0.333202 0.968408
vn -0.848739 0.528470 0.019005
vn -0.835361 0.546895 0.055474
vn -0.728935 0.664247 0.165619
vn -0.656183 0.728672 0.196114
vn -0.756047 0.338544 -0.560161
vn -0.755723 0.327182 -0.567305
vn -0.795010 0.225811 -0.563000
vn -0.845692 0.180870 -0.502088
vn -0.173952 -0.499981 -0.848387
vn -0.164838 -0.515701 -0.840762
vn -0.205249 -0.665516 -0.717608
vn -0.284316 -0.713882 -0.639951
vn 0.633047 -0.773984 -0.014176
vn 0.633850 -0.773134 -0.022331
vn 0.626143 -0.770848 -0.117211
vn 0.659017 -0.735466 -0.157438
vn 0.378817 -0.471982 0.796072
vn 0.591176 -0.309796 0.744673
vn 0.391677 -0.407088 0.825148
vn 0.844043 -0.174555 0.507072
vn -0.630225 0.386687 0.673268
vn -0.353905 0.495281 0.793378
vn -0.626375 0.363834 0.689405
vn -0.018160 0.594130 0.804164
vn -0.457047 0.843750 0.281414
vn -0.414414 0.815625 0.403753
vn -0.925523 0.112630 -0.361554
vn -0.971412 0.107006 -0.211918
vn -0.441297 -0.710612 -0.547986
vn -0.447201 -0.707008 -0.547861
vn 0.464714 -0.835639 -0.292829
vn 0.424875 -0.836971 -0.344909
vn 0.941943 -0.117616 0.314498
vn 0.975118 -0.108084 0.193553
vn 0.389897 0.653827 0.648452
vn 0.405051 0.641464 0.651504
vn -0.414528 0.805878 0.422762
vn -0.401838 0.823763 0.399926
vn -0.976018 0.123050 0.179576
vn -0.966820 0.122491 0.224177
vn -0.495803 -0.833806 -0.242789
vn -0.534022 -0.828040 -0.170790
vn 0.421260 -0.856038 -0.299565
vn 0.429658 -0.861254 -0.271359
vn 0.990536 -0.122325 0.062248
vn 0.990700 -0.124985 0.053786
vn 0.483030 0.774861 0.407766
vn 0.470329 0.804273 0.363230
vn -0.611435 0.756631 0.231642
vn -0.693159 0.692274 0.200716
vn -0.946905 0.140439 0.289221
vn -0.945443 0.145359 0.291561
vn -0.791261 -0.611192 -0.018734
vn -0.866703 -0.497746 -0.032790
vn 0.495579 -0.846827 -0.193094
vn 0.528035 -0.824677 -0.202698
vn 0.991356 -0.123306 0.044827
vn 0.991434 -0.122716 0.044711
vn 0.695843 0.712281 0.091969
vn 0.753295 0.655505 0.053488
vn 0.999749 0.000000 -0.022387
vn 0.999749 0.000000 -0.022387
vn 0.999749 0.000000 -0.022387
vn 0.999749 0.000000 -0.022387
vn 0.999749 0.000000 -0.022387
vn 0.999749 0.000000 -0.022387
vn -0.074272 -0.042660 0.996325
vn -0.063722 -0.003553 0.997961
vn 0.026024 -0.128722 0.991339
vn 0.094740 -0.170954 0.980713
vn 0.243728 -0.374359 0.894680
vn 0.250518 -0.250198 0.935223
s 1
g pCylinder2 group4
usemtl blinn1SG
f 1/1/1 2/2/2 7/8/3
f 7/8/3 2/2/2 8/9/4
s 2
f 2/2/5 3/3/6 8/9/7
f 8/9/7 3/3/6 9/10/8
s 3
f 3/3/9 4/4/10 9/10/11
f 9/10/11 4/4/10 10/11/12
s 4
f 4/4/13 5/5/14 10/11/15
f 10/11/15 5/5/14 11/12/16
s 5
f 6/6/17 12/13/18 5/5/19
f 5/5/19 12/13/18 11/12/20
s 6
f 1/7/21 7/14/22 6/6/23
f 6/6/23 7/14/22 12/13/24
s 1
f 7/8/3 8/9/4 13/15/25
f 13/15/25 8/9/4 14/16/26
s 2
f 8/9/7 9/10/8 14/16/27
f 14/16/27 9/10/8 15/17/28
s 3
f 9/10/11 10/11/12 15/17/29
f 15/17/29 10/11/12 16/18/30
s 4
f 11/12/16 17/19/31 10/11/15
f 10/11/15 17/19/31 16/18/32
s 5
f 12/13/18 18/20/33 11/12/20
f 11/12/20 18/20/33 17/19/34
s 6
f 7/14/22 13/21/35 12/13/24
f 12/13/24 13/21/35 18/20/36
s 1
f 13/15/25 14/16/26 19/22/37
f 19/22/37 14/16/26 20/23/38
s 2
f 14/16/27 15/17/28 20/23/39
f 20/23/39 15/17/28 21/24/40
s 3
f 15/17/29 16/18/30 21/24/41
f 21/24/41 16/18/30 22/25/42
s 4
f 17/19/31 23/26/43 16/18/32
f 16/18/32 23/26/43 22/25/44
s 5
f 18/20/33 24/27/45 17/19/34
f 17/19/34 24/27/45 23/26/46
s 6
f 13/21/35 19/28/47 18/20/36
f 18/20/36 19/28/47 24/27/48
s 1
f 20/23/38 26/30/49 19/22/37
f 19/22/37 26/30/49 25/29/50
s 2
f 21/24/40 27/31/51 20/23/39
f 20/23/39 27/31/51 26/30/52
s 3
f 21/24/41 22/25/42 27/31/53
f 27/31/53 22/25/42 28/32/54
s 4
f 23/26/43 29/33/55 22/25/44
f 22/25/44 29/33/55 28/32/56
s 5
f 24/27/45 30/34/57 23/26/46
f 23/26/46 30/34/57 29/33/58
s 6
f 24/27/48 19/28/47 30/34/59
f 30/34/59 19/28/47 25/35/60
s 7
f 6/6/61 5/5/62 1/7/63
f 1/7/63 5/5/62 2/2/64
f 5/5/62 4/4/65 2/2/64
f 2/2/64 4/4/65 3/3/66
s 8
f 28/32/67 29/33/68 27/31/69
f 29/33/68 30/34/70 27/31/69
f 27/31/69 30/34/70 26/30/71
f 26/30/71 30/34/70 25/29/72
g default
v -0.670256 1.634677 -0.110242
v -0.794038 1.634677 -0.092968
v -0.855929 1.526440 -0.084331
v -0.794038 1.418203 -0.092968
v -0.670256 1.418203 -0.110242
v -0.608365 1.526440 -0.118879
v -0.283156 1.591937 3.165897
v -0.358059 1.591937 3.183171
v -0.395511 1.526440 3.191808
v -0.358059 1.460943 3.183171
v -0.283156 1.460943 3.165897
v -0.245704 1.526440 3.157260
v -0.191799 1.526440 3.967357
v -0.313107 1.608751 2.805113
v -0.407239 1.608751 2.822386
v -0.454305 1.526440 2.831023
v -0.407239 1.444130 2.822386
v -0.313107 1.444130 2.805113
v -0.266041 1.526440 2.796476
vt 0.697858 0.229662
vt 0.697858 0.213624
vt 0.765964 0.213624
vt 0.765964 0.229662
vt 0.697858 0.298148
vt 0.765964 0.204932
vt 0.697858 0.277828
vt 0.765964 0.277828
vt 0.697858 0.261775
vt 0.765964 0.261775
vt 0.697858 0.245748
vt 0.765964 0.245748
vt 0.913763 0.252461
vt 0.163334 0.204781
vt 0.163334 0.182521
vt 0.147492 0.295359
vt 0.147492 0.271907
vt 0.147492 0.248439
vt 0.147492 0.224972
vt 0.697858 0.190923
vt 0.765964 0.289264
vt 0.147492 0.161846
vt 0.147492 0.207243
vt 0.147492 0.178394
vn 0.002258 0.999921 0.012367
vn 0.002387 0.999914 0.012869
vn 0.010045 0.998925 0.045266
vn 0.010412 0.998927 0.045134
vn -0.856349 0.502196 0.120269
vn -0.856273 0.502300 0.120382
vn -0.851984 0.504788 0.138969
vn -0.851702 0.505311 0.138795
vn -0.856349 -0.502198 0.120269
vn -0.851983 -0.504789 0.138969
vn -0.856272 -0.502301 0.120382
vn -0.851702 -0.505312 0.138795
vn 0.002258 -0.999921 0.012368
vn 0.010043 -0.998925 0.045266
vn 0.002387 -0.999914 0.012869
vn 0.010409 -0.998927 0.045134
vn 0.859822 -0.501592 -0.095452
vn 0.864419 -0.500428 -0.048485
vn 0.859823 -0.501653 -0.095131
vn 0.864317 -0.500610 -0.048423
vn 0.859823 0.501590 -0.095452
vn 0.859824 0.501651 -0.095131
vn 0.864420 0.500427 -0.048485
vn 0.864318 0.500610 -0.048422
vn 0.521822 0.852993 0.010226
vn -0.450817 0.876513 0.168788
vn 0.192802 -0.000007 0.981238
vn -0.967191 0.000000 0.254050
vn -0.450817 -0.876513 0.168788
vn 0.521820 -0.852994 0.010227
vn 0.997793 -0.000000 -0.066395
vn 0.001220 0.999961 0.008744
vn 0.001226 0.999961 0.008743
vn -0.857912 0.500000 0.118271
vn -0.857892 0.500035 0.118267
vn -0.857912 -0.500000 0.118271
vn -0.857892 -0.500035 0.118267
vn 0.001220 -0.999961 0.008743
vn 0.001226 -0.999961 0.008742
vn 0.860167 -0.499912 -0.101002
vn 0.860150 -0.499942 -0.100998
vn 0.860167 0.499911 -0.101002
vn 0.860150 0.499941 -0.100998
vn -0.138208 -0.000001 -0.990403
vn -0.138209 0.000000 -0.990403
vn -0.138209 0.000000 -0.990403
vn -0.138209 0.000000 -0.990403
vn -0.138209 -0.000000 -0.990403
vn -0.138208 0.000001 -0.990403
s 1
g group4 pCylinder1
usemtl blinn1SG
f 44/36/73 45/37/74 37/39/75
f 37/39/75 45/37/74 38/38/76
s 2
f 45/37/77 46/55/78 38/38/79
f 38/38/79 46/55/78 39/41/80
s 3
f 47/42/81 40/43/82 46/40/83
f 46/40/83 40/43/82 39/56/84
s 4
f 48/44/85 41/45/86 47/42/87
f 47/42/87 41/45/86 40/43/88
s 5
f 49/46/89 42/47/90 48/44/91
f 48/44/91 42/47/90 41/45/92
s 6
f 49/46/93 44/36/94 42/47/95
f 42/47/95 44/36/94 37/39/96
s 7
f 37/39/97 38/38/98 43/48/99
f 38/38/98 39/41/100 43/48/99
f 39/56/100 40/43/101 43/48/99
f 40/43/101 41/45/102 43/48/99
f 41/45/102 42/47/103 43/48/99
f 42/47/103 37/39/97 43/48/99
s 1
f 31/49/104 32/50/105 44/36/73
f 44/36/73 32/50/105 45/37/74
s 2
f 32/50/106 33/57/107 45/37/77
f 45/37/77 33/57/107 46/55/78
s 3
f 34/52/108 47/42/81 33/51/109
f 33/51/109 47/42/81 46/40/83
s 4
f 35/53/110 48/44/85 34/52/111
f 34/52/111 48/44/85 47/42/87
s 5
f 36/54/112 49/46/89 35/53/113
f 35/53/113 49/46/89 48/44/91
s 6
f 36/54/114 31/49/115 49/46/93
f 49/46/93 31/49/115 44/36/94
s 8
f 32/50/116 31/49/117 33/57/118
f 31/49/117 36/54/119 33/57/118
f 36/54/119 35/58/120 33/57/118
f 35/58/120 34/59/121 33/57/118
g default
v 0.532032 2.413080 0.050787
v 0.521753 2.413080 0.242555
v 0.527398 2.245853 0.294716
v 0.521753 2.078627 0.242555
v 0.532032 2.078627 0.050787
v 0.513958 2.245853 -0.045097
v 0.763898 2.077913 0.370758
v 0.660571 2.163056 0.444311
v 0.578648 2.008656 0.481088
v 0.616206 1.854256 0.444311
v 0.824417 1.854256 0.370758
v 0.819811 1.972535 0.333981
v 0.523505 1.910481 0.966584
v 0.457073 1.910481 0.874673
v 0.423858 1.854714 0.828717
v 0.457073 1.798946 0.874673
v 0.523505 1.798946 0.966584
v 0.556720 1.854714 1.012540
v 0.144405 1.762001 1.346419
v 0.051875 1.764852 1.302769
v 0.004355 1.688509 1.280351
v 0.049363 1.609314 1.301583
v 0.141892 1.606463 1.345234
v 0.189413 1.682806 1.367652
v -0.155421 1.660391 1.736904
v -0.266859 1.662957 1.677965
v -0.330389 1.564706 1.634847
v -0.282481 1.463889 1.625781
v -0.171044 1.461322 1.659833
v -0.107514 1.559573 1.727838
v 0.550106 2.245853 0.146671
vt 0.893544 0.706835
vt 0.768916 0.706835
vt 0.706602 0.814766
vt 0.768916 0.922697
vt 0.893544 0.922697
vt 0.955858 0.814766
vt 0.414432 0.588525
vt 0.456099 0.588525
vt 0.497765 0.588525
vt 0.539432 0.588525
vt 0.581099 0.588525
vt 0.622765 0.588525
vt 0.664432 0.588525
vt 0.414432 0.682510
vt 0.456099 0.682510
vt 0.497765 0.682510
vt 0.539432 0.682510
vt 0.581099 0.682510
vt 0.622765 0.682510
vt 0.664432 0.682510
vt 0.414432 0.776495
vt 0.456099 0.776495
vt 0.497765 0.776495
vt 0.539432 0.776495
vt 0.581099 0.776495
vt 0.622765 0.776495
vt 0.664432 0.776495
vt 0.414432 0.870480
vt 0.456099 0.870480
vt 0.497765 0.870480
vt 0.539432 0.870480
vt 0.581099 0.870480
vt 0.622765 0.870480
vt 0.664432 0.870480
vt 0.414432 0.964465
vt 0.456099 0.964465
vt 0.497765 0.964465
vt 0.539432 0.964465
vt 0.581099 0.964465
vt 0.622765 0.964465
vt 0.664432 0.964465
vt 0.831230 0.809781
vn 0.801961 0.595828 0.042984
vn 0.796367 0.601065 0.067240
vn 0.754943 0.566853 0.329755
vn 0.711139 0.583913 0.391570
vn -0.674730 0.198920 0.710754
vn -0.642387 0.265619 0.718878
vn -0.763897 0.472669 0.439370
vn -0.882079 0.470865 -0.014949
vn -0.974422 -0.036282 0.221776
vn -0.974307 -0.093087 0.205085
vn -0.974865 -0.164017 -0.150790
vn -0.942877 -0.189435 -0.274039
vn -0.586606 -0.809262 -0.031442
vn -0.219407 -0.918111 -0.330049
vn -0.532143 -0.825442 -0.188335
vn -0.108641 -0.941971 -0.317628
vn 0.586270 -0.354347 -0.728509
vn 0.958962 -0.064465 -0.276108
vn 0.590937 -0.344380 -0.729517
vn 0.981199 0.068776 0.180330
vn 0.873402 0.167747 -0.457197
vn 0.913236 0.404108 0.051932
vn 0.873335 0.200822 -0.443799
vn 0.888318 0.432431 0.154581
vn -0.191929 0.949673 0.247557
vn -0.328601 0.911631 0.246881
vn -0.737009 0.622790 -0.262584
vn -0.719440 0.639370 -0.271317
vn -0.614079 -0.621292 -0.486727
vn -0.464131 -0.697834 -0.545537
vn 0.191810 -0.967817 -0.162911
vn 0.186465 -0.971396 -0.147043
vn 0.722594 -0.603577 0.336977
vn 0.680370 -0.659563 0.319490
vn 0.575067 0.675243 0.461893
vn 0.476406 0.697349 0.535483
vn -0.087556 0.970504 0.224626
vn -0.076500 0.972048 0.221971
vn -0.696072 0.568873 -0.438026
vn -0.695652 0.569157 -0.438326
vn -0.517340 -0.473512 -0.712844
vn -0.507731 -0.480305 -0.715204
vn 0.128811 -0.944134 -0.303346
vn 0.115377 -0.942519 -0.313601
vn 0.709732 -0.570369 0.413473
vn 0.708584 -0.579149 0.403106
vn 0.538730 0.481283 0.691474
vn 0.532960 0.488184 0.691108
vn -0.079803 0.977147 0.197017
vn -0.081316 0.977166 0.196300
vn -0.671360 0.611570 -0.418637
vn -0.668972 0.615459 -0.416757
vn -0.646196 -0.271612 -0.713202
vn -0.659112 -0.249403 -0.709485
vn 0.085256 -0.938298 -0.335155
vn 0.081472 -0.937864 -0.337304
vn 0.664353 -0.659191 0.352281
vn 0.658995 -0.666879 0.347847
vn 0.710867 0.307338 0.632623
vn 0.722382 0.286683 0.629267
vn -0.989142 -0.115885 -0.090380
vn -0.995354 -0.069179 0.066972
vn -0.999980 0.000000 0.006345
vn -0.988440 -0.000000 -0.151612
vn -0.989142 0.115885 -0.090380
vn -0.995354 0.069179 0.066972
vn -0.982694 0.000000 0.185238
vn -0.452548 -0.290849 0.842975
vn -0.372736 -0.257293 0.891554
vn -0.452549 -0.290850 0.842975
vn -0.384675 -0.262374 0.884977
vn -0.289638 -0.221369 0.931185
vn -0.289639 -0.221370 0.931185
s 1
g group4 pCylinder3
usemtl blinn1SG
f 50/66/122 51/67/123 56/73/124
f 56/73/124 51/67/123 57/74/125
s 2
f 51/67/126 52/68/127 57/74/128
f 57/74/128 52/68/127 58/75/129
s 3
f 52/68/130 53/69/131 58/75/132
f 58/75/132 53/69/131 59/76/133
s 4
f 54/70/134 60/77/135 53/69/136
f 53/69/136 60/77/135 59/76/137
s 5
f 55/71/138 61/78/139 54/70/140
f 54/70/140 61/78/139 60/77/141
s 6
f 50/72/142 56/79/143 55/71/144
f 55/71/144 56/79/143 61/78/145
s 1
f 56/73/124 57/74/125 62/80/146
f 62/80/146 57/74/125 63/81/147
s 2
f 57/74/128 58/75/129 63/81/148
f 63/81/148 58/75/129 64/82/149
s 3
f 58/75/132 59/76/133 64/82/150
f 64/82/150 59/76/133 65/83/151
s 4
f 60/77/135 66/84/152 59/76/137
f 59/76/137 66/84/152 65/83/153
s 5
f 61/78/139 67/85/154 60/77/141
f 60/77/141 67/85/154 66/84/155
s 6
f 56/79/143 62/86/156 61/78/145
f 61/78/145 62/86/156 67/85/157
s 1
f 62/80/146 63/81/147 68/87/158
f 68/87/158 63/81/147 69/88/159
s 2
f 63/81/148 64/82/149 69/88/160
f 69/88/160 64/82/149 70/89/161
s 3
f 64/82/150 65/83/151 70/89/162
f 70/89/162 65/83/151 71/90/163
s 4
f 66/84/152 72/91/164 65/83/153
f 65/83/153 72/91/164 71/90/165
s 5
f 67/85/154 73/92/166 66/84/155
f 66/84/155 73/92/166 72/91/167
s 6
f 62/86/156 68/93/168 67/85/157
f 67/85/157 68/93/168 73/92/169
s 1
f 68/87/158 69/88/159 74/94/170
f 74/94/170 69/88/159 75/95/171
s 2
f 69/88/160 70/89/161 75/95/172
f 75/95/172 70/89/161 76/96/173
s 3
f 71/90/163 77/97/174 70/89/162
f 70/89/162 77/97/174 76/96/175
s 4
f 72/91/164 78/98/176 71/90/165
f 71/90/165 78/98/176 77/97/177
s 5
f 73/92/166 79/99/178 72/91/167
f 72/91/167 79/99/178 78/98/179
s 6
f 73/92/169 68/93/168 79/99/180
f 79/99/180 68/93/168 74/100/181
s 7
f 51/61/182 50/60/183 80/101/184
f 52/62/185 51/61/182 80/101/184
f 53/63/186 52/62/185 80/101/184
f 54/64/187 53/63/186 80/101/184
f 55/65/188 54/64/187 80/101/184
f 50/60/183 55/65/188 80/101/184
s 8
f 74/94/189 75/95/190 79/99/191
f 79/99/191 75/95/190 78/98/192
f 75/95/190 76/96/193 78/98/192
f 76/96/193 77/97/194 78/98/192
