# This file uses centimeters as units for non-parametric coordinates.

mtllib arrow.mtl
g default
v -0.331279 1.161740 -2.205927
v 0.485051 1.250798 -2.208551
v 0.816064 2.002240 -2.212848
v 0.330748 2.664628 -2.214520
v -0.485584 2.575570 -2.211895
v -0.816596 1.824126 -2.207599
v -0.000000 1.913073 2.825641
v 0.666611 1.818887 0.307709
v 0.253115 1.286032 0.294742
v -0.412425 1.386012 0.319025
v -0.665605 2.007662 0.307709
v -0.250814 2.537306 0.307709
v 0.415296 2.442919 0.307709
v -0.251111 1.813880 1.560192
v -0.249311 1.814592 1.569222
v -0.038456 1.646748 1.566675
v -0.209371 2.080516 1.572333
v 0.040539 2.180505 1.566675
v 0.251903 2.012861 1.566675
v 0.212400 1.745987 1.566708
v 0.049103 2.644622 -0.951299
v -0.609401 2.321394 -0.951299
v -0.658746 1.589471 -0.951299
v -0.049589 1.180778 -0.951299
v 0.608002 1.504619 -0.946211
v 0.659391 2.236483 -0.957129
vt 0.337212 0.037111
vt 0.392331 0.037111
vt 0.447450 0.037111
vt 0.502569 0.037111
vt 0.557688 0.037111
vt 0.612807 0.037111
vt 0.667926 0.037111
vt 0.502569 0.367825
vt 0.557688 0.202468
vt 0.530271 0.201617
vt 0.502569 0.203211
vt 0.475010 0.202468
vt 0.447450 0.202468
vt 0.585248 0.202468
vt 0.419891 0.202468
vt 0.516420 0.284721
vt 0.516321 0.285314
vt 0.530129 0.285147
vt 0.502569 0.285518
vt 0.488789 0.285147
vt 0.475010 0.285147
vt 0.543907 0.285149
vt 0.461231 0.285149
vt 0.585248 0.119790
vt 0.626587 0.119790
vt 0.378552 0.119790
vt 0.419891 0.119790
vt 0.461230 0.119790
vt 0.502569 0.120161
vt 0.543979 0.119364
vn 0.167500 0.975476 0.142797
vn -0.975670 0.210754 0.060431
vn -0.026985 0.998003 0.057108
vn -0.991672 -0.125676 -0.028159
vn -0.760962 0.632753 0.143385
vn -0.670278 -0.739657 0.060290
vn -0.877774 0.475584 0.057734
vn -0.387454 -0.921451 -0.028403
vn -0.928436 -0.343961 0.140351
vn 0.305440 -0.950373 0.059141
vn -0.848436 -0.525543 0.062942
vn 0.605323 -0.795585 -0.025078
vn -0.169320 -0.974049 0.150196
vn 0.976070 -0.208793 0.060770
vn 0.019107 -0.998665 0.047990
vn 0.991669 0.124257 -0.033968
vn 0.762131 -0.632154 0.139778
vn 0.671596 0.738615 0.058368
vn 0.879258 -0.472260 0.062251
vn 0.384769 0.922656 -0.025689
vn 0.928565 0.342702 0.142555
vn -0.305378 0.950339 0.059993
vn 0.850805 0.522390 0.056921
vn -0.605355 0.795466 -0.027913
vn -0.617411 -0.782424 0.081342
vn -0.310494 -0.921923 0.231629
vn -0.611085 -0.770439 0.181654
vn -0.890206 -0.382187 0.247925
vn -0.979187 0.146891 0.140061
vn -0.972749 0.143975 0.181744
vn -0.639955 0.732743 0.231396
vn -0.365160 0.920532 0.138847
vn 0.315009 0.920517 0.231124
vn 0.615315 0.775783 0.139816
vn 0.954673 0.187674 0.231038
vn 0.979507 -0.144972 0.139820
vn 0.364250 -0.920789 0.139532
vn 0.639962 -0.732882 0.230938
vn 0.361675 -0.914294 0.182365
vn -0.611086 -0.770440 0.181647
vn -0.972750 0.143975 0.181738
vn -0.361661 0.914260 0.182563
vn 0.610892 0.770207 0.183280
vn 0.972488 -0.143927 0.183174
vn -0.871372 -0.389762 0.297987
vn -0.757730 -0.554304 0.344373
vn -0.096150 -0.949517 0.298616
vn 0.102893 -0.932973 0.344928
vn 0.774890 -0.557182 0.298487
vn 0.859803 -0.376776 0.344643
vn 0.871157 0.391165 0.296776
vn 0.757380 0.555781 0.342759
vn 0.095755 0.949648 0.298330
vn -0.100732 0.933484 0.344182
vn -0.771915 0.562289 0.296610
vn -0.858763 0.380250 0.343419
s 1
g pCone1 group5
usemtl blinn3SG
f 13/15/1 22/26/2 12/13/3
f 22/26/2 23/27/4 12/13/3
s 2
f 12/13/5 23/27/6 11/12/7
f 23/27/6 24/28/8 11/12/7
s 3
f 11/12/9 24/28/10 10/11/11
f 24/28/10 25/29/12 10/11/11
s 4
f 10/11/13 25/29/14 9/10/15
f 25/29/14 26/30/16 9/10/15
s 5
f 9/10/17 26/30/18 8/9/19
f 26/30/18 21/24/20 8/9/19
s 6
f 8/9/21 21/24/22 13/14/23
f 21/24/22 22/25/24 13/14/23
s 5
f 14/16/25 16/18/26 15/17/27
s 4
f 9/10/15 14/16/28 10/11/13
f 10/11/13 14/16/28 17/19/29
f 14/16/28 15/17/30 17/19/29
s 3
f 10/11/11 17/19/31 11/12/9
f 11/12/9 17/19/31 18/20/32
s 2
f 11/12/7 18/20/33 12/13/5
f 12/13/5 18/20/33 19/21/34
s 1
f 12/13/3 19/21/35 13/15/1
f 13/15/1 19/21/35 20/23/36
s 6
f 16/18/37 20/22/38 7/8/39
s 5
f 8/9/19 16/18/26 9/10/17
f 9/10/17 16/18/26 14/16/25
f 15/17/27 16/18/26 7/8/40
s 4
f 17/19/29 15/17/30 7/8/41
s 3
f 18/20/32 17/19/31 7/8/42
s 2
f 19/21/34 18/20/33 7/8/43
s 1
f 20/23/36 19/21/35 7/8/44
s 6
f 13/14/23 20/22/38 8/9/21
f 8/9/21 20/22/38 16/18/37
f 21/24/22 6/6/45 22/25/24
f 6/6/45 1/7/46 22/25/24
s 1
f 22/26/2 1/1/47 23/27/4
f 1/1/47 2/2/48 23/27/4
s 2
f 23/27/6 2/2/49 24/28/8
f 2/2/49 3/3/50 24/28/8
s 3
f 24/28/10 3/3/51 25/29/12
f 3/3/51 4/4/52 25/29/12
s 4
f 25/29/14 4/4/53 26/30/16
f 4/4/53 5/5/54 26/30/16
s 5
f 26/30/18 5/5/55 21/24/20
f 5/5/55 6/6/56 21/24/20
g default
v 0.234436 2.141632 -1.503404
v 0.000000 1.907196 -1.503404
v -0.234436 1.672761 -1.503404
v 0.234436 2.141632 -1.834946
v 0.000000 1.907196 -1.834946
v -0.234436 1.672761 -1.834946
v 0.234436 2.141632 -2.166488
v 0.000000 1.907196 -2.166488
v -0.234436 1.672761 -2.166488
vt 0.372394 0.684036
vt 0.490242 0.684036
vt 0.608090 0.684036
vt 0.372394 0.801884
vt 0.490242 0.801884
vt 0.608090 0.801884
vt 0.372394 0.919732
vt 0.490242 0.919732
vt 0.608090 0.919732
vn 0.707107 -0.707107 0.000000
vn 0.707107 -0.707107 0.000000
vn 0.707107 -0.707107 0.000000
vn 0.707107 -0.707107 0.000000
vn 0.707107 -0.707107 0.000000
vn 0.707107 -0.707107 0.000000
vn 0.707107 -0.707107 0.000000
vn 0.707107 -0.707107 0.000000
vn 0.707107 -0.707107 0.000000
s 1
g group5 pasted__pasted__pPlane1 pasted__group2 group3 group4
usemtl blinn3SG
f 27/31/57 28/32/58 30/34/59
f 30/34/59 28/32/58 31/35/60
f 28/32/58 29/33/61 31/35/60
f 31/35/60 29/33/61 32/36/62
f 30/34/59 31/35/60 33/37/63
f 33/37/63 31/35/60 34/38/64
f 31/35/60 32/36/62 34/38/64
f 34/38/64 32/36/62 35/39/65
g default
v 0.234436 1.672761 -1.503404
v -0.000000 1.907196 -1.503404
v -0.234436 2.141632 -1.503404
v 0.234436 1.672761 -1.834946
v -0.000000 1.907196 -1.834946
v -0.234436 2.141632 -1.834946
v 0.234436 1.672761 -2.166488
v -0.000000 1.907196 -2.166488
v -0.234436 2.141632 -2.166488
vt 0.372394 0.684036
vt 0.490242 0.684036
vt 0.608090 0.684036
vt 0.372394 0.801884
vt 0.490242 0.801884
vt 0.608090 0.801884
vt 0.372394 0.919732
vt 0.490242 0.919732
vt 0.608090 0.919732
vn -0.707107 -0.707107 0.000000
vn -0.707107 -0.707107 0.000000
vn -0.707107 -0.707107 0.000000
vn -0.707107 -0.707107 0.000000
vn -0.707107 -0.707107 0.000000
vn -0.707107 -0.707107 0.000000
vn -0.707107 -0.707107 0.000000
vn -0.707107 -0.707107 0.000000
vn -0.707107 -0.707107 0.000000
s 1
g group5 group4 pasted__pPlane1 pasted__group2 group
usemtl blinn3SG
f 36/40/66 37/41/67 39/43/68
f 39/43/68 37/41/67 40/44/69
f 37/41/67 38/42/70 40/44/69
f 40/44/69 38/42/70 41/45/71
f 39/43/68 40/44/69 42/46/72
f 42/46/72 40/44/69 43/47/73
f 40/44/69 41/45/71 43/47/73
f 43/47/73 41/45/71 44/48/74
g default
v -0.234436 2.141632 -1.503404
v -0.000000 1.907196 -1.503404
v 0.234436 1.672761 -1.503404
v -0.234436 2.141632 -1.834946
v -0.000000 1.907196 -1.834946
v 0.234436 1.672761 -1.834946
v -0.234436 2.141632 -2.166488
v -0.000000 1.907196 -2.166488
v 0.234436 1.672761 -2.166488
vt 0.372394 0.684036
vt 0.490242 0.684036
vt 0.608090 0.684036
vt 0.372394 0.801884
vt 0.490242 0.801884
vt 0.608090 0.801884
vt 0.372394 0.919732
vt 0.490242 0.919732
vt 0.608090 0.919732
vn 0.707107 0.707107 0.000000
vn 0.707107 0.707107 0.000000
vn 0.707107 0.707107 0.000000
vn 0.707107 0.707107 0.000000
vn 0.707107 0.707107 0.000000
vn 0.707107 0.707107 0.000000
vn 0.707107 0.707107 0.000000
vn 0.707107 0.707107 0.000000
vn 0.707107 0.707107 0.000000
s 1
g group5 group4 pPlane1 group2
usemtl blinn3SG
f 45/49/75 46/50/76 48/52/77
f 48/52/77 46/50/76 49/53/78
f 46/50/76 47/51/79 49/53/78
f 49/53/78 47/51/79 50/54/80
f 48/52/77 49/53/78 51/55/81
f 51/55/81 49/53/78 52/56/82
f 49/53/78 50/54/80 52/56/82
f 52/56/82 50/54/80 53/57/83
g default
v -0.234436 1.672761 -1.503404
v -0.000000 1.907196 -1.503404
v 0.234436 2.141632 -1.503404
v -0.234436 1.672761 -1.834946
v -0.000000 1.907196 -1.834946
v 0.234436 2.141632 -1.834946
v -0.234436 1.672761 -2.166488
v -0.000000 1.907196 -2.166488
v 0.234436 2.141632 -2.166488
vt 0.372394 0.684036
vt 0.490242 0.684036
vt 0.608090 0.684036
vt 0.372394 0.801884
vt 0.490242 0.801884
vt 0.608090 0.801884
vt 0.372394 0.919732
vt 0.490242 0.919732
vt 0.608090 0.919732
vn -0.707107 0.707107 0.000000
vn -0.707107 0.707107 0.000000
vn -0.707107 0.707107 0.000000
vn -0.707107 0.707107 0.000000
vn -0.707107 0.707107 0.000000
vn -0.707107 0.707107 0.000000
vn -0.707107 0.707107 0.000000
vn -0.707107 0.707107 0.000000
vn -0.707107 0.707107 0.000000
s 1
g group5 group4 group2 pasted__pPlane1
usemtl blinn3SG
f 54/58/84 55/59/85 57/61/86
f 57/61/86 55/59/85 58/62/87
f 55/59/85 56/60/88 58/62/87
f 58/62/87 56/60/88 59/63/89
f 57/61/86 58/62/87 60/64/90
f 60/64/90 58/62/87 61/65/91
f 58/62/87 59/63/89 61/65/91
f 61/65/91 59/63/89 62/66/92
g default
v 0.022419 1.950912 -2.024396
v -0.022419 1.950912 -2.024396
v -0.044838 1.907255 -2.024396
v -0.022419 1.863597 -2.024396
v 0.022419 1.863597 -2.024396
v 0.044838 1.907255 -2.024396
v 0.015397 1.950194 1.136201
v -0.015397 1.950194 1.136201
v -0.036666 1.912575 1.117291
v -0.015442 1.868738 1.136201
v 0.015442 1.868738 1.136201
v 0.036666 1.912575 1.117291
v 0.017613 1.941553 0.820141
v -0.017613 1.941553 0.820141
v -0.035226 1.907255 0.820141
v -0.017613 1.872956 0.820141
v 0.017613 1.872956 0.820141
v 0.035226 1.907255 0.820141
v 0.019861 1.941734 -1.444980
v -0.019861 1.941734 -1.444980
v -0.039721 1.907255 -1.444980
v -0.019861 1.872775 -1.444980
v 0.019861 1.872775 -1.444980
v 0.039721 1.907255 -1.444980
vt 0.877811 0.332254
vt 0.877811 0.368093
vt 0.877811 0.403877
vt 0.877811 0.439662
vt 0.877811 0.475447
vt 0.877811 0.511232
vt 0.877811 0.546962
vt 0.554940 0.332362
vt 0.554940 0.368093
vt 0.554940 0.403877
vt 0.554940 0.439662
vt 0.554940 0.475447
vt 0.554940 0.511232
vt 0.554940 0.547071
vt 0.587227 0.547060
vt 0.587227 0.332351
vt 0.587227 0.368093
vt 0.587227 0.403877
vt 0.587227 0.439662
vt 0.587227 0.475447
vt 0.587227 0.511232
vt 0.848752 0.546972
vt 0.848752 0.332263
vt 0.848752 0.368093
vt 0.848752 0.403877
vt 0.848752 0.439662
vt 0.848752 0.475447
vt 0.848752 0.511232
vn 0.000000 0.999995 -0.003258
vn 0.000000 0.999995 -0.003239
vn 0.000000 0.999627 -0.027328
vn 0.000000 0.999627 -0.027328
vn -0.889564 0.456811 0.000126
vn -0.870060 0.492885 -0.007720
vn -0.889094 0.457725 0.000117
vn -0.868872 0.494981 -0.007439
vn -0.889339 -0.457247 0.001273
vn -0.889735 -0.456476 0.001219
vn -0.899598 -0.436718 0.000549
vn -0.900124 -0.435633 0.000371
vn 0.000000 -0.999999 -0.001555
vn 0.000000 -0.999999 -0.001546
vn 0.000000 -0.999911 -0.013345
vn 0.000000 -0.999911 -0.013345
vn 0.889562 -0.456810 0.002012
vn 0.899598 -0.436718 0.000549
vn 0.889510 -0.456911 0.001955
vn 0.900124 -0.435633 0.000371
vn 0.889339 0.457248 -0.000614
vn 0.889318 0.457290 -0.000620
vn 0.870060 0.492885 -0.007720
vn 0.868872 0.494980 -0.007439
vn 0.000001 0.999995 0.003315
vn 0.000001 0.999995 0.003302
vn -0.866848 0.498566 0.002344
vn -0.866726 0.498780 0.002287
vn -0.866523 -0.499128 0.002931
vn -0.867047 -0.498218 0.002988
vn 0.000000 -0.999995 0.003315
vn 0.000000 -0.999995 0.003302
vn 0.866848 -0.498567 0.002344
vn 0.866726 -0.498780 0.002287
vn 0.866523 0.499128 0.002931
vn 0.867047 0.498218 0.002988
vn 0.000000 0.999875 0.015838
vn 0.000000 0.999875 0.015838
vn -0.889508 0.456782 0.011163
vn -0.888722 0.458315 0.011038
vn -0.889509 -0.456782 0.011163
vn -0.888722 -0.458315 0.011038
vn 0.000000 -0.999875 0.015838
vn 0.000000 -0.999875 0.015838
vn 0.889509 -0.456782 0.011163
vn 0.888721 -0.458315 0.011038
vn 0.889509 0.456782 0.011163
vn 0.888722 0.458315 0.011038
vn 0.000000 0.000000 -1.000000
vn 0.000000 0.000000 -1.000000
vn 0.000000 0.000000 -1.000000
vn 0.000000 0.000000 -1.000000
vn 0.000000 0.000000 -1.000000
vn 0.000000 0.000000 -1.000000
s 1
g group5 group4 group2 pCylinder1
usemtl blinn3SG
f 75/82/93 76/83/94 69/74/95
f 69/74/95 76/83/94 70/75/96
s 2
f 77/84/97 71/76/98 76/83/99
f 76/83/99 71/76/98 70/75/100
s 3
f 77/84/101 78/85/102 71/76/103
f 71/76/103 78/85/102 72/77/104
s 4
f 78/85/105 79/86/106 72/77/107
f 72/77/107 79/86/106 73/78/108
s 5
f 80/87/109 74/79/110 79/86/111
f 79/86/111 74/79/110 73/78/112
s 6
f 80/87/113 75/81/114 74/79/115
f 74/79/115 75/81/114 69/80/116
s 1
f 81/89/117 82/90/118 75/82/93
f 75/82/93 82/90/118 76/83/94
s 2
f 82/90/119 83/91/120 76/83/99
f 76/83/99 83/91/120 77/84/97
s 3
f 83/91/121 84/92/122 77/84/101
f 77/84/101 84/92/122 78/85/102
s 4
f 84/92/123 85/93/124 78/85/105
f 78/85/105 85/93/124 79/86/106
s 5
f 85/93/125 86/94/126 79/86/111
f 79/86/111 86/94/126 80/87/109
s 6
f 86/94/127 81/88/128 80/87/113
f 80/87/113 81/88/128 75/81/114
s 1
f 63/67/129 64/68/130 81/89/117
f 81/89/117 64/68/130 82/90/118
s 2
f 64/68/131 65/69/132 82/90/119
f 82/90/119 65/69/132 83/91/120
s 3
f 66/70/133 84/92/122 65/69/134
f 65/69/134 84/92/122 83/91/121
s 4
f 66/70/135 67/71/136 84/92/123
f 84/92/123 67/71/136 85/93/124
s 5
f 67/71/137 68/72/138 85/93/125
f 85/93/125 68/72/138 86/94/126
s 6
f 63/73/139 81/88/128 68/72/140
f 68/72/140 81/88/128 86/94/127
s 13
f 64/68/141 63/73/142 65/69/143
f 63/73/142 68/72/144 65/69/143
f 68/72/144 67/71/145 65/69/143
f 67/71/145 66/70/146 65/69/143
g default
v 0.000186 1.898926 2.629596
v 0.052249 1.798136 1.915594
v 0.052735 1.802416 1.662833
v 0.000186 1.909580 2.694423
v 0.052249 1.909580 2.146113
v 0.104416 1.909580 1.662833
v 0.000186 1.920235 2.629596
v 0.052249 2.021024 1.915594
v 0.052735 2.016744 1.662833
v -0.052167 2.021024 1.915990
v 0.000000 2.077264 1.663388
v 0.052167 2.021024 1.410785
v -0.052735 2.016744 1.663942
v -0.052249 2.021024 1.411181
v -0.000186 1.920235 1.022903
v -0.104416 1.909580 1.663942
v -0.052249 1.909580 1.180663
v -0.000186 1.909580 0.958076
v -0.052735 1.802416 1.663942
v -0.052249 1.798136 1.411181
v -0.000186 1.898926 1.022903
v -0.052167 1.798136 1.915990
v 0.000000 1.741897 1.663388
v 0.052167 1.798136 1.410785
v 0.052167 1.909580 1.179905
v -0.052167 1.909580 2.146870
vt 0.041957 0.455222
vt 0.239980 0.504395
vt 0.166729 0.385464
vt 0.023773 0.451911
vt 0.308269 0.517819
vt 0.311743 0.553525
vt 0.236845 0.387878
vt 0.041753 0.447628
vt 0.304313 0.370801
vt 0.303496 0.392220
vt 0.240145 0.415597
vt 0.369478 0.390394
vt 0.366148 0.415189
vt 0.303290 0.413577
vt 0.479860 0.433008
vt 0.429671 0.440990
vt 0.303519 0.444385
vt 0.498598 0.439136
vt 0.367627 0.470170
vt 0.304947 0.475160
vt 0.480217 0.446262
vt 0.306301 0.496476
vt 0.241784 0.476538
vt 0.372286 0.494750
vt 0.441317 0.398647
vt 0.179702 0.447716
vt 0.443577 0.482646
vt 0.305862 0.334960
vt 0.170095 0.510576
vn 0.995522 0.000001 0.094526
vn 0.908608 -0.408089 0.088849
vn 0.994667 0.000000 0.103135
vn 0.967462 -0.234408 0.095237
vn 0.900714 -0.434377 -0.005623
vn 0.999100 -0.000000 0.042426
vn 0.908609 0.408087 0.088849
vn 0.967462 0.234408 0.095237
vn 0.900714 0.434377 -0.005623
vn 0.000530 0.990178 0.139814
vn 0.031368 0.987496 0.154494
vn -0.030015 0.987552 0.154400
vn 0.000000 1.000000 0.000000
vn 0.753932 0.656953 -0.000081
vn 0.045575 0.972507 -0.228372
vn -0.753932 0.656953 0.000081
vn -0.047514 0.972450 -0.228219
vn -0.000953 0.967890 -0.251374
vn -0.900714 0.434377 0.005623
vn -0.963342 0.248733 -0.100519
vn -0.999100 -0.000000 -0.042426
vn -0.974565 -0.000000 -0.224106
vn -0.699437 0.690553 -0.184187
vn -0.973719 0.000001 -0.227752
vn -0.963342 -0.248734 -0.100519
vn -0.900714 -0.434377 0.005623
vn -0.699436 -0.690554 -0.184188
vn -0.047513 -0.972450 -0.228219
vn 0.000000 -1.000000 0.000000
vn -0.753931 -0.656953 0.000081
vn -0.030015 -0.987552 0.154400
vn -0.000953 -0.967890 -0.251374
vn 0.045575 -0.972507 -0.228372
vn 0.031368 -0.987496 0.154494
vn 0.000530 -0.990178 0.139814
vn 0.753932 -0.656953 -0.000081
vn 0.963094 -0.249584 -0.100789
vn 0.696289 -0.693479 -0.185120
vn 0.974170 -0.000000 -0.225816
vn 0.973263 0.000001 -0.229695
vn 0.900715 -0.434378 0.005346
vn 0.999081 0.000000 -0.042867
vn 0.696290 0.693478 -0.185120
vn 0.963094 0.249584 -0.100789
vn 0.900715 0.434378 0.005346
vn -0.900715 -0.434378 -0.005346
vn -0.967231 -0.235250 0.095508
vn -0.999081 0.000000 0.042867
vn -0.994601 -0.000000 0.103778
vn -0.995460 0.000001 0.095178
vn -0.907493 -0.410452 0.089361
vn -0.967231 0.235250 0.095508
vn -0.900715 0.434378 -0.005346
vn -0.907494 0.410450 0.089361
s 1
g group5 group4 group2 pCube1
usemtl blinn3SG
f 90/98/147 87/95/148 91/123/149
f 87/95/148 88/96/150 91/123/149
f 89/99/151 92/100/152 88/96/150
f 88/96/150 92/100/152 91/123/149
f 90/98/147 91/97/149 93/102/153
f 91/97/149 94/101/154 93/102/153
f 91/97/149 92/122/152 94/101/154
f 94/101/154 92/122/152 95/103/155
s 2
f 93/102/156 94/101/157 96/105/158
f 96/105/158 94/101/157 97/104/159
f 94/101/157 95/103/160 97/104/159
f 97/104/159 95/103/160 98/106/161
f 96/105/158 97/104/159 99/108/162
f 99/108/162 97/104/159 100/107/163
f 97/104/159 98/106/161 100/107/163
f 100/107/163 98/106/161 101/109/164
s 3
f 99/108/165 100/107/166 102/111/167
f 102/111/167 100/107/166 103/110/168
f 100/107/166 101/109/169 103/110/168
f 103/110/168 101/109/169 104/112/170
f 103/110/168 106/113/171 102/111/167
f 102/111/167 106/113/171 105/114/172
f 104/112/170 107/115/173 103/110/168
f 103/110/168 107/115/173 106/113/171
s 4
f 106/113/174 109/116/175 105/114/176
f 105/114/176 109/116/175 108/117/177
f 107/115/178 110/118/179 106/113/174
f 106/113/174 110/118/179 109/116/175
f 109/116/175 88/96/180 108/117/177
f 108/117/177 88/96/180 87/95/181
f 110/118/179 89/99/182 109/116/175
f 109/116/175 89/99/182 88/96/180
s 5
f 110/118/183 107/115/184 111/121/185
f 111/121/185 107/115/184 104/112/186
f 89/99/187 110/118/183 92/100/188
f 92/100/188 110/118/183 111/121/185
f 104/112/186 101/109/189 111/119/185
f 111/119/185 101/109/189 98/106/190
f 111/119/185 98/106/190 92/122/188
f 92/122/188 98/106/190 95/103/191
s 6
f 105/114/192 108/117/193 102/111/194
f 102/111/194 108/117/193 112/120/195
f 90/98/196 112/120/195 87/95/197
f 108/117/193 87/95/197 112/120/195
f 112/120/195 96/105/198 102/111/194
f 102/111/194 96/105/198 99/108/199
f 90/98/196 93/102/200 112/120/195
f 112/120/195 93/102/200 96/105/198
