# This file uses centimeters as units for non-parametric coordinates.

mtllib boss_barrier.mtl
g default
v 3.236068 4.128879 2.304795
v 1.236068 4.128879 3.757868
v -1.236069 4.128879 3.757867
v -3.236069 4.128879 2.304794
v -4.000000 4.128879 -0.046321
v -3.236068 4.128879 -2.397437
v -1.236068 4.128879 -3.850505
v 1.236068 4.128879 -3.850504
v 3.236068 4.128879 -2.397437
v 4.000000 4.128879 -0.046321
v 3.077684 5.370784 2.195336
v 1.175570 5.364430 3.577289
v -1.175571 5.364430 3.577288
v -3.077684 5.370785 2.195335
v -3.804227 5.381066 -0.040711
v -3.077684 5.391350 -2.276755
v -1.175570 5.397704 -3.658706
v 1.175571 5.397705 -3.658706
v 3.077684 5.391350 -2.276754
v 3.804226 5.381066 -0.040711
v 2.618034 6.501936 1.866446
v 1.000000 6.496531 3.042002
v -1.000000 6.496531 3.042001
v -2.618035 6.501937 1.866446
v -3.236068 6.510683 -0.035649
v -2.618034 6.519431 -1.937743
v -1.000000 6.524836 -3.113301
v 1.000000 6.524836 -3.113301
v 2.618034 6.519431 -1.937743
v 3.236068 6.510683 -0.035649
v 1.902113 7.400804 1.350320
v 0.726542 7.396876 2.204414
v -0.726543 7.396876 2.204414
v -1.902113 7.400804 1.350320
v -2.351141 7.407159 -0.031632
v -1.902113 7.413513 -1.413585
v -0.726542 7.417442 -2.267678
v 0.726543 7.417442 -2.267678
v 1.902113 7.413513 -1.413584
v 2.351141 7.407158 -0.031632
v 1.000000 7.979381 0.697483
v 0.381966 7.977315 1.146505
v -0.381966 7.977315 1.146505
v -1.000000 7.979380 0.697482
v -1.236068 7.982722 -0.029053
v -1.000000 7.986061 -0.755589
v -0.381966 7.988128 -1.204611
v 0.381966 7.988128 -1.204611
v 1.000000 7.986061 -0.755589
v 1.236068 7.982722 -0.029053
v 0.000000 8.181046 -0.028164
vt 0.042239 0.286254
vt 0.133791 0.286254
vt 0.225343 0.286254
vt 0.316895 0.286254
vt 0.408448 0.286254
vt 0.500000 0.286254
vt 0.591552 0.286254
vt 0.683105 0.286254
vt 0.774657 0.286254
vt 0.866209 0.286254
vt 0.957761 0.286254
vt 0.042239 0.377806
vt 0.133791 0.377806
vt 0.225343 0.377806
vt 0.316895 0.377806
vt 0.408448 0.377806
vt 0.500000 0.377806
vt 0.591552 0.377806
vt 0.683105 0.377806
vt 0.774657 0.377806
vt 0.866209 0.377806
vt 0.957761 0.377806
vt 0.042239 0.469358
vt 0.133791 0.469358
vt 0.225343 0.469358
vt 0.316895 0.469358
vt 0.408448 0.469358
vt 0.500000 0.469358
vt 0.591552 0.469358
vt 0.683105 0.469358
vt 0.774657 0.469358
vt 0.866209 0.469358
vt 0.957761 0.469358
vt 0.042239 0.560911
vt 0.133791 0.560911
vt 0.225343 0.560911
vt 0.316895 0.560911
vt 0.408448 0.560911
vt 0.500000 0.560911
vt 0.591552 0.560911
vt 0.683105 0.560911
vt 0.774657 0.560911
vt 0.866209 0.560911
vt 0.957761 0.560911
vt 0.042239 0.652463
vt 0.133791 0.652463
vt 0.225343 0.652463
vt 0.316895 0.652463
vt 0.408448 0.652463
vt 0.500000 0.652463
vt 0.591552 0.652463
vt 0.683105 0.652463
vt 0.774657 0.652463
vt 0.866209 0.652463
vt 0.957761 0.652463
vt 0.088015 0.744015
vt 0.179567 0.744015
vt 0.271119 0.744015
vt 0.362672 0.744015
vt 0.454224 0.744015
vt 0.545776 0.744015
vt 0.637328 0.744015
vt 0.728881 0.744015
vt 0.820433 0.744015
vt 0.911985 0.744015
vn 0.581594 0.144727 0.800502
vn 0.581485 0.144939 0.800542
vn 0.581336 0.145230 0.800598
vn 0.581210 0.145474 0.800645
vn -0.000000 0.144616 0.989488
vn -0.000000 0.144616 0.989488
vn -0.000000 0.144616 0.989488
vn 0.000000 0.144616 0.989488
vn -0.581211 0.145475 0.800644
vn -0.581485 0.144939 0.800542
vn -0.581336 0.145230 0.800598
vn -0.581593 0.144727 0.800502
vn -0.940533 0.146944 0.306276
vn -0.940797 0.146080 0.305879
vn -0.940655 0.146545 0.306093
vn -0.940902 0.145736 0.305721
vn -0.940719 0.148444 -0.304979
vn -0.940699 0.147580 -0.305459
vn -0.940710 0.148042 -0.305203
vn -0.940691 0.147233 -0.305652
vn -0.581511 0.149399 -0.799703
vn -0.581326 0.148866 -0.799937
vn -0.581425 0.149149 -0.799812
vn -0.581250 0.148648 -0.800032
vn 0.000000 0.149464 -0.988767
vn 0.000000 0.149464 -0.988767
vn 0.000000 0.149464 -0.988767
vn 0.000000 0.149464 -0.988767
vn 0.581251 0.148648 -0.800032
vn 0.581326 0.148866 -0.799937
vn 0.581424 0.149150 -0.799813
vn 0.581511 0.149400 -0.799703
vn 0.940691 0.147233 -0.305652
vn 0.940699 0.147580 -0.305459
vn 0.940710 0.148041 -0.305203
vn 0.940719 0.148443 -0.304979
vn 0.940902 0.145736 0.305721
vn 0.940797 0.146080 0.305879
vn 0.940655 0.146546 0.306093
vn 0.940533 0.146944 0.306276
vn 0.530225 0.428226 0.731768
vn 0.530224 0.428227 0.731768
vn 0.530224 0.428227 0.731768
vn 0.530223 0.428228 0.731768
vn 0.000000 0.427453 0.904038
vn -0.000000 0.427453 0.904038
vn -0.000000 0.427453 0.904038
vn -0.000000 0.427452 0.904038
vn -0.530224 0.428227 0.731768
vn -0.530224 0.428227 0.731768
vn -0.530224 0.428226 0.731768
vn -0.530224 0.428226 0.731769
vn -0.857941 0.430257 0.280743
vn -0.857941 0.430257 0.280743
vn -0.857941 0.430257 0.280743
vn -0.857941 0.430256 0.280743
vn -0.857965 0.432767 -0.276783
vn -0.857965 0.432767 -0.276783
vn -0.857965 0.432767 -0.276782
vn -0.857965 0.432767 -0.276782
vn -0.530264 0.434797 -0.727854
vn -0.530264 0.434797 -0.727854
vn -0.530264 0.434798 -0.727854
vn -0.530264 0.434798 -0.727854
vn -0.000000 0.435573 -0.900153
vn -0.000000 0.435573 -0.900153
vn -0.000000 0.435574 -0.900153
vn 0.000000 0.435574 -0.900153
vn 0.530265 0.434798 -0.727853
vn 0.530264 0.434798 -0.727853
vn 0.530264 0.434797 -0.727854
vn 0.530264 0.434797 -0.727855
vn 0.857965 0.432767 -0.276783
vn 0.857965 0.432767 -0.276783
vn 0.857965 0.432767 -0.276782
vn 0.857965 0.432767 -0.276782
vn 0.857941 0.430256 0.280743
vn 0.857941 0.430257 0.280743
vn 0.857941 0.430257 0.280743
vn 0.857941 0.430257 0.280743
vn 0.428513 0.681761 0.592940
vn 0.428514 0.681761 0.592940
vn 0.428514 0.681761 0.592940
vn 0.428515 0.681760 0.592940
vn 0.000000 0.681128 0.732164
vn -0.000000 0.681129 0.732164
vn -0.000000 0.681129 0.732164
vn -0.000000 0.681129 0.732163
vn -0.428513 0.681761 0.592941
vn -0.428514 0.681761 0.592940
vn -0.428514 0.681761 0.592940
vn -0.428514 0.681762 0.592939
vn -0.693370 0.683415 0.228434
vn -0.693370 0.683415 0.228434
vn -0.693370 0.683415 0.228434
vn -0.693370 0.683414 0.228434
vn -0.693396 0.685458 -0.222148
vn -0.693395 0.685458 -0.222148
vn -0.693395 0.685459 -0.222148
vn -0.693395 0.685459 -0.222148
vn -0.428554 0.687112 -0.586701
vn -0.428554 0.687112 -0.586702
vn -0.428555 0.687112 -0.586701
vn -0.428555 0.687111 -0.586702
vn -0.000000 0.687742 -0.725955
vn -0.000000 0.687743 -0.725955
vn -0.000000 0.687743 -0.725955
vn 0.000000 0.687743 -0.725954
vn 0.428555 0.687111 -0.586702
vn 0.428555 0.687112 -0.586701
vn 0.428555 0.687112 -0.586701
vn 0.428555 0.687113 -0.586700
vn 0.693395 0.685459 -0.222148
vn 0.693395 0.685459 -0.222148
vn 0.693395 0.685459 -0.222148
vn 0.693395 0.685459 -0.222147
vn 0.693370 0.683415 0.228434
vn 0.693370 0.683415 0.228434
vn 0.693370 0.683415 0.228434
vn 0.693370 0.683415 0.228434
vn 0.280368 0.877125 0.389931
vn 0.280367 0.877125 0.389930
vn 0.280367 0.877125 0.389930
vn 0.280365 0.877126 0.389930
vn 0.000000 0.876709 0.481021
vn 0.000000 0.876709 0.481021
vn 0.000000 0.876709 0.481021
vn 0.000000 0.876709 0.481021
vn -0.280367 0.877126 0.389930
vn -0.280367 0.877126 0.389930
vn -0.280367 0.877126 0.389930
vn -0.280367 0.877126 0.389929
vn -0.453655 0.878216 0.151442
vn -0.453655 0.878216 0.151442
vn -0.453655 0.878216 0.151442
vn -0.453655 0.878215 0.151443
vn -0.453669 0.879563 -0.143364
vn -0.453669 0.879563 -0.143364
vn -0.453669 0.879563 -0.143364
vn -0.453668 0.879564 -0.143364
vn -0.280390 0.880654 -0.381876
vn -0.280390 0.880654 -0.381876
vn -0.280390 0.880654 -0.381876
vn -0.280391 0.880654 -0.381876
vn 0.000000 0.881070 -0.472986
vn 0.000000 0.881070 -0.472985
vn 0.000000 0.881070 -0.472985
vn 0.000000 0.881071 -0.472984
vn 0.280390 0.880654 -0.381878
vn 0.280391 0.880654 -0.381877
vn 0.280390 0.880654 -0.381877
vn 0.280391 0.880655 -0.381875
vn 0.453669 0.879564 -0.143362
vn 0.453669 0.879563 -0.143363
vn 0.453669 0.879563 -0.143363
vn 0.453670 0.879563 -0.143365
vn 0.453656 0.878215 0.151441
vn 0.453656 0.878215 0.151441
vn 0.453656 0.878215 0.151441
vn 0.453655 0.878215 0.151442
vn 0.097779 0.985437 0.139118
vn 0.097779 0.985437 0.139118
vn 0.097779 0.985437 0.139118
vn 0.000000 0.985291 0.170885
vn 0.000000 0.985291 0.170885
vn 0.000000 0.985291 0.170885
vn -0.097780 0.985437 0.139116
vn -0.097780 0.985437 0.139116
vn -0.097780 0.985437 0.139116
vn -0.158212 0.985819 0.055941
vn -0.158212 0.985819 0.055941
vn -0.158212 0.985819 0.055941
vn -0.158214 0.986292 -0.046874
vn -0.158214 0.986292 -0.046874
vn -0.158214 0.986292 -0.046874
vn -0.097785 0.986674 -0.130049
vn -0.097785 0.986674 -0.130049
vn -0.097785 0.986674 -0.130049
vn 0.000000 0.986820 -0.161822
vn 0.000000 0.986820 -0.161822
vn 0.000000 0.986820 -0.161822
vn 0.097785 0.986674 -0.130050
vn 0.097785 0.986674 -0.130050
vn 0.097785 0.986674 -0.130050
vn 0.158214 0.986292 -0.046874
vn 0.158214 0.986292 -0.046874
vn 0.158214 0.986292 -0.046874
vn 0.158212 0.985819 0.055938
vn 0.158212 0.985819 0.055938
vn 0.158212 0.985819 0.055938
s 1
g pSphere1 group1
usemtl blinn1SG
f 1/1/1 11/12/2 2/2/3
f 2/2/3 11/12/2 12/13/4
s 2
f 2/2/5 12/13/6 3/3/7
f 3/3/7 12/13/6 13/14/8
s 3
f 13/14/9 14/15/10 3/3/11
f 3/3/11 14/15/10 4/4/12
s 4
f 14/15/13 15/16/14 4/4/15
f 4/4/15 15/16/14 5/5/16
s 5
f 15/16/17 16/17/18 5/5/19
f 5/5/19 16/17/18 6/6/20
s 6
f 16/17/21 17/18/22 6/6/23
f 6/6/23 17/18/22 7/7/24
s 7
f 7/7/25 17/18/26 8/8/27
f 8/8/27 17/18/26 18/19/28
s 8
f 8/8/29 18/19/30 9/9/31
f 9/9/31 18/19/30 19/20/32
s 9
f 9/9/33 19/20/34 10/10/35
f 10/10/35 19/20/34 20/21/36
s 10
f 10/10/37 20/21/38 1/11/39
f 1/11/39 20/21/38 11/22/40
s 11
f 11/12/41 21/23/42 12/13/43
f 12/13/43 21/23/42 22/24/44
s 12
f 12/13/45 22/24/46 13/14/47
f 13/14/47 22/24/46 23/25/48
s 13
f 13/14/49 23/25/50 14/15/51
f 14/15/51 23/25/50 24/26/52
s 14
f 14/15/53 24/26/54 15/16/55
f 15/16/55 24/26/54 25/27/56
s 15
f 15/16/57 25/27/58 16/17/59
f 16/17/59 25/27/58 26/28/60
s 16
f 16/17/61 26/28/62 17/18/63
f 17/18/63 26/28/62 27/29/64
s 17
f 17/18/65 27/29/66 18/19/67
f 18/19/67 27/29/66 28/30/68
s 18
f 18/19/69 28/30/70 19/20/71
f 19/20/71 28/30/70 29/31/72
s 19
f 19/20/73 29/31/74 20/21/75
f 20/21/75 29/31/74 30/32/76
s 20
f 20/21/77 30/32/78 11/22/79
f 11/22/79 30/32/78 21/33/80
s 21
f 21/23/81 31/34/82 22/24/83
f 22/24/83 31/34/82 32/35/84
s 22
f 22/24/85 32/35/86 23/25/87
f 23/25/87 32/35/86 33/36/88
s 23
f 23/25/89 33/36/90 24/26/91
f 24/26/91 33/36/90 34/37/92
s 24
f 24/26/93 34/37/94 25/27/95
f 25/27/95 34/37/94 35/38/96
s 25
f 25/27/97 35/38/98 26/28/99
f 26/28/99 35/38/98 36/39/100
s 26
f 26/28/101 36/39/102 27/29/103
f 27/29/103 36/39/102 37/40/104
s 27
f 27/29/105 37/40/106 28/30/107
f 28/30/107 37/40/106 38/41/108
s 28
f 28/30/109 38/41/110 29/31/111
f 29/31/111 38/41/110 39/42/112
s 29
f 29/31/113 39/42/114 30/32/115
f 30/32/115 39/42/114 40/43/116
s 30
f 30/32/117 40/43/118 21/33/119
f 21/33/119 40/43/118 31/44/120
s 31
f 31/34/121 41/45/122 32/35/123
f 32/35/123 41/45/122 42/46/124
s 32
f 32/35/125 42/46/126 33/36/127
f 33/36/127 42/46/126 43/47/128
s 33
f 33/36/129 43/47/130 34/37/131
f 34/37/131 43/47/130 44/48/132
s 34
f 34/37/133 44/48/134 35/38/135
f 35/38/135 44/48/134 45/49/136
s 35
f 35/38/137 45/49/138 36/39/139
f 36/39/139 45/49/138 46/50/140
s 36
f 36/39/141 46/50/142 37/40/143
f 37/40/143 46/50/142 47/51/144
s 37
f 37/40/145 47/51/146 38/41/147
f 38/41/147 47/51/146 48/52/148
s 38
f 38/41/149 48/52/150 39/42/151
f 39/42/151 48/52/150 49/53/152
s 39
f 39/42/153 49/53/154 40/43/155
f 40/43/155 49/53/154 50/54/156
s 40
f 40/43/157 50/54/158 31/44/159
f 31/44/159 50/54/158 41/55/160
s off
f 41/45/161 51/56/162 42/46/163
f 42/46/164 51/57/165 43/47/166
f 43/47/167 51/58/168 44/48/169
f 44/48/170 51/59/171 45/49/172
f 45/49/173 51/60/174 46/50/175
f 46/50/176 51/61/177 47/51/178
f 47/51/179 51/62/180 48/52/181
f 48/52/182 51/63/183 49/53/184
f 49/53/185 51/64/186 50/54/187
f 50/54/188 51/65/189 41/55/190
g default
v 3.236068 4.128234 2.304795
v 1.236068 4.128234 3.757868
v -1.236069 4.128234 3.757867
v -3.236069 4.128234 2.304794
v -4.000000 4.128234 -0.046321
v -3.236068 4.128234 -2.397437
v -1.236068 4.128234 -3.850505
v 1.236068 4.128234 -3.850504
v 3.236068 4.128234 -2.397437
v 4.000000 4.128234 -0.046321
v 3.077684 2.886329 2.195336
v 1.175570 2.892683 3.577289
v -1.175571 2.892683 3.577288
v -3.077684 2.886328 2.195335
v -3.804227 2.876047 -0.040711
v -3.077684 2.865764 -2.276755
v -1.175570 2.859409 -3.658706
v 1.175571 2.859408 -3.658706
v 3.077684 2.865764 -2.276754
v 3.804226 2.876047 -0.040711
v 2.618034 1.755177 1.866446
v 1.000000 1.760583 3.042002
v -1.000000 1.760582 3.042001
v -2.618035 1.755177 1.866446
v -3.236068 1.746430 -0.035649
v -2.618034 1.737683 -1.937743
v -1.000000 1.732278 -3.113301
v 1.000000 1.732278 -3.113301
v 2.618034 1.737683 -1.937743
v 3.236068 1.746430 -0.035649
v 1.902113 0.856310 1.350320
v 0.726542 0.860237 2.204414
v -0.726543 0.860237 2.204414
v -1.902113 0.856310 1.350320
v -2.351141 0.849955 -0.031632
v -1.902113 0.843601 -1.413585
v -0.726542 0.839672 -2.267678
v 0.726543 0.839672 -2.267678
v 1.902113 0.843601 -1.413584
v 2.351141 0.849956 -0.031632
v 1.000000 0.277733 0.697483
v 0.381966 0.279799 1.146505
v -0.381966 0.279799 1.146505
v -1.000000 0.277733 0.697482
v -1.236068 0.274392 -0.029053
v -1.000000 0.271052 -0.755589
v -0.381966 0.268985 -1.204611
v 0.381966 0.268985 -1.204611
v 1.000000 0.271052 -0.755589
v 1.236068 0.274392 -0.029053
v 0.000000 0.076067 -0.028164
vt 0.042239 0.286254
vt 0.133791 0.286254
vt 0.225343 0.286254
vt 0.316895 0.286254
vt 0.408448 0.286254
vt 0.500000 0.286254
vt 0.591552 0.286254
vt 0.683105 0.286254
vt 0.774657 0.286254
vt 0.866209 0.286254
vt 0.957761 0.286254
vt 0.042239 0.377806
vt 0.133791 0.377806
vt 0.225343 0.377806
vt 0.316895 0.377806
vt 0.408448 0.377806
vt 0.500000 0.377806
vt 0.591552 0.377806
vt 0.683105 0.377806
vt 0.774657 0.377806
vt 0.866209 0.377806
vt 0.957761 0.377806
vt 0.042239 0.469358
vt 0.133791 0.469358
vt 0.225343 0.469358
vt 0.316895 0.469358
vt 0.408448 0.469358
vt 0.500000 0.469358
vt 0.591552 0.469358
vt 0.683105 0.469358
vt 0.774657 0.469358
vt 0.866209 0.469358
vt 0.957761 0.469358
vt 0.042239 0.560911
vt 0.133791 0.560911
vt 0.225343 0.560911
vt 0.316895 0.560911
vt 0.408448 0.560911
vt 0.500000 0.560911
vt 0.591552 0.560911
vt 0.683105 0.560911
vt 0.774657 0.560911
vt 0.866209 0.560911
vt 0.957761 0.560911
vt 0.042239 0.652463
vt 0.133791 0.652463
vt 0.225343 0.652463
vt 0.316895 0.652463
vt 0.408448 0.652463
vt 0.500000 0.652463
vt 0.591552 0.652463
vt 0.683105 0.652463
vt 0.774657 0.652463
vt 0.866209 0.652463
vt 0.957761 0.652463
vt 0.088015 0.744015
vt 0.179567 0.744015
vt 0.271119 0.744015
vt 0.362672 0.744015
vt 0.454224 0.744015
vt 0.545776 0.744015
vt 0.637328 0.744015
vt 0.728881 0.744015
vt 0.820433 0.744015
vt 0.911985 0.744015
vn 0.581593 -0.144727 0.800502
vn 0.581336 -0.145230 0.800598
vn 0.581485 -0.144939 0.800542
vn 0.581210 -0.145474 0.800645
vn -0.000000 -0.144616 0.989488
vn -0.000000 -0.144616 0.989488
vn -0.000000 -0.144616 0.989488
vn 0.000000 -0.144616 0.989488
vn -0.581594 -0.144727 0.800502
vn -0.581485 -0.144939 0.800542
vn -0.581336 -0.145230 0.800598
vn -0.581211 -0.145475 0.800644
vn -0.940902 -0.145736 0.305721
vn -0.940797 -0.146080 0.305879
vn -0.940655 -0.146545 0.306093
vn -0.940533 -0.146944 0.306276
vn -0.940691 -0.147233 -0.305652
vn -0.940699 -0.147580 -0.305459
vn -0.940710 -0.148042 -0.305203
vn -0.940719 -0.148444 -0.304979
vn -0.581250 -0.148648 -0.800032
vn -0.581326 -0.148866 -0.799937
vn -0.581424 -0.149149 -0.799813
vn -0.581511 -0.149399 -0.799703
vn 0.000000 -0.149464 -0.988767
vn 0.000000 -0.149464 -0.988767
vn 0.000000 -0.149464 -0.988767
vn 0.000000 -0.149464 -0.988767
vn 0.581251 -0.148648 -0.800032
vn 0.581425 -0.149150 -0.799812
vn 0.581326 -0.148866 -0.799937
vn 0.581511 -0.149400 -0.799703
vn 0.940691 -0.147233 -0.305652
vn 0.940710 -0.148041 -0.305203
vn 0.940699 -0.147580 -0.305459
vn 0.940719 -0.148443 -0.304979
vn 0.940902 -0.145736 0.305721
vn 0.940655 -0.146546 0.306093
vn 0.940797 -0.146080 0.305879
vn 0.940533 -0.146944 0.306276
vn 0.530225 -0.428226 0.731768
vn 0.530224 -0.428227 0.731768
vn 0.530224 -0.428227 0.731768
vn 0.530223 -0.428228 0.731768
vn 0.000000 -0.427453 0.904038
vn -0.000000 -0.427453 0.904038
vn -0.000000 -0.427453 0.904038
vn -0.000000 -0.427453 0.904038
vn -0.530224 -0.428228 0.731767
vn -0.530224 -0.428227 0.731768
vn -0.530224 -0.428227 0.731768
vn -0.530224 -0.428226 0.731769
vn -0.857941 -0.430257 0.280743
vn -0.857941 -0.430257 0.280743
vn -0.857941 -0.430257 0.280743
vn -0.857941 -0.430256 0.280743
vn -0.857965 -0.432767 -0.276783
vn -0.857965 -0.432767 -0.276783
vn -0.857965 -0.432767 -0.276783
vn -0.857965 -0.432767 -0.276783
vn -0.530264 -0.434798 -0.727854
vn -0.530264 -0.434798 -0.727854
vn -0.530264 -0.434798 -0.727854
vn -0.530264 -0.434798 -0.727854
vn -0.000000 -0.435574 -0.900153
vn -0.000000 -0.435574 -0.900153
vn -0.000000 -0.435574 -0.900153
vn 0.000000 -0.435574 -0.900153
vn 0.530264 -0.434798 -0.727854
vn 0.530264 -0.434798 -0.727854
vn 0.530264 -0.434798 -0.727854
vn 0.530264 -0.434797 -0.727854
vn 0.857965 -0.432767 -0.276783
vn 0.857965 -0.432767 -0.276782
vn 0.857965 -0.432767 -0.276783
vn 0.857965 -0.432767 -0.276782
vn 0.857941 -0.430256 0.280743
vn 0.857941 -0.430257 0.280743
vn 0.857941 -0.430257 0.280743
vn 0.857941 -0.430257 0.280743
vn 0.428513 -0.681761 0.592940
vn 0.428514 -0.681761 0.592940
vn 0.428514 -0.681761 0.592940
vn 0.428515 -0.681760 0.592940
vn 0.000000 -0.681129 0.732164
vn -0.000000 -0.681129 0.732164
vn -0.000000 -0.681129 0.732164
vn -0.000000 -0.681129 0.732164
vn -0.428514 -0.681761 0.592941
vn -0.428514 -0.681761 0.592940
vn -0.428514 -0.681761 0.592940
vn -0.428514 -0.681762 0.592939
vn -0.693370 -0.683415 0.228434
vn -0.693370 -0.683415 0.228435
vn -0.693370 -0.683415 0.228434
vn -0.693370 -0.683414 0.228435
vn -0.693395 -0.685458 -0.222148
vn -0.693395 -0.685459 -0.222148
vn -0.693395 -0.685458 -0.222148
vn -0.693395 -0.685459 -0.222148
vn -0.428554 -0.687112 -0.586701
vn -0.428555 -0.687112 -0.586701
vn -0.428555 -0.687112 -0.586701
vn -0.428555 -0.687111 -0.586701
vn -0.000000 -0.687743 -0.725954
vn -0.000000 -0.687743 -0.725954
vn -0.000000 -0.687743 -0.725954
vn 0.000000 -0.687743 -0.725954
vn 0.428555 -0.687111 -0.586702
vn 0.428555 -0.687112 -0.586701
vn 0.428555 -0.687112 -0.586701
vn 0.428555 -0.687113 -0.586700
vn 0.693395 -0.685459 -0.222148
vn 0.693395 -0.685459 -0.222148
vn 0.693395 -0.685459 -0.222148
vn 0.693395 -0.685459 -0.222148
vn 0.693370 -0.683415 0.228434
vn 0.693370 -0.683415 0.228434
vn 0.693370 -0.683415 0.228434
vn 0.693370 -0.683415 0.228434
vn 0.280368 -0.877125 0.389930
vn 0.280367 -0.877125 0.389930
vn 0.280367 -0.877125 0.389930
vn 0.280365 -0.877126 0.389930
vn 0.000000 -0.876709 0.481020
vn 0.000000 -0.876709 0.481021
vn 0.000000 -0.876709 0.481021
vn 0.000000 -0.876709 0.481021
vn -0.280367 -0.877126 0.389929
vn -0.280367 -0.877126 0.389929
vn -0.280367 -0.877126 0.389930
vn -0.280367 -0.877125 0.389930
vn -0.453655 -0.878216 0.151442
vn -0.453655 -0.878216 0.151442
vn -0.453655 -0.878216 0.151442
vn -0.453655 -0.878215 0.151442
vn -0.453669 -0.879563 -0.143363
vn -0.453669 -0.879563 -0.143364
vn -0.453669 -0.879563 -0.143364
vn -0.453668 -0.879563 -0.143364
vn -0.280390 -0.880654 -0.381877
vn -0.280391 -0.880654 -0.381877
vn -0.280391 -0.880654 -0.381877
vn -0.280391 -0.880653 -0.381877
vn 0.000000 -0.881070 -0.472985
vn 0.000000 -0.881070 -0.472985
vn 0.000000 -0.881070 -0.472985
vn 0.000000 -0.881070 -0.472985
vn 0.280391 -0.880654 -0.381877
vn 0.280391 -0.880654 -0.381877
vn 0.280391 -0.880654 -0.381877
vn 0.280391 -0.880654 -0.381877
vn 0.453669 -0.879563 -0.143363
vn 0.453669 -0.879563 -0.143363
vn 0.453669 -0.879563 -0.143363
vn 0.453670 -0.879563 -0.143364
vn 0.453656 -0.878215 0.151441
vn 0.453656 -0.878215 0.151441
vn 0.453656 -0.878215 0.151441
vn 0.453655 -0.878215 0.151442
vn 0.097779 -0.985437 0.139117
vn 0.097779 -0.985437 0.139117
vn 0.097779 -0.985437 0.139117
vn 0.000000 -0.985291 0.170886
vn 0.000000 -0.985291 0.170886
vn 0.000000 -0.985291 0.170886
vn -0.097780 -0.985437 0.139116
vn -0.097780 -0.985437 0.139116
vn -0.097780 -0.985437 0.139116
vn -0.158213 -0.985819 0.055941
vn -0.158213 -0.985819 0.055941
vn -0.158213 -0.985819 0.055941
vn -0.158215 -0.986292 -0.046874
vn -0.158215 -0.986292 -0.046874
vn -0.158215 -0.986292 -0.046874
vn -0.097785 -0.986674 -0.130050
vn -0.097785 -0.986674 -0.130050
vn -0.097785 -0.986674 -0.130050
vn 0.000000 -0.986820 -0.161823
vn 0.000000 -0.986820 -0.161823
vn 0.000000 -0.986820 -0.161823
vn 0.097785 -0.986674 -0.130050
vn 0.097785 -0.986674 -0.130050
vn 0.097785 -0.986674 -0.130050
vn 0.158215 -0.986292 -0.046874
vn 0.158215 -0.986292 -0.046874
vn 0.158215 -0.986292 -0.046874
vn 0.158213 -0.985819 0.055941
vn 0.158213 -0.985819 0.055941
vn 0.158213 -0.985819 0.055941
s 1
g group1 pSphere2
usemtl blinn1SG
f 52/66/191 53/67/192 62/77/193
f 62/77/193 53/67/192 63/78/194
s 2
f 53/67/195 54/68/196 63/78/197
f 63/78/197 54/68/196 64/79/198
s 3
f 55/69/199 65/80/200 54/68/201
f 54/68/201 65/80/200 64/79/202
s 4
f 56/70/203 66/81/204 55/69/205
f 55/69/205 66/81/204 65/80/206
s 5
f 57/71/207 67/82/208 56/70/209
f 56/70/209 67/82/208 66/81/210
s 6
f 58/72/211 68/83/212 57/71/213
f 57/71/213 68/83/212 67/82/214
s 7
f 58/72/215 59/73/216 68/83/217
f 68/83/217 59/73/216 69/84/218
s 8
f 59/73/219 60/74/220 69/84/221
f 69/84/221 60/74/220 70/85/222
s 9
f 60/74/223 61/75/224 70/85/225
f 70/85/225 61/75/224 71/86/226
s 10
f 61/75/227 52/76/228 71/86/229
f 71/86/229 52/76/228 62/87/230
s 11
f 62/77/231 63/78/232 72/88/233
f 72/88/233 63/78/232 73/89/234
s 12
f 63/78/235 64/79/236 73/89/237
f 73/89/237 64/79/236 74/90/238
s 13
f 64/79/239 65/80/240 74/90/241
f 74/90/241 65/80/240 75/91/242
s 14
f 65/80/243 66/81/244 75/91/245
f 75/91/245 66/81/244 76/92/246
s 15
f 66/81/247 67/82/248 76/92/249
f 76/92/249 67/82/248 77/93/250
s 16
f 67/82/251 68/83/252 77/93/253
f 77/93/253 68/83/252 78/94/254
s 17
f 68/83/255 69/84/256 78/94/257
f 78/94/257 69/84/256 79/95/258
s 18
f 69/84/259 70/85/260 79/95/261
f 79/95/261 70/85/260 80/96/262
s 19
f 70/85/263 71/86/264 80/96/265
f 80/96/265 71/86/264 81/97/266
s 20
f 71/86/267 62/87/268 81/97/269
f 81/97/269 62/87/268 72/98/270
s 21
f 72/88/271 73/89/272 82/99/273
f 82/99/273 73/89/272 83/100/274
s 22
f 73/89/275 74/90/276 83/100/277
f 83/100/277 74/90/276 84/101/278
s 23
f 74/90/279 75/91/280 84/101/281
f 84/101/281 75/91/280 85/102/282
s 24
f 75/91/283 76/92/284 85/102/285
f 85/102/285 76/92/284 86/103/286
s 25
f 76/92/287 77/93/288 86/103/289
f 86/103/289 77/93/288 87/104/290
s 26
f 77/93/291 78/94/292 87/104/293
f 87/104/293 78/94/292 88/105/294
s 27
f 78/94/295 79/95/296 88/105/297
f 88/105/297 79/95/296 89/106/298
s 28
f 79/95/299 80/96/300 89/106/301
f 89/106/301 80/96/300 90/107/302
s 29
f 80/96/303 81/97/304 90/107/305
f 90/107/305 81/97/304 91/108/306
s 30
f 81/97/307 72/98/308 91/108/309
f 91/108/309 72/98/308 82/109/310
s 31
f 82/99/311 83/100/312 92/110/313
f 92/110/313 83/100/312 93/111/314
s 32
f 83/100/315 84/101/316 93/111/317
f 93/111/317 84/101/316 94/112/318
s 33
f 84/101/319 85/102/320 94/112/321
f 94/112/321 85/102/320 95/113/322
s 34
f 85/102/323 86/103/324 95/113/325
f 95/113/325 86/103/324 96/114/326
s 35
f 86/103/327 87/104/328 96/114/329
f 96/114/329 87/104/328 97/115/330
s 36
f 87/104/331 88/105/332 97/115/333
f 97/115/333 88/105/332 98/116/334
s 37
f 88/105/335 89/106/336 98/116/337
f 98/116/337 89/106/336 99/117/338
s 38
f 89/106/339 90/107/340 99/117/341
f 99/117/341 90/107/340 100/118/342
s 39
f 90/107/343 91/108/344 100/118/345
f 100/118/345 91/108/344 101/119/346
s 40
f 91/108/347 82/109/348 101/119/349
f 101/119/349 82/109/348 92/120/350
s off
f 92/110/351 93/111/352 102/121/353
f 93/111/354 94/112/355 102/122/356
f 94/112/357 95/113/358 102/123/359
f 95/113/360 96/114/361 102/124/362
f 96/114/363 97/115/364 102/125/365
f 97/115/366 98/116/367 102/126/368
f 98/116/369 99/117/370 102/127/371
f 99/117/372 100/118/373 102/128/374
f 100/118/375 101/119/376 102/129/377
f 101/119/378 92/120/379 102/130/380
