# This file uses centimeters as units for non-parametric coordinates.

mtllib big_sensha_head.mtl
g default
v -0.624692 0.930241 0.372434
v -0.353084 0.930241 0.475179
v 0.000000 0.930241 0.543675
v 0.353084 0.930241 0.475179
v 0.624692 0.930241 0.372434
v -0.624692 1.070931 0.372434
v -0.353084 1.070931 0.475179
v 0.000000 1.070931 0.543675
v 0.353084 1.070931 0.475179
v 0.624692 1.070931 0.372434
v -0.624692 1.211622 0.372434
v -0.353084 1.211622 0.475179
v 0.000000 1.211622 0.543675
v 0.353084 1.211622 0.475179
v 0.624692 1.211622 0.372434
v -0.624692 1.352312 0.372434
v -0.353084 1.352312 0.475179
v 0.000000 1.352312 0.543675
v 0.353084 1.352312 0.475179
v 0.624692 1.352312 0.372434
v -0.538480 1.493002 0.272505
v -0.304356 1.493002 0.361070
v 0.000000 1.493002 0.420114
v 0.304356 1.493002 0.361070
v 0.538480 1.493002 0.272505
v -0.608712 1.493002 0.071740
v -0.327767 1.493002 0.071741
v 0.000000 1.493002 0.071741
v 0.327767 1.493002 0.071741
v 0.608712 1.493002 0.071740
v -0.655534 1.493002 -0.208741
v -0.327767 1.493002 -0.208741
v 0.327767 1.493002 -0.208741
v 0.655534 1.493002 -0.208741
v -0.655534 1.493002 -0.483193
v -0.327767 1.493002 -0.483193
v 0.327767 1.493002 -0.483193
v 0.655534 1.493002 -0.483193
v -0.608712 1.493002 -0.806214
v -0.327767 1.493002 -0.806214
v 0.000000 1.493002 -0.806214
v 0.327767 1.493002 -0.806214
v 0.608712 1.493002 -0.806214
v -0.538480 1.493002 -1.005941
v -0.304356 1.493002 -1.123417
v 0.000000 1.493002 -1.123417
v 0.304356 1.493002 -1.123417
v 0.538480 1.493002 -1.005941
v -0.624692 1.352312 -1.110694
v -0.353084 1.352312 -1.246978
v 0.000000 1.352312 -1.246979
v 0.353084 1.352312 -1.246978
v 0.624692 1.352312 -1.110694
v -0.624692 1.211622 -1.110694
v -0.353084 1.211622 -1.246978
v 0.000000 1.211622 -1.246979
v 0.353084 1.211622 -1.246978
v 0.624692 1.211622 -1.110694
v -0.624692 1.070931 -1.110694
v -0.353084 1.070931 -1.246978
v 0.000000 1.070931 -1.246979
v 0.353084 1.070931 -1.246978
v 0.624692 1.070931 -1.110694
v -0.624692 0.930241 -1.110694
v -0.353084 0.930241 -1.246978
v 0.000000 0.930241 -1.246979
v 0.353084 0.930241 -1.246978
v 0.624692 0.930241 -1.110694
v -0.706169 0.930241 -0.878990
v 0.706169 0.930241 -0.878990
v -0.760486 0.930241 -0.504253
v 0.760486 0.930241 -0.504253
v -0.760486 0.930241 -0.185861
v 0.760486 0.930241 -0.185861
v -0.706169 0.930241 0.139526
v 0.706169 0.930241 0.139526
v 0.706169 1.070931 -0.878990
v 0.760486 1.070931 -0.504253
v 0.760486 1.070931 -0.185861
v 0.706169 1.070931 0.139526
v 0.706169 1.211622 -0.878990
v 0.760486 1.211622 -0.504253
v 0.760486 1.211622 -0.185861
v 0.706169 1.211622 0.139526
v 0.706169 1.352312 -0.878990
v 0.760486 1.352312 -0.504253
v 0.760486 1.352312 -0.185861
v 0.706169 1.352312 0.139526
v -0.706169 1.070931 -0.878990
v -0.760486 1.070931 -0.504253
v -0.760486 1.070931 -0.185861
v -0.706169 1.070931 0.139526
v -0.706169 1.211622 -0.878990
v -0.760486 1.211622 -0.504253
v -0.760486 1.211622 -0.185861
v -0.706169 1.211622 0.139526
v -0.706169 1.352312 -0.878990
v -0.760486 1.352312 -0.504253
v -0.760486 1.352312 -0.185861
v -0.706169 1.352312 0.139526
vt 0.463799 0.371744
vt 0.494852 0.371744
vt 0.525905 0.371744
vt 0.556958 0.371744
vt 0.588011 0.371744
vt 0.463799 0.402797
vt 0.494852 0.402797
vt 0.525905 0.402797
vt 0.556958 0.402797
vt 0.588011 0.402797
vt 0.463799 0.433850
vt 0.494852 0.433850
vt 0.525905 0.433850
vt 0.556958 0.433850
vt 0.588011 0.433850
vt 0.463799 0.464903
vt 0.494852 0.464903
vt 0.525905 0.464903
vt 0.556958 0.464903
vt 0.588011 0.464903
vt 0.463799 0.495956
vt 0.494852 0.495956
vt 0.525905 0.495956
vt 0.556958 0.495956
vt 0.588011 0.495956
vt 0.463799 0.520799
vt 0.494852 0.520799
vt 0.525905 0.520799
vt 0.556958 0.520799
vt 0.588011 0.520799
vt 0.463799 0.545641
vt 0.494852 0.545641
vt 0.556958 0.545641
vt 0.588011 0.545641
vt 0.463799 0.570484
vt 0.494852 0.570484
vt 0.556958 0.570484
vt 0.588011 0.570484
vt 0.463799 0.595326
vt 0.494852 0.595326
vt 0.525905 0.595326
vt 0.556958 0.595326
vt 0.588011 0.595326
vt 0.463799 0.620168
vt 0.494852 0.620168
vt 0.525905 0.620168
vt 0.556958 0.620168
vt 0.588011 0.620168
vt 0.463799 0.651221
vt 0.494852 0.651221
vt 0.525905 0.651221
vt 0.556958 0.651221
vt 0.588011 0.651221
vt 0.463799 0.682275
vt 0.494852 0.682275
vt 0.525905 0.682275
vt 0.556958 0.682275
vt 0.588011 0.682275
vt 0.463799 0.713328
vt 0.494852 0.713328
vt 0.525905 0.713328
vt 0.556958 0.713328
vt 0.588011 0.713328
vt 0.463799 0.744381
vt 0.494852 0.744381
vt 0.525905 0.744381
vt 0.556958 0.744381
vt 0.588011 0.744381
vt 0.712223 0.371744
vt 0.687381 0.371744
vt 0.662539 0.371744
vt 0.637696 0.371744
vt 0.612854 0.371744
vt 0.712223 0.402797
vt 0.687381 0.402797
vt 0.662539 0.402797
vt 0.637696 0.402797
vt 0.612854 0.402797
vt 0.712223 0.433850
vt 0.687381 0.433850
vt 0.662539 0.433850
vt 0.637696 0.433850
vt 0.612854 0.433850
vt 0.712223 0.464903
vt 0.687381 0.464903
vt 0.662539 0.464903
vt 0.637696 0.464903
vt 0.612854 0.464903
vt 0.712223 0.495956
vt 0.687381 0.495956
vt 0.662539 0.495956
vt 0.637696 0.495956
vt 0.612854 0.495956
vt 0.339587 0.371744
vt 0.364429 0.371744
vt 0.389272 0.371744
vt 0.414114 0.371744
vt 0.438956 0.371744
vt 0.339587 0.402797
vt 0.364429 0.402797
vt 0.389272 0.402797
vt 0.414114 0.402797
vt 0.438956 0.402797
vt 0.339587 0.433850
vt 0.364429 0.433850
vt 0.389272 0.433850
vt 0.414114 0.433850
vt 0.438956 0.433850
vt 0.339587 0.464903
vt 0.364429 0.464903
vt 0.389272 0.464903
vt 0.414114 0.464903
vt 0.438956 0.464903
vt 0.339587 0.495956
vt 0.364429 0.495956
vt 0.389272 0.495956
vt 0.414114 0.495956
vt 0.438956 0.495956
vn -0.353815 0.000000 0.935315
vn -0.264369 0.000000 0.964422
vn -0.353815 0.000000 0.935316
vn -0.264368 0.000000 0.964422
vn 0.000000 0.000000 1.000000
vn 0.000000 0.000000 1.000000
vn 0.264368 0.000000 0.964422
vn 0.264368 0.000000 0.964422
vn 0.353815 0.000000 0.935316
vn 0.353815 0.000000 0.935316
vn -0.353815 0.000000 0.935316
vn -0.264369 0.000000 0.964422
vn 0.000000 0.000000 1.000000
vn 0.264369 0.000000 0.964422
vn 0.353815 0.000000 0.935315
vn -0.327982 0.375091 0.867026
vn -0.244277 0.386543 0.889333
vn -0.000000 0.371622 0.928384
vn 0.244277 0.386543 0.889333
vn 0.327982 0.375091 0.867026
vn -0.265463 0.661112 0.701756
vn -0.192856 0.657521 0.728335
vn 0.000000 0.659887 0.751365
vn 0.192856 0.657522 0.728335
vn 0.265463 0.661112 0.701755
vn 0.000000 1.000000 0.000000
vn 0.000000 1.000000 0.000000
vn 0.000000 1.000000 0.000000
vn 0.000000 1.000000 0.000000
vn 0.000000 1.000000 0.000000
vn 0.000000 1.000000 0.000000
vn 0.000000 1.000000 0.000000
vn 0.000000 1.000000 0.000000
vn 0.000000 1.000000 0.000000
vn 0.000000 1.000000 0.000000
vn 0.000000 1.000000 0.000000
vn 0.000000 1.000000 0.000000
vn 0.000000 1.000000 0.000000
vn 0.000000 1.000000 0.000000
vn 0.000000 1.000000 0.000000
vn 0.000000 1.000000 0.000000
vn 0.000000 1.000000 0.000000
vn 0.000000 1.000000 0.000000
vn 0.000000 1.000000 0.000000
vn 0.000000 1.000000 0.000000
vn 0.000000 1.000000 0.000000
vn 0.000000 1.000000 0.000000
vn 0.000000 1.000000 0.000000
vn 0.000000 1.000000 0.000000
vn 0.000000 1.000000 0.000000
vn 0.000000 1.000000 0.000000
vn 0.000000 1.000000 0.000000
vn 0.000000 1.000000 0.000000
vn -0.138078 0.680135 -0.719966
vn -0.198274 0.395691 -0.896725
vn -0.326723 0.685029 -0.651143
vn -0.409613 0.407199 -0.816337
vn 0.000000 0.659887 -0.751365
vn 0.000000 0.386089 -0.922461
vn 0.138078 0.680136 -0.719965
vn 0.198274 0.395692 -0.896725
vn 0.326723 0.685029 -0.651143
vn 0.409613 0.407200 -0.816337
vn -0.448478 0.000000 -0.893794
vn -0.213150 0.000000 -0.977020
vn 0.000000 0.000000 -1.000000
vn 0.213150 0.000000 -0.977020
vn 0.448478 0.000000 -0.893794
vn -0.448478 0.000000 -0.893794
vn -0.213150 0.000000 -0.977020
vn 0.000000 0.000000 -1.000000
vn 0.213150 0.000000 -0.977020
vn 0.448478 0.000000 -0.893794
vn -0.448478 0.000000 -0.893794
vn -0.213150 0.000000 -0.977020
vn -0.000000 0.000000 -1.000000
vn 0.213150 0.000000 -0.977020
vn 0.448478 0.000000 -0.893794
vn 0.975835 0.000000 -0.218509
vn 0.943375 0.000000 -0.331729
vn 0.975835 0.000000 -0.218509
vn 0.943375 0.000000 -0.331729
vn 0.996944 0.000000 -0.078126
vn 0.996944 0.000000 -0.078126
vn 0.996459 0.000000 0.084074
vn 0.996459 0.000000 0.084074
vn 0.971671 0.000000 0.236339
vn 0.971671 0.000000 0.236340
vn 0.943911 0.000000 0.330201
vn 0.943911 0.000000 0.330201
vn 0.975835 0.000000 -0.218509
vn 0.943375 0.000000 -0.331729
vn 0.996944 0.000000 -0.078126
vn 0.996459 0.000000 0.084074
vn 0.971671 0.000000 0.236339
vn 0.943911 0.000000 0.330201
vn 0.912668 0.350577 -0.210081
vn 0.888207 0.336955 -0.312330
vn 0.939296 0.334797 -0.075054
vn 0.936536 0.341499 0.079233
vn 0.905610 0.358720 0.226255
vn 0.893474 0.322508 0.312558
vn 0.727667 0.636417 -0.255878
vn 0.771714 0.616119 -0.157654
vn 0.795815 0.602594 -0.059654
vn 0.795347 0.603138 0.060400
vn 0.767170 0.616600 0.176792
vn 0.732422 0.630801 0.256219
vn -0.943375 0.000000 -0.331729
vn -0.975835 0.000000 -0.218509
vn -0.943375 0.000000 -0.331729
vn -0.975835 0.000000 -0.218509
vn -0.996944 0.000000 -0.078126
vn -0.996944 0.000000 -0.078126
vn -0.996459 0.000000 0.084074
vn -0.996459 0.000000 0.084074
vn -0.971671 0.000000 0.236339
vn -0.971671 0.000000 0.236340
vn -0.943910 0.000000 0.330202
vn -0.943910 0.000000 0.330202
vn -0.943375 0.000000 -0.331729
vn -0.975835 0.000000 -0.218509
vn -0.996944 0.000000 -0.078126
vn -0.996459 0.000000 0.084074
vn -0.971671 0.000000 0.236339
vn -0.943911 0.000000 0.330201
vn -0.888207 0.336956 -0.312330
vn -0.912668 0.350577 -0.210081
vn -0.939296 0.334797 -0.075054
vn -0.933520 0.349307 0.080773
vn -0.907663 0.352110 0.228400
vn -0.893474 0.322508 0.312558
vn -0.727667 0.636418 -0.255878
vn -0.771714 0.616119 -0.157654
vn -0.795815 0.602594 -0.059654
vn -0.794909 0.603365 0.063803
vn -0.765929 0.617241 0.179906
vn -0.732422 0.630801 0.256219
vn 0.000000 1.000000 0.000000
vn 0.000000 1.000000 0.000000
vn 0.000000 1.000000 0.000000
vn 0.000000 1.000000 0.000000
vn 0.000000 1.000000 0.000000
vn 0.000000 1.000000 0.000000
vn 0.000000 1.000000 0.000000
vn 0.000000 1.000000 0.000000
vn 0.000000 1.000000 0.000000
vn 0.000000 1.000000 0.000000
s 1
g pCube1 group2 group5
usemtl blinn7SG
f 1/1/1 2/2/2 6/6/3
f 6/6/3 2/2/2 7/7/4
f 2/2/2 3/3/5 7/7/4
f 7/7/4 3/3/5 8/8/6
f 3/3/5 4/4/7 8/8/6
f 8/8/6 4/4/7 9/9/8
f 4/4/7 5/5/9 9/9/8
f 9/9/8 5/5/9 10/10/10
f 6/6/3 7/7/4 11/11/11
f 11/11/11 7/7/4 12/12/12
f 7/7/4 8/8/6 12/12/12
f 12/12/12 8/8/6 13/13/13
f 8/8/6 9/9/8 13/13/13
f 13/13/13 9/9/8 14/14/14
f 9/9/8 10/10/10 14/14/14
f 14/14/14 10/10/10 15/15/15
f 11/11/11 12/12/12 16/16/16
f 16/16/16 12/12/12 17/17/17
f 12/12/12 13/13/13 17/17/17
f 17/17/17 13/13/13 18/18/18
f 13/13/13 14/14/14 18/18/18
f 18/18/18 14/14/14 19/19/19
f 14/14/14 15/15/15 19/19/19
f 19/19/19 15/15/15 20/20/20
f 16/16/16 17/17/17 21/21/21
f 21/21/21 17/17/17 22/22/22
f 17/17/17 18/18/18 22/22/22
f 22/22/22 18/18/18 23/23/23
f 19/19/19 24/24/24 18/18/18
f 18/18/18 24/24/24 23/23/23
f 20/20/20 25/25/25 19/19/19
f 19/19/19 25/25/25 24/24/24
s 2
f 22/22/26 27/27/27 21/21/28
f 21/21/28 27/27/27 26/26/29
f 23/23/30 28/28/31 22/22/26
f 22/22/26 28/28/31 27/27/27
f 23/23/30 24/24/32 28/28/31
f 28/28/31 24/24/32 29/29/33
f 24/24/32 25/25/34 29/29/33
f 29/29/33 25/25/34 30/30/35
f 27/27/27 32/32/36 26/26/29
f 26/26/29 32/32/36 31/31/37
f 29/29/33 30/30/35 33/33/38
f 33/33/38 30/30/35 34/34/39
f 31/31/37 32/32/36 35/35/40
f 35/35/40 32/32/36 36/36/41
f 33/33/38 34/34/39 37/37/42
f 37/37/42 34/34/39 38/38/43
f 35/35/40 36/36/41 39/39/44
f 39/39/44 36/36/41 40/40/45
f 38/38/43 43/43/46 37/37/42
f 37/37/42 43/43/46 42/42/47
f 39/39/44 40/40/45 44/44/48
f 44/44/48 40/40/45 45/45/49
f 40/40/45 41/41/50 45/45/49
f 45/45/49 41/41/50 46/46/51
f 42/42/47 47/47/52 41/41/50
f 41/41/50 47/47/52 46/46/51
f 43/43/46 48/48/53 42/42/47
f 42/42/47 48/48/53 47/47/52
s 5
f 45/45/54 50/50/55 44/44/56
f 44/44/56 50/50/55 49/49/57
f 46/46/58 51/51/59 45/45/54
f 45/45/54 51/51/59 50/50/55
f 46/46/58 47/47/60 51/51/59
f 51/51/59 47/47/60 52/52/61
f 47/47/60 48/48/62 52/52/61
f 52/52/61 48/48/62 53/53/63
f 49/49/57 50/50/55 54/54/64
f 54/54/64 50/50/55 55/55/65
f 50/50/55 51/51/59 55/55/65
f 55/55/65 51/51/59 56/56/66
f 51/51/59 52/52/61 56/56/66
f 56/56/66 52/52/61 57/57/67
f 52/52/61 53/53/63 57/57/67
f 57/57/67 53/53/63 58/58/68
f 54/54/64 55/55/65 59/59/69
f 59/59/69 55/55/65 60/60/70
f 55/55/65 56/56/66 60/60/70
f 60/60/70 56/56/66 61/61/71
f 56/56/66 57/57/67 61/61/71
f 61/61/71 57/57/67 62/62/72
f 57/57/67 58/58/68 62/62/72
f 62/62/72 58/58/68 63/63/73
f 59/59/69 60/60/70 64/64/74
f 64/64/74 60/60/70 65/65/75
f 60/60/70 61/61/71 65/65/75
f 65/65/75 61/61/71 66/66/76
f 61/61/71 62/62/72 66/66/76
f 66/66/76 62/62/72 67/67/77
f 62/62/72 63/63/73 67/67/77
f 67/67/77 63/63/73 68/68/78
s 7
f 70/70/79 68/69/80 77/75/81
f 77/75/81 68/69/80 63/74/82
f 72/71/83 70/70/79 78/76/84
f 78/76/84 70/70/79 77/75/81
f 74/72/85 72/71/83 79/77/86
f 79/77/86 72/71/83 78/76/84
f 76/73/87 74/72/85 80/78/88
f 80/78/88 74/72/85 79/77/86
f 5/5/89 76/73/87 10/10/90
f 10/10/90 76/73/87 80/78/88
f 77/75/81 63/74/82 81/80/91
f 81/80/91 63/74/82 58/79/92
f 78/76/84 77/75/81 82/81/93
f 82/81/93 77/75/81 81/80/91
f 79/77/86 78/76/84 83/82/94
f 83/82/94 78/76/84 82/81/93
f 80/78/88 79/77/86 84/83/95
f 84/83/95 79/77/86 83/82/94
f 10/10/90 80/78/88 15/15/96
f 15/15/96 80/78/88 84/83/95
f 81/80/91 58/79/92 85/85/97
f 85/85/97 58/79/92 53/84/98
f 82/81/93 81/80/91 86/86/99
f 86/86/99 81/80/91 85/85/97
f 83/82/94 82/81/93 87/87/100
f 87/87/100 82/81/93 86/86/99
f 84/83/95 83/82/94 88/88/101
f 88/88/101 83/82/94 87/87/100
f 15/15/96 84/83/95 20/20/102
f 20/20/102 84/83/95 88/88/101
f 53/84/98 48/89/103 85/85/97
f 85/85/97 48/89/103 43/90/104
f 85/85/97 43/90/104 86/86/99
f 86/86/99 43/90/104 38/91/105
f 87/87/100 86/86/99 34/92/106
f 34/92/106 86/86/99 38/91/105
f 88/88/101 87/87/100 30/93/107
f 30/93/107 87/87/100 34/92/106
f 88/88/101 30/93/107 20/20/102
f 20/20/102 30/93/107 25/25/108
s 8
f 64/94/109 69/95/110 59/99/111
f 59/99/111 69/95/110 89/100/112
f 69/95/110 71/96/113 89/100/112
f 89/100/112 71/96/113 90/101/114
f 71/96/113 73/97/115 90/101/114
f 90/101/114 73/97/115 91/102/116
f 73/97/115 75/98/117 91/102/116
f 91/102/116 75/98/117 92/103/118
f 75/98/117 1/1/119 92/103/118
f 92/103/118 1/1/119 6/6/120
f 59/99/111 89/100/112 54/104/121
f 54/104/121 89/100/112 93/105/122
f 89/100/112 90/101/114 93/105/122
f 93/105/122 90/101/114 94/106/123
f 90/101/114 91/102/116 94/106/123
f 94/106/123 91/102/116 95/107/124
f 91/102/116 92/103/118 95/107/124
f 95/107/124 92/103/118 96/108/125
f 92/103/118 6/6/120 96/108/125
f 96/108/125 6/6/120 11/11/126
f 54/104/121 93/105/122 49/109/127
f 49/109/127 93/105/122 97/110/128
f 93/105/122 94/106/123 97/110/128
f 97/110/128 94/106/123 98/111/129
f 94/106/123 95/107/124 98/111/129
f 98/111/129 95/107/124 99/112/130
f 95/107/124 96/108/125 99/112/130
f 99/112/130 96/108/125 100/113/131
f 96/108/125 11/11/126 100/113/131
f 100/113/131 11/11/126 16/16/132
f 49/109/127 97/110/128 44/114/133
f 44/114/133 97/110/128 39/115/134
f 97/110/128 98/111/129 39/115/134
f 39/115/134 98/111/129 35/116/135
f 99/112/130 31/117/136 98/111/129
f 98/111/129 31/117/136 35/116/135
f 99/112/130 100/113/131 31/117/136
f 31/117/136 100/113/131 26/118/137
f 100/113/131 16/16/132 26/118/137
f 26/118/137 16/16/132 21/21/138
s 9
f 29/29/139 33/33/140 28/28/141
f 42/42/142 41/41/143 37/37/144
f 40/40/145 36/36/146 41/41/143
f 27/27/147 28/28/141 32/32/148
f 33/33/140 37/37/144 28/28/141
f 37/37/144 41/41/143 28/28/141
f 32/32/148 28/28/141 36/36/146
f 28/28/141 41/41/143 36/36/146
g default
v -0.002464 1.424284 0.478083
v -0.137973 1.356653 0.507718
v -0.169587 1.208540 0.505260
v -0.073498 1.091477 0.525517
v 0.077937 1.093614 0.525517
v 0.170683 1.213343 0.505260
v 0.134901 1.360505 0.507718
v -0.002464 1.424284 2.146119
v -0.137973 1.356653 2.146119
v -0.169587 1.208540 2.146119
v -0.073498 1.091477 2.146119
v 0.077937 1.093614 2.146119
v 0.170683 1.213343 2.146119
v 0.134901 1.360505 2.146119
v 0.000000 1.249774 0.533217
v -0.110379 1.335277 2.119616
v -0.001971 1.389382 2.119616
v 0.107921 1.338359 2.119616
v 0.136546 1.220629 2.119616
v 0.062349 1.124846 2.119616
v -0.058798 1.123136 2.119616
v -0.135669 1.216787 2.119616
vt 0.900133 0.374720
vt 0.815590 0.355424
vt 0.747792 0.409491
vt 0.747792 0.496209
vt 0.815590 0.550277
vt 0.900133 0.530980
vt 0.937759 0.452850
vt 0.757882 0.552782
vt 0.780723 0.552782
vt 0.803565 0.552782
vt 0.826406 0.552782
vt 0.849248 0.552782
vt 0.872089 0.552782
vt 0.894931 0.552782
vt 0.917772 0.552782
vt 0.757882 0.793219
vt 0.780723 0.793219
vt 0.803565 0.793219
vt 0.826406 0.793219
vt 0.849248 0.793219
vt 0.872089 0.793219
vt 0.894931 0.793219
vt 0.917772 0.793219
vt 0.900133 0.814420
vt 0.815590 0.795124
vt 0.747792 0.849191
vt 0.747792 0.935909
vt 0.815590 0.989976
vt 0.900133 0.970680
vt 0.937759 0.892550
vt 0.837827 0.448853
vt 0.820037 0.969692
vt 0.887672 0.954255
vt 0.917773 0.891751
vt 0.887672 0.829247
vt 0.820037 0.813810
vt 0.765799 0.857064
vt 0.765799 0.926438
vn -0.446558 0.894755 0.000000
vn -0.446558 0.894755 0.000000
vn -0.446558 0.894755 0.000000
vn -0.446558 0.894755 0.000000
vn -0.977972 0.208737 0.000000
vn -0.977972 0.208737 0.000000
vn -0.977972 0.208737 0.000000
vn -0.977972 0.208737 0.000000
vn -0.772952 -0.634464 0.000000
vn -0.772952 -0.634464 0.000000
vn -0.772952 -0.634464 0.000000
vn -0.772952 -0.634464 0.000000
vn 0.014115 -0.999900 0.000000
vn 0.014115 -0.999900 0.000000
vn 0.014115 -0.999900 0.000000
vn 0.014115 -0.999900 0.000000
vn 0.790554 -0.612392 0.000000
vn 0.790554 -0.612392 0.000000
vn 0.790554 -0.612392 0.000000
vn 0.790554 -0.612392 0.000000
vn 0.971690 0.236260 0.000000
vn 0.971690 0.236260 0.000000
vn 0.971690 0.236260 0.000000
vn 0.971690 0.236260 0.000000
vn 0.421123 0.907004 0.000000
vn 0.421123 0.907004 0.000000
vn 0.421123 0.907004 0.000000
vn 0.421123 0.907004 0.000000
vn 0.051865 -0.167913 -0.984437
vn 0.004252 -0.301202 -0.953551
vn 0.001387 -0.098252 -0.995161
vn 0.168549 -0.025113 -0.985373
vn 0.085993 0.008535 -0.996259
vn -0.086200 0.006104 -0.996259
vn -0.167773 -0.029861 -0.985373
vn -0.047104 -0.169310 -0.984437
vn 0.032457 -0.604151 0.796208
vn 0.492580 -0.351305 0.796209
vn 0.036420 -0.604033 0.796127
vn 0.494959 -0.348134 0.796127
vn 0.581782 0.166079 0.796208
vn 0.580786 0.169915 0.796126
vn 0.232889 0.558402 0.796209
vn 0.229267 0.560016 0.796128
vn -0.291376 0.530236 0.796210
vn -0.294894 0.528410 0.796128
vn -0.596222 0.102793 0.796211
vn -0.596988 0.098903 0.796130
vn -0.452107 -0.402057 0.796210
vn -0.449544 -0.405081 0.796128
vn 0.000000 0.000000 1.000000
vn -0.000000 0.000000 1.000000
vn -0.000000 0.000000 1.000000
vn 0.000001 0.000000 1.000000
vn 0.000001 0.000000 1.000000
vn -0.000001 0.000000 1.000000
vn -0.000005 0.000000 1.000000
s 1
g group2 group5 pCylinder1
usemtl blinn7SG
f 101/126/149 102/127/150 108/134/151
f 108/134/151 102/127/150 109/135/152
s 2
f 103/128/153 110/136/154 102/127/155
f 102/127/155 110/136/154 109/135/156
s 3
f 103/128/157 104/129/158 110/136/159
f 110/136/159 104/129/158 111/137/160
s 4
f 104/129/161 105/130/162 111/137/163
f 111/137/163 105/130/162 112/138/164
s 5
f 106/131/165 113/139/166 105/130/167
f 105/130/167 113/139/166 112/138/168
s 6
f 106/131/169 107/132/170 113/139/171
f 113/139/171 107/132/170 114/140/172
s 7
f 101/133/173 108/141/174 107/132/175
f 107/132/175 108/141/174 114/140/176
s 8
f 102/120/177 101/119/178 115/149/179
f 103/121/180 102/120/177 115/149/179
f 104/122/181 103/121/180 115/149/179
f 105/123/182 104/122/181 115/149/179
f 106/124/183 105/123/182 115/149/179
f 107/125/184 106/124/183 115/149/179
f 101/119/178 107/125/184 115/149/179
s 9
f 108/147/185 109/146/186 117/151/187
f 117/151/187 109/146/186 116/150/188
f 109/146/186 110/145/189 116/150/188
f 116/150/188 110/145/189 122/156/190
f 110/145/189 111/144/191 122/156/190
f 122/156/190 111/144/191 121/155/192
f 111/144/191 112/143/193 121/155/192
f 121/155/192 112/143/193 120/154/194
f 112/143/193 113/142/195 120/154/194
f 120/154/194 113/142/195 119/153/196
f 113/142/195 114/148/197 119/153/196
f 119/153/196 114/148/197 118/152/198
f 114/148/197 108/147/185 118/152/198
f 118/152/198 108/147/185 117/151/187
s 10
f 117/151/199 116/150/200 118/152/201
f 116/150/200 122/156/202 118/152/201
f 122/156/202 121/155/203 118/152/201
f 121/155/203 120/154/204 118/152/201
f 120/154/204 119/153/205 118/152/201
g default
v 0.291991 1.489706 -0.754684
v 0.007455 1.489706 -0.872543
v -0.277081 1.489706 -0.754684
v -0.394940 1.489706 -0.470148
v -0.277081 1.489704 -0.185612
v 0.007455 1.489706 -0.067753
v 0.291991 1.489706 -0.185612
v 0.409850 1.489706 -0.470148
v 0.291991 1.627393 -0.754684
v 0.007455 1.627393 -0.872543
v -0.277081 1.627393 -0.754684
v -0.394940 1.627391 -0.470148
v -0.277081 1.627391 -0.185612
v 0.007455 1.627393 -0.067753
v 0.291991 1.627394 -0.185612
v 0.409850 1.627393 -0.470148
v 0.007455 1.627393 -0.470148
vt 0.544069 0.037744
vt 0.568456 0.037744
vt 0.592842 0.037744
vt 0.617228 0.037744
vt 0.641614 0.037744
vt 0.666000 0.037744
vt 0.690387 0.037744
vt 0.714773 0.037744
vt 0.739159 0.037744
vt 0.544069 0.331113
vt 0.568456 0.331113
vt 0.592842 0.331113
vt 0.617228 0.331113
vt 0.641614 0.331113
vt 0.666000 0.331113
vt 0.690387 0.331113
vt 0.714773 0.331113
vt 0.739159 0.331113
vt 0.601669 0.795618
vt 0.524178 0.763521
vt 0.446687 0.795618
vt 0.414590 0.873109
vt 0.446687 0.950600
vt 0.524178 0.982697
vt 0.601669 0.950600
vt 0.633766 0.873109
vt 0.524178 0.868725
vn 0.382684 0.000000 -0.923880
vn 0.382683 0.000000 -0.923880
vn 0.382684 0.000000 -0.923879
vn 0.382683 0.000000 -0.923880
vn -0.382683 0.000000 -0.923880
vn -0.382684 0.000000 -0.923879
vn -0.382683 0.000000 -0.923880
vn -0.382684 0.000000 -0.923880
vn -0.923880 0.000000 -0.382684
vn -0.923880 0.000000 -0.382683
vn -0.923880 0.000000 -0.382684
vn -0.923880 0.000000 -0.382683
vn -0.923880 0.000000 0.382683
vn -0.923879 0.000000 0.382684
vn -0.923880 0.000000 0.382683
vn -0.923880 0.000000 0.382684
vn -0.382684 0.000000 0.923880
vn -0.382683 0.000000 0.923880
vn -0.382684 0.000000 0.923880
vn -0.382683 0.000000 0.923880
vn 0.382683 0.000000 0.923880
vn 0.382683 0.000000 0.923880
vn 0.382683 0.000000 0.923880
vn 0.382683 0.000000 0.923880
vn 0.923880 0.000000 0.382683
vn 0.923880 0.000000 0.382684
vn 0.923880 0.000000 0.382683
vn 0.923879 0.000000 0.382684
vn 0.923879 0.000000 -0.382684
vn 0.923879 0.000000 -0.382684
vn 0.923879 0.000000 -0.382684
vn 0.923880 0.000000 -0.382684
vn 0.000000 1.000000 0.000000
vn 0.000000 1.000000 0.000000
vn -0.000002 1.000000 0.000001
vn -0.000003 1.000000 0.000002
vn -0.000005 1.000000 0.000003
vn -0.000006 1.000000 0.000001
vn -0.000005 1.000000 0.000000
vn -0.000001 1.000000 -0.000001
vn 0.000000 1.000000 -0.000001
vn 0.000000 -1.000000 0.000000
vn 0.000000 -1.000000 0.000002
vn 0.000002 -1.000000 -0.000001
vn 0.000001 -1.000000 0.000001
vn 0.000001 -1.000000 -0.000000
vn 0.000004 -1.000000 -0.000002
vn 0.000007 -1.000000 -0.000003
vn -0.000009 -1.000000 -0.000004
s 1
g group2 group5 pCylinder2
usemtl blinn7SG
f 123/157/206 124/158/207 131/166/208
f 131/166/208 124/158/207 132/167/209
s 2
f 124/158/210 125/159/211 132/167/212
f 132/167/212 125/159/211 133/168/213
s 3
f 125/159/214 126/160/215 133/168/216
f 133/168/216 126/160/215 134/169/217
s 4
f 126/160/218 127/161/219 134/169/220
f 134/169/220 127/161/219 135/170/221
s 5
f 127/161/222 128/162/223 135/170/224
f 135/170/224 128/162/223 136/171/225
s 6
f 128/162/226 129/163/227 136/171/228
f 136/171/228 129/163/227 137/172/229
s 7
f 129/163/230 130/164/231 137/172/232
f 137/172/232 130/164/231 138/173/233
s 8
f 130/164/234 123/165/235 138/173/236
f 138/173/236 123/165/235 131/174/237
s 9
f 131/181/238 132/180/239 139/183/240
f 132/180/239 133/179/241 139/183/240
f 133/179/241 134/178/242 139/183/240
f 134/178/242 135/177/243 139/183/240
f 135/177/243 136/176/244 139/183/240
f 136/176/244 137/175/245 139/183/240
f 137/175/245 138/182/246 139/183/240
f 138/182/246 131/181/238 139/183/240
s 10
f 124/158/247 123/165/248 125/159/249
f 123/165/248 130/164/250 125/159/249
f 130/164/250 129/163/251 125/159/249
f 129/163/251 128/162/252 125/159/249
f 128/162/252 127/161/253 125/159/249
f 127/161/253 126/160/254 125/159/249
