# This file uses centimeters as units for non-parametric coordinates.

mtllib boxs.mtl
g default
v -2.242480 1.701517 0.781397
v -1.494986 1.678052 0.781397
v -0.747493 1.678052 0.781397
v 0.000000 1.649141 0.781397
v 0.747493 1.678052 0.781397
v 1.494987 1.742064 0.781397
v 2.242480 1.678052 0.781397
v -2.242480 1.678052 0.260466
v -1.494986 1.908878 0.260466
v -0.747493 1.770294 0.260466
v 0.000000 1.788565 0.260466
v 0.747493 1.992614 0.260466
v 1.494987 1.807515 0.260466
v 2.242480 1.678052 0.260466
v -2.242480 1.678052 -0.260466
v -1.494986 1.666793 -0.260466
v -0.747493 2.067026 -0.260466
v 0.000000 1.912104 -0.260466
v 0.747493 1.758516 -0.260466
v 1.494987 1.926069 -0.260466
v 2.242480 1.678052 -0.260466
v -2.242480 1.717891 -0.781397
v -1.494986 1.678052 -0.781397
v -0.747493 1.724595 -0.781397
v 0.000000 1.678052 -0.781397
v 0.747493 1.678052 -0.781397
v 1.494987 1.678052 -0.781397
v 2.242480 1.709809 -0.781397
vt 0.566085 0.114090
vt 0.629548 0.114090
vt 0.693010 0.114090
vt 0.756472 0.114090
vt 0.819935 0.114090
vt 0.883397 0.114090
vt 0.946859 0.114090
vt 0.566085 0.241015
vt 0.629548 0.241015
vt 0.693010 0.241015
vt 0.756472 0.241015
vt 0.819935 0.241015
vt 0.883397 0.241015
vt 0.946859 0.241015
vt 0.566085 0.367939
vt 0.629548 0.367939
vt 0.693010 0.367939
vt 0.756472 0.367939
vt 0.819935 0.367939
vt 0.883397 0.367939
vt 0.946859 0.367939
vt 0.566085 0.494864
vt 0.629548 0.494864
vt 0.693010 0.494864
vt 0.756472 0.494864
vt 0.819935 0.494864
vt 0.883397 0.494864
vt 0.946859 0.494864
vn 0.031345 0.998496 -0.044977
vn -0.034249 0.957291 0.287092
vn -0.112638 0.993466 -0.018411
vn -0.057671 0.998284 -0.010185
vn 0.000316 0.981490 0.191511
vn -0.029686 0.965385 0.259134
vn 0.000000 0.966000 0.258543
vn -0.034626 0.978121 0.205136
vn -0.029636 0.912404 0.408216
vn -0.011684 0.997327 0.072122
vn 0.027075 0.994516 0.101016
vn 0.113555 0.984097 0.136595
vn 0.085323 0.996353 0.000000
vn 0.144792 0.989167 0.024179
vn -0.137230 0.980212 -0.142663
vn 0.026769 0.999260 0.027620
vn -0.143434 0.988880 -0.039286
vn 0.148047 0.984828 -0.090536
vn -0.007957 0.973513 -0.228495
vn 0.050459 0.991885 -0.116698
vn 0.169864 0.984746 -0.037704
vn -0.016157 0.999349 0.032245
vn 0.053067 0.995683 0.076148
vn -0.105646 0.892099 -0.439316
vn 0.087973 0.927524 -0.363263
vn 0.000000 0.988280 -0.152652
vn 0.027766 0.953717 -0.299420
vn -0.042368 0.997251 0.060795
s 1
g pPlane1 group3
usemtl blinn1SG
f 1/1/1 2/2/2 8/8/3
f 8/8/3 2/2/2 9/9/4
f 3/3/5 10/10/6 2/2/2
f 2/2/2 10/10/6 9/9/4
f 4/4/7 11/11/8 3/3/5
f 3/3/5 11/11/8 10/10/6
f 4/4/7 5/5/9 11/11/8
f 11/11/8 5/5/9 12/12/10
f 6/6/11 13/13/12 5/5/9
f 5/5/9 13/13/12 12/12/10
f 7/7/13 14/14/14 6/6/11
f 6/6/11 14/14/14 13/13/12
f 9/9/4 16/16/15 8/8/3
f 8/8/3 16/16/15 15/15/16
f 9/9/4 10/10/6 16/16/15
f 16/16/15 10/10/6 17/17/17
f 11/11/8 18/18/18 10/10/6
f 10/10/6 18/18/18 17/17/17
f 12/12/10 19/19/19 11/11/8
f 11/11/8 19/19/19 18/18/18
f 12/12/10 13/13/12 19/19/19
f 19/19/19 13/13/12 20/20/20
f 14/14/14 21/21/21 13/13/12
f 13/13/12 21/21/21 20/20/20
f 16/16/15 23/23/22 15/15/16
f 15/15/16 23/23/22 22/22/23
f 17/17/17 24/24/24 16/16/15
f 16/16/15 24/24/24 23/23/22
f 17/17/17 18/18/18 24/24/24
f 24/24/24 18/18/18 25/25/25
f 18/18/18 19/19/19 25/25/25
f 25/25/25 19/19/19 26/26/26
f 20/20/20 27/27/27 19/19/19
f 19/19/19 27/27/27 26/26/26
f 20/20/20 21/21/21 27/27/27
f 27/27/27 21/21/21 28/28/28
g default
v 2.293332 0.009064 1.004892
v 2.293332 0.009064 -1.004892
v 2.293332 1.766682 1.004892
v 2.293332 1.766682 -1.004892
v -2.293332 1.766682 1.004892
v -2.293332 1.766682 -1.004892
v -2.293332 0.009064 1.004892
v -2.293332 0.009064 -1.004892
v -2.293332 1.766682 -0.803914
v 2.293332 1.766682 -0.803914
v 2.293332 1.766682 0.824011
v -2.293332 1.766682 0.824011
v -2.175492 1.495006 0.753417
v -2.175490 1.495006 -0.733319
v 2.213814 1.495006 -0.733319
v 2.213812 1.495006 0.753417
v -1.886692 1.766682 1.004892
v -1.886692 1.766682 -1.004892
v -1.886691 0.009064 -1.004892
v -1.886691 0.009064 1.004892
v 1.842968 1.766682 1.004892
v 1.842968 1.766682 -1.004892
v 1.842968 0.009064 -1.004892
v 1.842968 0.009064 1.004892
v 2.293332 1.659293 1.004892
v 1.842968 1.659293 1.004892
v -1.886692 1.659293 1.004892
v -2.293332 1.659294 1.004892
v -2.293332 1.659567 -1.004892
v -1.886692 1.661758 -1.004892
v 1.842968 1.662997 -1.004892
v 2.293332 1.663146 -1.004892
v 2.293332 1.661219 0.000000
v 2.293332 0.009064 0.000000
v 1.842968 0.009064 0.000000
v -1.886691 0.009064 0.000000
v -2.293332 0.009064 0.000000
v -2.293332 1.659430 0.000000
v -2.293332 1.766682 0.010049
v -2.175491 1.495006 0.008443
v 2.293332 1.766682 0.000529
v -0.371119 1.320233 1.103408
v 0.371119 1.320233 1.103408
v -0.371119 1.764055 1.103408
v 0.371119 1.764055 1.103408
v -0.371119 1.764055 1.008987
v 0.371119 1.764055 1.008987
v -0.371119 1.320233 1.008987
v 0.371119 1.320233 1.008987
vt 0.046716 0.472287
vt 0.503312 0.067540
vt 0.046716 0.318369
vt 0.046716 0.472466
vt 0.034847 0.067540
vt 0.474018 0.472120
vt 0.474018 0.472133
vt 0.474018 0.318369
vt 0.076380 0.067540
vt 0.436135 0.318369
vt 0.436135 0.472337
vt 0.034847 0.067540
vt 0.076380 0.067540
vt 0.436135 0.472107
vt 0.474018 0.472107
vt 0.474018 0.549434
vt 0.474018 0.549434
vt 0.436135 0.549434
vt 0.088673 0.549434
vt 0.046716 0.549434
vt 0.046716 0.549434
vt 0.046716 0.549434
vt 0.046716 0.549434
vt 0.046716 0.549434
vt 0.088673 0.549434
vt 0.436135 0.549434
vt 0.474018 0.549434
vt 0.474018 0.549434
vt 0.474018 0.549434
vt 0.054124 0.524124
vt 0.054125 0.524124
vt 0.463040 0.524124
vt 0.463040 0.524124
vt 0.463040 0.524124
vt 0.088673 0.472452
vt 0.088673 0.318369
vt 0.457314 0.067540
vt 0.088673 0.472107
vt 0.457314 0.067540
vt 0.503312 0.236088
vt 0.503312 0.067540
vt 0.474018 0.318369
vt 0.034847 0.236102
vt 0.436135 0.318369
vt 0.088673 0.318369
vt 0.046716 0.318369
vt 0.503312 0.236285
vt 0.046716 0.472107
vt 0.034847 0.236088
vt 0.076380 0.236088
vt 0.457314 0.236088
vt 0.162825 0.600749
vt 0.249150 0.600749
vt 0.249150 0.687074
vt 0.162825 0.687074
vt 0.249150 0.773400
vt 0.162825 0.773400
vt 0.249150 0.859725
vt 0.162825 0.859725
vt 0.249150 0.946051
vt 0.162825 0.946051
vt 0.335476 0.600749
vt 0.335476 0.687074
vt 0.076499 0.600749
vt 0.076499 0.687074
vn 1.000000 0.000000 0.000000
vn 1.000000 0.000000 0.000000
vn 1.000000 -0.000000 0.000000
vn 1.000000 0.000000 0.000000
vn -1.000000 0.000000 0.000000
vn -1.000000 0.000000 0.000000
vn -1.000000 0.000000 0.000000
vn -1.000000 0.000000 0.000000
vn -0.000000 -1.000000 0.000000
vn -0.000000 -1.000000 0.000000
vn -0.000000 -1.000000 0.000000
vn -0.000000 -1.000000 0.000000
vn 0.000000 0.000000 -1.000000
vn 0.000000 0.000000 -1.000000
vn -0.000000 0.000000 -1.000000
vn 0.000000 0.000000 -1.000000
vn 0.000000 0.000000 1.000000
vn 0.000000 0.000000 1.000000
vn 0.000000 0.000000 1.000000
vn 0.000000 0.000000 1.000000
vn 0.000000 1.000000 0.000000
vn 0.010448 0.678487 -0.734538
vn 0.753831 0.583165 -0.302748
vn -0.000000 1.000000 0.000000
vn -0.770734 0.523847 -0.362703
vn -0.007329 0.678187 -0.734853
vn -0.000000 1.000000 0.000000
vn -0.007762 0.706386 0.707784
vn -0.764186 0.534271 0.361351
vn 0.000000 1.000000 0.000000
vn 0.740895 0.595310 0.310934
vn 0.011021 0.706797 0.707331
vn -0.959733 0.280913 -0.000001
vn -0.330064 0.661340 -0.673563
vn -0.315220 0.685790 0.655994
vn 0.281966 0.687915 -0.668781
vn 0.917414 0.397934 0.000000
vn 0.917414 0.397934 0.000001
vn 0.258208 0.709880 0.655285
vn -0.000000 0.000000 -1.000000
vn -0.000000 0.000000 -1.000000
vn 0.000000 -1.000000 0.000000
vn 0.000000 -1.000000 0.000000
vn -0.000000 0.000000 1.000000
vn -0.000000 0.000000 1.000000
vn 0.000000 0.000000 -1.000000
vn -0.000000 0.000000 -1.000000
vn 0.000000 -1.000000 0.000000
vn 0.000000 -1.000000 0.000000
vn -0.000000 0.000000 1.000000
vn -0.000000 0.000000 1.000000
vn 0.000000 0.000000 1.000000
vn -0.000001 0.000000 1.000000
vn -0.000000 0.000000 1.000000
vn 0.000000 0.000000 1.000000
vn -1.000000 0.000000 0.000000
vn -1.000000 0.000000 0.000000
vn -1.000000 0.000000 0.000000
vn -1.000000 0.000002 0.000000
vn -1.000000 0.000002 0.000000
vn -1.000000 0.000000 0.000000
vn -0.000000 0.000000 -1.000000
vn 0.000000 0.000000 -1.000000
vn 0.000000 0.000000 -1.000000
vn 0.000000 0.000000 -1.000000
vn 1.000000 -0.000001 0.000000
vn 1.000000 0.000002 0.000000
vn 1.000000 0.000000 0.000000
vn 1.000000 0.000000 0.000000
vn 1.000000 0.000000 0.000000
vn 0.000000 -1.000000 0.000000
vn 0.000000 -1.000000 0.000000
vn -0.000000 -1.000000 0.000000
vn -0.000000 -1.000000 0.000000
vn -1.000000 0.000000 0.000000
vn 1.000000 0.000000 0.000000
vn 1.000000 0.000008 0.000000
vn 0.000000 0.000000 1.000000
vn 0.000000 0.000000 1.000000
vn 0.000000 0.000000 1.000000
vn 0.000000 0.000000 1.000000
vn 0.000000 1.000000 0.000000
vn 0.000000 1.000000 0.000000
vn 0.000000 1.000000 0.000000
vn 0.000000 1.000000 0.000000
vn 0.000000 0.000000 -1.000000
vn 0.000000 0.000000 -1.000000
vn 0.000000 0.000000 -1.000000
vn 0.000000 0.000000 -1.000000
vn 0.000000 -1.000000 0.000000
vn 0.000000 -1.000000 0.000000
vn 0.000000 -1.000000 0.000000
vn 0.000000 -1.000000 0.000000
vn 1.000000 0.000000 0.000000
vn 1.000000 0.000000 0.000000
vn 1.000000 0.000000 0.000000
vn 1.000000 0.000000 0.000000
vn -1.000000 0.000000 0.000000
vn -1.000000 0.000000 0.000000
vn -1.000000 0.000000 0.000000
vn -1.000000 0.000000 0.000000
s 1
g group3 pCube1
usemtl blinn1SG
f 62/74/29 30/31/30 61/29/31
f 61/29/31 30/31/30 60/32/32
s 2
f 65/70/33 66/34/34 36/36/35
f 36/36/35 66/34/34 57/35/36
s 3
f 64/72/37 65/70/38 47/38/39
f 47/38/39 65/70/38 36/36/40
s 4
f 58/39/41 47/38/42 57/35/43
f 57/35/43 47/38/42 36/36/44
s 5
f 35/40/45 48/41/46 56/77/47
f 56/77/47 48/41/46 55/78/48
s 6
f 33/45/49 45/46/50 40/44/51
f 31/48/52 39/49/53 49/47/54
f 32/52/55 50/53/56 38/51/57
f 34/55/58 37/56/59 46/54/60
f 39/49/53 69/50/61 44/59/62
f 44/59/62 69/50/61 43/58/63
f 69/50/61 38/51/57 43/58/63
f 39/49/53 44/59/62 49/47/54
f 44/59/62 41/60/64 49/47/54
f 49/47/54 41/60/64 45/46/50
f 45/46/50 41/60/64 40/44/51
f 40/44/51 41/60/64 67/57/65
f 41/60/64 68/61/66 67/57/65
f 38/51/57 50/53/56 43/58/63
f 43/58/63 50/53/56 42/62/67
f 67/57/65 68/61/66 37/56/59
f 68/61/66 42/62/67 37/56/59
f 37/56/59 42/62/67 46/54/60
f 42/62/67 50/53/56 46/54/60
s 4
f 58/39/41 59/63/68 47/38/42
f 47/38/42 59/63/68 51/64/69
s 3
f 63/73/70 64/72/37 51/64/71
f 51/64/71 64/72/37 47/38/39
s 5
f 54/79/72 55/78/48 52/67/73
f 52/67/73 55/78/48 48/41/46
s 4
f 30/31/74 51/64/69 60/32/75
f 60/32/75 51/64/69 59/63/68
s 3
f 62/74/76 63/73/70 30/31/77
f 30/31/77 63/73/70 51/64/71
s 5
f 53/68/78 54/79/72 29/69/79
f 29/69/79 54/79/72 52/67/73
f 49/47/80 54/66/72 31/48/81
f 31/48/81 54/66/72 53/76/78
f 45/46/82 55/42/48 49/47/80
f 49/47/80 55/42/48 54/66/72
f 56/43/47 55/42/48 33/45/83
f 33/45/83 55/42/48 45/46/82
s 2
f 33/45/84 40/44/85 56/43/86
f 56/43/86 40/44/85 66/34/34
f 40/44/85 67/57/87 66/34/34
f 67/57/87 37/56/88 66/34/34
f 34/55/89 57/35/36 37/56/88
f 37/56/88 57/35/36 66/34/34
s 4
f 46/54/90 58/39/41 34/55/91
f 34/55/91 58/39/41 57/35/43
f 50/53/92 59/63/68 46/54/90
f 46/54/90 59/63/68 58/39/41
f 60/32/75 59/63/68 32/52/93
f 32/52/93 59/63/68 50/53/92
s 1
f 69/50/94 61/29/31 38/51/95
f 32/52/96 38/51/95 60/32/32
f 61/29/31 60/32/32 38/51/95
f 29/69/97 62/30/29 53/68/98
f 53/68/98 62/30/29 61/75/31
s 3
f 52/67/99 63/65/70 29/69/100
f 29/69/100 63/65/70 62/30/76
f 48/41/101 64/37/37 52/67/99
f 52/67/99 64/37/37 63/65/70
f 35/40/102 65/33/38 48/41/101
f 48/41/101 65/33/38 64/37/37
s 2
f 56/77/86 66/71/34 35/40/103
f 35/40/103 66/71/34 65/33/33
s 1
f 53/76/98 61/29/31 31/48/104
f 31/48/104 61/29/31 39/49/105
f 61/29/31 69/50/94 39/49/105
s 19
f 70/80/106 71/81/107 72/83/108
f 72/83/108 71/81/107 73/82/109
s 20
f 72/83/110 73/82/111 74/85/112
f 74/85/112 73/82/111 75/84/113
s 21
f 74/85/114 75/84/115 76/87/116
f 76/87/116 75/84/115 77/86/117
s 22
f 76/87/118 77/86/119 70/89/120
f 70/89/120 77/86/119 71/88/121
s 23
f 71/81/122 77/90/123 73/82/124
f 73/82/124 77/90/123 75/91/125
s 24
f 76/92/126 70/80/127 74/93/128
f 74/93/128 70/80/127 72/83/129
