# This file uses centimeters as units for non-parametric coordinates.

mtllib boxs_huta.mtl
g default
v -2.303533 2.349401 -0.825610
v -2.303531 2.712673 -0.314764
v -2.303531 2.712673 0.316677
v -2.303533 2.349401 0.827524
v -2.303533 1.761616 1.022649
v -2.303533 1.761616 -1.020736
v 2.303534 2.349401 -0.825610
v 2.303531 2.712673 -0.314764
v 2.303531 2.712673 0.316677
v 2.303534 2.349401 0.827524
v 2.303533 1.761616 1.022649
v 2.303533 1.761616 -1.020736
v 1.842826 1.761616 1.022649
v 1.842827 2.346558 0.799159
v 1.842826 2.697363 0.305843
v 1.842826 2.697363 -0.303929
v 1.842827 2.346558 -0.797245
v 1.842826 1.761616 -1.020736
v -1.888897 1.761616 -1.020736
v -1.888897 2.346558 -0.797245
v -1.888896 2.697363 -0.303929
v -1.888896 2.697363 0.305843
v -1.888897 2.346558 0.799159
v -1.888897 1.761616 1.022649
v -1.888897 1.835704 0.968746
v 1.842826 1.835704 0.968746
v -1.888897 1.835704 -0.966832
v 1.842826 1.835704 -0.966832
vt 0.373047 0.801946
vt 0.451172 0.860539
vt 0.548828 0.860539
vt 0.626953 0.801946
vt 0.654297 0.712102
vt 0.341797 0.712102
vt 0.854087 0.567175
vt 0.879087 0.567175
vt 0.904087 0.567175
vt 0.929087 0.567175
vt 0.954087 0.567175
vt 0.684169 0.565857
vt 0.823776 0.565857
vt 0.854087 0.943115
vt 0.879087 0.943115
vt 0.904087 0.943115
vt 0.929087 0.943115
vt 0.954087 0.943115
vt 0.684169 0.941797
vt 0.823776 0.941797
vt 0.341797 0.712049
vt 0.373047 0.801893
vt 0.451172 0.860487
vt 0.548828 0.860487
vt 0.626953 0.801893
vt 0.654297 0.712049
vt 0.954087 0.905521
vt 0.929087 0.905521
vt 0.904087 0.905521
vt 0.879087 0.905521
vt 0.823776 0.904203
vt 0.854087 0.905521
vt 0.684169 0.904203
vt 0.684169 0.599692
vt 0.823776 0.599692
vt 0.854087 0.601010
vt 0.879087 0.601010
vt 0.904087 0.601010
vt 0.929087 0.601010
vt 0.954087 0.601010
vt 0.951587 0.601010
vt 0.951587 0.905521
vt 0.698130 0.599692
vt 0.698130 0.904203
vn 0.004748 0.814944 -0.579520
vn 0.004525 0.814945 -0.579521
vn -0.004675 0.814944 -0.579521
vn -0.004475 0.814945 -0.579522
vn 0.003822 0.999993 0.000000
vn 0.003747 0.999993 0.000000
vn -0.003700 0.999993 0.000000
vn -0.003769 0.999993 0.000000
vn 0.004525 0.814945 0.579521
vn 0.004748 0.814944 0.579521
vn -0.004475 0.814945 0.579521
vn -0.004675 0.814944 0.579521
vn 0.006652 0.315054 0.949050
vn 0.013134 0.360997 0.932475
vn -0.006585 0.315054 0.949051
vn -0.006822 0.355580 0.934621
vn 0.014045 0.508893 -0.860715
vn 0.013134 0.360996 -0.932475
vn 0.000000 0.588322 -0.808627
vn -0.006822 0.355580 -0.934621
vn -1.000000 0.000001 0.000000
vn -1.000000 0.000002 -0.000000
vn -1.000000 0.000002 0.000000
vn -1.000000 0.000003 0.000001
vn -1.000000 0.000002 -0.000000
vn -1.000000 -0.000002 -0.000005
vn 1.000000 -0.000001 0.000000
vn 1.000000 0.000000 0.000001
vn 1.000000 0.000001 -0.000001
vn 1.000000 0.000004 -0.000001
vn 1.000000 -0.000002 0.000003
vn 1.000000 0.000008 0.000000
vn -0.060267 0.314488 0.947346
vn 0.000000 0.588322 0.808627
vn -0.059093 0.320400 0.945437
vn -0.040677 0.814279 0.579047
vn -0.040676 0.814279 0.579047
vn -0.033213 0.999448 0.000000
vn -0.033213 0.999448 0.000000
vn -0.040677 0.814279 -0.579047
vn -0.040676 0.814278 -0.579048
vn -0.006585 0.315054 -0.949051
vn -0.060267 0.314488 -0.947346
vn -0.059093 0.320400 -0.945437
vn 0.006652 0.315054 -0.949050
vn 0.042219 0.317289 -0.947389
vn 0.000000 0.315061 -0.949071
vn 0.045187 0.814120 -0.578936
vn 0.045188 0.814121 -0.578935
vn 0.036898 0.999319 0.000000
vn 0.036898 0.999319 0.000000
vn 0.045187 0.814121 0.578935
vn 0.045188 0.814121 0.578935
vn 0.042219 0.317289 0.947389
vn 0.000000 0.315061 0.949071
vn 0.014045 0.508893 0.860715
s 1
g pCylinder1
usemtl blinn1SG
f 20/36/1 21/37/2 17/32/3
f 17/32/3 21/37/2 16/30/4
s 2
f 21/37/5 22/38/6 16/30/7
f 16/30/7 22/38/6 15/29/8
s 3
f 22/38/9 23/39/10 15/29/11
f 15/29/11 23/39/10 14/28/12
s 4
f 23/39/13 25/41/14 14/28/15
f 14/28/15 25/41/14 26/42/16
s 5
f 19/34/17 27/43/18 18/33/19
f 18/33/19 27/43/18 28/44/20
s 6
f 6/6/21 5/5/22 1/1/23
f 1/1/23 5/5/22 2/2/24
f 2/2/24 5/5/22 3/3/25
f 4/4/26 3/3/25 5/5/22
s 7
f 11/21/27 12/26/28 10/22/29
f 10/22/29 12/26/28 9/23/30
f 12/26/28 7/25/31 9/23/30
f 7/25/31 8/24/32 9/23/30
s 4
f 14/28/15 26/42/16 10/17/33
f 13/27/34 11/18/35 26/42/16
f 26/42/16 11/18/35 10/17/33
s 3
f 15/29/11 14/28/12 9/16/36
f 9/16/36 14/28/12 10/17/37
s 2
f 16/30/7 15/29/8 8/15/38
f 8/15/38 15/29/8 9/16/39
s 1
f 16/30/4 8/15/40 17/32/3
f 17/32/3 8/15/40 7/14/41
s 5
f 17/31/42 7/20/43 28/44/20
f 18/33/19 28/44/20 12/19/44
f 28/44/20 7/20/43 12/19/44
f 20/35/45 27/43/18 1/13/46
f 6/12/47 1/13/46 19/34/17
f 1/13/46 27/43/18 19/34/17
s 1
f 1/7/48 2/8/49 20/36/1
f 20/36/1 2/8/49 21/37/2
s 2
f 2/8/50 3/9/51 21/37/5
f 21/37/5 3/9/51 22/38/6
s 3
f 4/10/52 23/39/10 3/9/53
f 3/9/53 23/39/10 22/38/9
s 4
f 23/39/13 4/10/54 25/41/14
f 5/11/55 24/40/56 4/10/54
f 4/10/54 24/40/56 25/41/14
f 26/42/16 25/41/14 13/27/34
f 13/27/34 25/41/14 24/40/56
s 5
f 28/44/20 27/43/18 17/31/42
f 17/31/42 27/43/18 20/35/45
