# MagicaVoxel @ Ephtracy

# group
o 

# material
mtllib EnemyHou.mtl
usemtl palette

# normals
vn -1 0 0
vn 1 0 0
vn 0 0 1
vn 0 0 -1
vn 0 -1 0
vn 0 1 0

# texcoords
vt 0.841797 0.5
vt 0.974609 0.5
vt 0.982422 0.5
vt 0.990234 0.5
vt 0.994141 0.5

# verts
v 1.3 2.2 -2
v 1.3 2.2 -2.3
v 1.3 2.4 -2
v 1.3 2.4 -2.3
v 1.5 2.2 -1.9
v 1.5 2.2 -2
v 1.5 2.2 -2.3
v 1.5 2.2 -2.4
v 1.5 2.4 -2
v 1.5 2.4 -2.3
v 1.5 2.7 -1.9
v 1.5 2.7 -2.4
v 1.6 2.2 -1.6
v 1.6 2.2 -1.9
v 1.6 2.2 -2.4
v 1.6 2.2 -2.6
v 1.6 2.3 -1.6
v 1.6 2.3 -1.9
v 1.6 2.7 -2.4
v 1.6 2.7 -2.6
v 1.7 2.2 -2.6
v 1.7 2.2 -2.7
v 1.7 2.3 -1.6
v 1.7 2.3 -1.8
v 1.7 2.3 -1.9
v 1.7 2.4 -1.6
v 1.7 2.4 -1.8
v 1.7 2.5 0
v 1.7 2.5 -0.1
v 1.7 2.5 -1.7
v 1.7 2.5 -1.8
v 1.7 2.6 -2.6
v 1.7 2.6 -2.7
v 1.7 2.7 0
v 1.7 2.7 -0.1
v 1.7 2.7 -1.7
v 1.7 2.7 -1.8
v 1.7 2.7 -1.9
v 1.7 2.7 -2.4
v 1.7 3 -1.8
v 1.7 3 -2.3
v 1.7 3 -2.4
v 1.7 3.3 -2.3
v 1.7 3.3 -2.4
v 1.7 3.4 -2.3
v 1.7 3.4 -2.4
v 1.8 2.2 -2.7
v 1.8 2.2 -2.8
v 1.8 2.4 0
v 1.8 2.4 -1.6
v 1.8 2.4 -1.8
v 1.8 2.5 0
v 1.8 2.5 -0.1
v 1.8 2.5 -1.7
v 1.8 2.5 -1.8
v 1.8 2.5 -2.7
v 1.8 2.5 -2.8
v 1.8 2.7 0
v 1.8 2.7 -0.1
v 1.8 2.7 -1.7
v 1.8 2.7 -1.8
v 1.8 2.7 -2.4
v 1.8 2.7 -2.5
v 1.8 2.8 0
v 1.8 2.8 -1.8
v 1.8 2.8 -2.4
v 1.8 2.8 -2.5
v 1.8 3 -1.9
v 1.8 3 -2.3
v 1.8 3.1 -1.9
v 1.8 3.1 -2.3
v 1.9 2.2 -2.8
v 1.9 2.2 -2.9
v 1.9 2.3 0
v 1.9 2.3 -0.2
v 1.9 2.4 0
v 1.9 2.4 -0.2
v 1.9 2.4 -2.8
v 1.9 2.4 -2.9
v 1.9 2.8 0
v 1.9 2.8 -1.8
v 1.9 2.9 0
v 1.9 2.9 -1.8
v 2.2 3 -2.3
v 2.2 3 -2.4
v 2.2 3.1 -2.3
v 2.2 3.3 -2.3
v 2.2 3.3 -2.4
v 2.2 3.4 -2.3
v 2.2 3.4 -2.4
v 1.8 3 -2.3
v 1.8 3 -2.4
v 1.8 3.1 -2.3
v 1.8 3.3 -2.3
v 1.8 3.3 -2.4
v 1.8 3.4 -2.3
v 1.8 3.4 -2.4
v 2.1 2.2 -2.8
v 2.1 2.2 -2.9
v 2.1 2.3 0
v 2.1 2.3 -0.2
v 2.1 2.4 0
v 2.1 2.4 -0.2
v 2.1 2.4 -2.8
v 2.1 2.4 -2.9
v 2.1 2.8 0
v 2.1 2.8 -1.8
v 2.1 2.9 0
v 2.1 2.9 -1.8
v 2.2 2.2 -2.7
v 2.2 2.2 -2.8
v 2.2 2.4 0
v 2.2 2.4 -1.6
v 2.2 2.4 -1.8
v 2.2 2.5 0
v 2.2 2.5 -0.1
v 2.2 2.5 -1.7
v 2.2 2.5 -1.8
v 2.2 2.5 -2.7
v 2.2 2.5 -2.8
v 2.2 2.7 0
v 2.2 2.7 -0.1
v 2.2 2.7 -1.7
v 2.2 2.7 -1.8
v 2.2 2.7 -2.4
v 2.2 2.7 -2.5
v 2.2 2.8 0
v 2.2 2.8 -1.8
v 2.2 2.8 -2.4
v 2.2 2.8 -2.5
v 2.2 3 -1.9
v 2.2 3 -2.3
v 2.2 3.1 -1.9
v 2.2 3.1 -2.3
v 2.3 2.2 -2.6
v 2.3 2.2 -2.7
v 2.3 2.3 -1.6
v 2.3 2.3 -1.8
v 2.3 2.3 -1.9
v 2.3 2.4 -1.6
v 2.3 2.4 -1.8
v 2.3 2.5 0
v 2.3 2.5 -0.1
v 2.3 2.5 -1.7
v 2.3 2.5 -1.8
v 2.3 2.6 -2.6
v 2.3 2.6 -2.7
v 2.3 2.7 0
v 2.3 2.7 -0.1
v 2.3 2.7 -1.7
v 2.3 2.7 -1.8
v 2.3 2.7 -1.9
v 2.3 2.7 -2.4
v 2.3 3 -1.8
v 2.3 3 -2.3
v 2.3 3 -2.4
v 2.3 3.3 -2.3
v 2.3 3.3 -2.4
v 2.3 3.4 -2.3
v 2.3 3.4 -2.4
v 2.4 2.2 -1.6
v 2.4 2.2 -1.9
v 2.4 2.2 -2.4
v 2.4 2.2 -2.6
v 2.4 2.3 -1.6
v 2.4 2.3 -1.9
v 2.4 2.7 -2.4
v 2.4 2.7 -2.6
v 2.5 2.2 -1.9
v 2.5 2.2 -2
v 2.5 2.2 -2.3
v 2.5 2.2 -2.4
v 2.5 2.4 -2
v 2.5 2.4 -2.3
v 2.5 2.7 -1.9
v 2.5 2.7 -2.4
v 2.7 2.2 -2
v 2.7 2.2 -2.3
v 2.7 2.4 -2
v 2.7 2.4 -2.3
v 1.7 2.5 0
v 1.7 2.7 0
v 1.8 2.4 0
v 1.8 2.5 0
v 1.8 2.7 0
v 1.8 2.8 0
v 1.9 2.3 0
v 1.9 2.4 0
v 1.9 2.5 0
v 1.9 2.7 0
v 1.9 2.8 0
v 1.9 2.9 0
v 2.1 2.3 0
v 2.1 2.4 0
v 2.1 2.5 0
v 2.1 2.7 0
v 2.1 2.8 0
v 2.1 2.9 0
v 2.2 2.4 0
v 2.2 2.5 0
v 2.2 2.7 0
v 2.2 2.8 0
v 2.3 2.5 0
v 2.3 2.7 0
v 1.6 2.2 -1.6
v 1.6 2.3 -1.6
v 1.7 2.3 -1.6
v 1.7 2.4 -1.6
v 1.8 2.4 -1.6
v 2.2 2.4 -1.6
v 2.3 2.3 -1.6
v 2.3 2.4 -1.6
v 2.4 2.2 -1.6
v 2.4 2.3 -1.6
v 1.7 2.5 -1.7
v 1.7 2.7 -1.7
v 1.8 2.5 -1.7
v 1.8 2.7 -1.7
v 2.2 2.5 -1.7
v 2.2 2.7 -1.7
v 2.3 2.5 -1.7
v 2.3 2.7 -1.7
v 1.7 2.4 -1.8
v 1.7 2.5 -1.8
v 1.7 2.7 -1.8
v 1.7 3 -1.8
v 1.8 2.4 -1.8
v 1.8 2.5 -1.8
v 1.8 2.7 -1.8
v 1.8 2.8 -1.8
v 1.9 2.8 -1.8
v 1.9 2.9 -1.8
v 2.1 2.8 -1.8
v 2.1 2.9 -1.8
v 2.2 2.4 -1.8
v 2.2 2.5 -1.8
v 2.2 2.7 -1.8
v 2.2 2.8 -1.8
v 2.3 2.4 -1.8
v 2.3 2.5 -1.8
v 2.3 2.7 -1.8
v 2.3 3 -1.8
v 1.5 2.2 -1.9
v 1.5 2.7 -1.9
v 1.6 2.2 -1.9
v 1.6 2.3 -1.9
v 1.7 2.3 -1.9
v 1.7 2.7 -1.9
v 1.8 3 -1.9
v 1.8 3.1 -1.9
v 2.2 3 -1.9
v 2.2 3.1 -1.9
v 2.3 2.3 -1.9
v 2.3 2.7 -1.9
v 2.4 2.2 -1.9
v 2.4 2.3 -1.9
v 2.5 2.2 -1.9
v 2.5 2.7 -1.9
v 1.3 2.2 -2
v 1.3 2.4 -2
v 1.5 2.2 -2
v 1.5 2.4 -2
v 2.5 2.2 -2
v 2.5 2.4 -2
v 2.7 2.2 -2
v 2.7 2.4 -2
v 1.7 3 -2.3
v 1.7 3.3 -2.3
v 1.7 3.4 -2.3
v 1.8 3 -2.3
v 1.8 3.1 -2.3
v 1.8 3.3 -2.3
v 1.8 3.4 -2.3
v 2.2 3 -2.3
v 2.2 3.1 -2.3
v 2.2 3.3 -2.3
v 2.2 3.4 -2.3
v 2.3 3 -2.3
v 2.3 3.3 -2.3
v 2.3 3.4 -2.3
v 1.7 2.5 -0.1
v 1.7 2.7 -0.1
v 1.8 2.5 -0.1
v 1.8 2.7 -0.1
v 2.2 2.5 -0.1
v 2.2 2.7 -0.1
v 2.3 2.5 -0.1
v 2.3 2.7 -0.1
v 1.9 2.3 -0.2
v 1.9 2.4 -0.2
v 2.1 2.3 -0.2
v 2.1 2.4 -0.2
v 1.3 2.2 -2.3
v 1.3 2.4 -2.3
v 1.5 2.2 -2.3
v 1.5 2.4 -2.3
v 1.8 3 -2.3
v 1.8 3.1 -2.3
v 2.2 3 -2.3
v 2.2 3.1 -2.3
v 2.5 2.2 -2.3
v 2.5 2.4 -2.3
v 2.7 2.2 -2.3
v 2.7 2.4 -2.3
v 1.5 2.2 -2.4
v 1.5 2.7 -2.4
v 1.6 2.2 -2.4
v 1.6 2.7 -2.4
v 1.7 2.7 -2.4
v 1.7 3 -2.4
v 1.7 3.3 -2.4
v 1.7 3.4 -2.4
v 1.8 2.7 -2.4
v 1.8 2.8 -2.4
v 1.8 3 -2.4
v 1.8 3.3 -2.4
v 1.8 3.4 -2.4
v 2.2 2.7 -2.4
v 2.2 2.8 -2.4
v 2.2 3 -2.4
v 2.2 3.3 -2.4
v 2.2 3.4 -2.4
v 2.3 2.7 -2.4
v 2.3 3 -2.4
v 2.3 3.3 -2.4
v 2.3 3.4 -2.4
v 2.4 2.2 -2.4
v 2.4 2.7 -2.4
v 2.5 2.2 -2.4
v 2.5 2.7 -2.4
v 1.8 2.7 -2.5
v 1.8 2.8 -2.5
v 2.2 2.7 -2.5
v 2.2 2.8 -2.5
v 1.6 2.2 -2.6
v 1.6 2.7 -2.6
v 1.7 2.2 -2.6
v 1.7 2.6 -2.6
v 2.3 2.2 -2.6
v 2.3 2.6 -2.6
v 2.4 2.2 -2.6
v 2.4 2.7 -2.6
v 1.7 2.2 -2.7
v 1.7 2.6 -2.7
v 1.8 2.2 -2.7
v 1.8 2.5 -2.7
v 2.2 2.2 -2.7
v 2.2 2.5 -2.7
v 2.3 2.2 -2.7
v 2.3 2.6 -2.7
v 1.8 2.2 -2.8
v 1.8 2.5 -2.8
v 1.9 2.2 -2.8
v 1.9 2.4 -2.8
v 2.1 2.2 -2.8
v 2.1 2.4 -2.8
v 2.2 2.2 -2.8
v 2.2 2.5 -2.8
v 1.9 2.2 -2.9
v 1.9 2.4 -2.9
v 2.1 2.2 -2.9
v 2.1 2.4 -2.9
v 1.6 2.2 -1.6
v 2.4 2.2 -1.6
v 1.5 2.2 -1.9
v 1.6 2.2 -1.9
v 2.4 2.2 -1.9
v 2.5 2.2 -1.9
v 1.3 2.2 -2
v 1.5 2.2 -2
v 2.5 2.2 -2
v 2.7 2.2 -2
v 1.3 2.2 -2.3
v 1.5 2.2 -2.3
v 2.5 2.2 -2.3
v 2.7 2.2 -2.3
v 1.5 2.2 -2.4
v 1.6 2.2 -2.4
v 2.4 2.2 -2.4
v 2.5 2.2 -2.4
v 1.6 2.2 -2.6
v 1.7 2.2 -2.6
v 2.3 2.2 -2.6
v 2.4 2.2 -2.6
v 1.7 2.2 -2.7
v 1.8 2.2 -2.7
v 2.2 2.2 -2.7
v 2.3 2.2 -2.7
v 1.8 2.2 -2.8
v 1.9 2.2 -2.8
v 2.1 2.2 -2.8
v 2.2 2.2 -2.8
v 1.9 2.2 -2.9
v 2.1 2.2 -2.9
v 1.9 2.3 0
v 2.1 2.3 0
v 1.9 2.3 -0.2
v 2.1 2.3 -0.2
v 1.8 2.4 0
v 1.9 2.4 0
v 2.1 2.4 0
v 2.2 2.4 0
v 1.9 2.4 -0.2
v 2.1 2.4 -0.2
v 1.8 2.4 -1.6
v 2.2 2.4 -1.6
v 1.7 2.5 0
v 1.8 2.5 0
v 2.2 2.5 0
v 2.3 2.5 0
v 1.7 2.5 -0.1
v 1.8 2.5 -0.1
v 2.2 2.5 -0.1
v 2.3 2.5 -0.1
v 1.7 2.5 -1.7
v 1.8 2.5 -1.7
v 2.2 2.5 -1.7
v 2.3 2.5 -1.7
v 1.7 2.5 -1.8
v 1.8 2.5 -1.8
v 2.2 2.5 -1.8
v 2.3 2.5 -1.8
v 1.6 2.3 -1.6
v 1.7 2.3 -1.6
v 2.3 2.3 -1.6
v 2.4 2.3 -1.6
v 1.7 2.3 -1.8
v 2.3 2.3 -1.8
v 1.6 2.3 -1.9
v 1.7 2.3 -1.9
v 2.3 2.3 -1.9
v 2.4 2.3 -1.9
v 1.7 2.4 -1.6
v 1.8 2.4 -1.6
v 2.2 2.4 -1.6
v 2.3 2.4 -1.6
v 1.7 2.4 -1.8
v 1.8 2.4 -1.8
v 2.2 2.4 -1.8
v 2.3 2.4 -1.8
v 1.3 2.4 -2
v 1.5 2.4 -2
v 2.5 2.4 -2
v 2.7 2.4 -2
v 1.3 2.4 -2.3
v 1.5 2.4 -2.3
v 2.5 2.4 -2.3
v 2.7 2.4 -2.3
v 1.9 2.4 -2.8
v 2.1 2.4 -2.8
v 1.9 2.4 -2.9
v 2.1 2.4 -2.9
v 1.8 2.5 -2.7
v 2.2 2.5 -2.7
v 1.8 2.5 -2.8
v 2.2 2.5 -2.8
v 1.7 2.6 -2.6
v 2.3 2.6 -2.6
v 1.7 2.6 -2.7
v 2.3 2.6 -2.7
v 1.7 2.7 0
v 1.8 2.7 0
v 2.2 2.7 0
v 2.3 2.7 0
v 1.7 2.7 -0.1
v 1.8 2.7 -0.1
v 2.2 2.7 -0.1
v 2.3 2.7 -0.1
v 1.7 2.7 -1.7
v 1.8 2.7 -1.7
v 2.2 2.7 -1.7
v 2.3 2.7 -1.7
v 1.7 2.7 -1.8
v 1.8 2.7 -1.8
v 2.2 2.7 -1.8
v 2.3 2.7 -1.8
v 1.5 2.7 -1.9
v 1.7 2.7 -1.9
v 2.3 2.7 -1.9
v 2.5 2.7 -1.9
v 1.5 2.7 -2.4
v 1.6 2.7 -2.4
v 1.7 2.7 -2.4
v 1.8 2.7 -2.4
v 2.2 2.7 -2.4
v 2.3 2.7 -2.4
v 2.4 2.7 -2.4
v 2.5 2.7 -2.4
v 1.8 2.7 -2.5
v 2.2 2.7 -2.5
v 1.6 2.7 -2.6
v 2.4 2.7 -2.6
v 1.8 2.8 0
v 1.9 2.8 0
v 2.1 2.8 0
v 2.2 2.8 0
v 1.8 2.8 -1.8
v 1.9 2.8 -1.8
v 2.1 2.8 -1.8
v 2.2 2.8 -1.8
v 1.8 2.8 -2.4
v 2.2 2.8 -2.4
v 1.8 2.8 -2.5
v 2.2 2.8 -2.5
v 1.9 2.9 0
v 2.1 2.9 0
v 1.9 2.9 -1.8
v 2.1 2.9 -1.8
v 1.7 3 -1.8
v 2.3 3 -1.8
v 1.8 3 -1.9
v 2.2 3 -1.9
v 1.7 3 -2.3
v 1.8 3 -2.3
v 2.2 3 -2.3
v 2.3 3 -2.3
v 1.8 3 -2.4
v 2.2 3 -2.4
v 1.8 3.1 -1.9
v 2.2 3.1 -1.9
v 1.8 3.1 -2.3
v 2.2 3.1 -2.3
v 1.7 3.4 -2.3
v 1.8 3.4 -2.3
v 2.2 3.4 -2.3
v 2.3 3.4 -2.3
v 1.7 3.4 -2.4
v 1.8 3.4 -2.4
v 2.2 3.4 -2.4
v 2.3 3.4 -2.4

# faces
f 3/2/1 2/2/1 1/2/1
f 4/2/1 2/2/1 3/2/1
f 9/2/1 6/2/1 5/2/1
f 10/2/1 8/2/1 7/2/1
f 11/2/1 9/2/1 5/2/1
f 11/2/1 10/2/1 9/2/1
f 12/2/1 8/2/1 10/2/1
f 12/2/1 10/2/1 11/2/1
f 17/2/1 14/2/1 13/2/1
f 18/2/1 14/2/1 17/2/1
f 19/2/1 16/2/1 15/2/1
f 20/2/1 16/2/1 19/2/1
f 26/3/1 24/3/1 23/3/1
f 27/2/1 25/2/1 24/2/1
f 27/3/1 24/3/1 26/3/1
f 31/2/1 25/2/1 27/2/1
f 32/2/1 22/2/1 21/2/1
f 33/2/1 22/2/1 32/2/1
f 34/3/1 29/3/1 28/3/1
f 35/3/1 29/3/1 34/3/1
f 36/3/1 31/3/1 30/3/1
f 37/2/1 25/2/1 31/2/1
f 37/3/1 31/3/1 36/3/1
f 38/2/1 25/2/1 37/2/1
f 40/2/1 39/2/1 38/2/1
f 40/2/1 38/2/1 37/2/1
f 41/2/1 39/2/1 40/2/1
f 42/2/1 39/2/1 41/2/1
f 43/5/1 42/5/1 41/5/1
f 44/5/1 42/5/1 43/5/1
f 45/1/1 44/1/1 43/1/1
f 46/1/1 44/1/1 45/1/1
f 52/2/1 50/2/1 49/2/1
f 52/2/1 51/2/1 50/2/1
f 53/2/1 51/2/1 52/2/1
f 54/2/1 51/2/1 53/2/1
f 55/2/1 51/2/1 54/2/1
f 56/2/1 48/2/1 47/2/1
f 57/2/1 48/2/1 56/2/1
f 59/2/1 54/2/1 53/2/1
f 60/2/1 54/2/1 59/2/1
f 64/2/1 59/2/1 58/2/1
f 64/2/1 60/2/1 59/2/1
f 64/2/1 61/2/1 60/2/1
f 65/2/1 61/2/1 64/2/1
f 66/2/1 63/2/1 62/2/1
f 67/2/1 63/2/1 66/2/1
f 70/3/1 69/3/1 68/3/1
f 71/3/1 69/3/1 70/3/1
f 76/3/1 75/3/1 74/3/1
f 77/3/1 75/3/1 76/3/1
f 78/2/1 73/2/1 72/2/1
f 79/2/1 73/2/1 78/2/1
f 82/3/1 81/3/1 80/3/1
f 83/3/1 81/3/1 82/3/1
f 86/5/1 85/5/1 84/5/1
f 87/5/1 85/5/1 86/5/1
f 88/5/1 85/5/1 87/5/1
f 89/1/1 88/1/1 87/1/1
f 90/1/1 88/1/1 89/1/1
f 91/5/2 92/5/2 93/5/2
f 93/5/2 92/5/2 94/5/2
f 94/5/2 92/5/2 95/5/2
f 94/1/2 95/1/2 96/1/2
f 96/1/2 95/1/2 97/1/2
f 100/3/2 101/3/2 102/3/2
f 102/3/2 101/3/2 103/3/2
f 98/2/2 99/2/2 104/2/2
f 104/2/2 99/2/2 105/2/2
f 106/3/2 107/3/2 108/3/2
f 108/3/2 107/3/2 109/3/2
f 112/2/2 113/2/2 115/2/2
f 113/2/2 114/2/2 115/2/2
f 115/2/2 114/2/2 116/2/2
f 116/2/2 114/2/2 117/2/2
f 117/2/2 114/2/2 118/2/2
f 110/2/2 111/2/2 119/2/2
f 119/2/2 111/2/2 120/2/2
f 116/2/2 117/2/2 122/2/2
f 122/2/2 117/2/2 123/2/2
f 121/2/2 122/2/2 127/2/2
f 122/2/2 123/2/2 127/2/2
f 123/2/2 124/2/2 127/2/2
f 127/2/2 124/2/2 128/2/2
f 125/2/2 126/2/2 129/2/2
f 129/2/2 126/2/2 130/2/2
f 131/3/2 132/3/2 133/3/2
f 133/3/2 132/3/2 134/3/2
f 137/3/2 138/3/2 140/3/2
f 138/2/2 139/2/2 141/2/2
f 140/3/2 138/3/2 141/3/2
f 141/2/2 139/2/2 145/2/2
f 135/2/2 136/2/2 146/2/2
f 146/2/2 136/2/2 147/2/2
f 142/3/2 143/3/2 148/3/2
f 148/3/2 143/3/2 149/3/2
f 144/3/2 145/3/2 150/3/2
f 145/2/2 139/2/2 151/2/2
f 150/3/2 145/3/2 151/3/2
f 151/2/2 139/2/2 152/2/2
f 152/2/2 153/2/2 154/2/2
f 151/2/2 152/2/2 154/2/2
f 154/2/2 153/2/2 155/2/2
f 155/2/2 153/2/2 156/2/2
f 155/5/2 156/5/2 157/5/2
f 157/5/2 156/5/2 158/5/2
f 157/1/2 158/1/2 159/1/2
f 159/1/2 158/1/2 160/1/2
f 161/2/2 162/2/2 165/2/2
f 165/2/2 162/2/2 166/2/2
f 163/2/2 164/2/2 167/2/2
f 167/2/2 164/2/2 168/2/2
f 169/2/2 170/2/2 173/2/2
f 171/2/2 172/2/2 174/2/2
f 169/2/2 173/2/2 175/2/2
f 173/2/2 174/2/2 175/2/2
f 174/2/2 172/2/2 176/2/2
f 175/2/2 174/2/2 176/2/2
f 177/2/2 178/2/2 179/2/2
f 179/2/2 178/2/2 180/2/2
f 184/3/3 182/3/3 181/3/3
f 185/3/3 182/3/3 184/3/3
f 188/2/3 184/2/3 183/2/3
f 188/2/3 186/2/3 185/2/3
f 188/2/3 185/2/3 184/2/3
f 189/2/3 186/2/3 188/2/3
f 190/2/3 186/2/3 189/2/3
f 191/2/3 186/2/3 190/2/3
f 193/3/3 188/3/3 187/3/3
f 194/2/3 189/2/3 188/2/3
f 194/3/3 188/3/3 193/3/3
f 195/4/3 190/4/3 189/4/3
f 195/2/3 189/2/3 194/2/3
f 196/2/3 191/2/3 190/2/3
f 196/4/3 190/4/3 195/4/3
f 197/3/3 192/3/3 191/3/3
f 197/2/3 191/2/3 196/2/3
f 198/3/3 192/3/3 197/3/3
f 199/2/3 196/2/3 195/2/3
f 199/2/3 197/2/3 196/2/3
f 199/2/3 195/2/3 194/2/3
f 200/2/3 197/2/3 199/2/3
f 201/2/3 197/2/3 200/2/3
f 202/2/3 197/2/3 201/2/3
f 203/3/3 201/3/3 200/3/3
f 204/3/3 201/3/3 203/3/3
f 207/2/3 206/2/3 205/2/3
f 209/3/3 208/3/3 207/3/3
f 210/3/3 209/3/3 207/3/3
f 211/2/3 207/2/3 205/2/3
f 211/3/3 210/3/3 207/3/3
f 212/3/3 210/3/3 211/3/3
f 213/2/3 211/2/3 205/2/3
f 214/2/3 211/2/3 213/2/3
f 217/3/3 216/3/3 215/3/3
f 218/3/3 216/3/3 217/3/3
f 221/3/3 220/3/3 219/3/3
f 222/3/3 220/3/3 221/3/3
f 227/2/3 224/2/3 223/2/3
f 228/2/3 224/2/3 227/2/3
f 229/2/3 226/2/3 225/2/3
f 230/2/3 226/2/3 229/2/3
f 231/2/3 226/2/3 230/2/3
f 232/2/3 226/2/3 231/2/3
f 234/2/3 226/2/3 232/2/3
f 238/2/3 234/2/3 233/2/3
f 239/2/3 236/2/3 235/2/3
f 240/2/3 236/2/3 239/2/3
f 241/2/3 238/2/3 237/2/3
f 242/2/3 226/2/3 234/2/3
f 242/2/3 238/2/3 241/2/3
f 242/2/3 234/2/3 238/2/3
f 245/2/3 244/2/3 243/2/3
f 246/2/3 244/2/3 245/2/3
f 247/2/3 244/2/3 246/2/3
f 248/2/3 244/2/3 247/2/3
f 251/3/3 250/3/3 249/3/3
f 252/3/3 250/3/3 251/3/3
f 256/2/3 254/2/3 253/2/3
f 257/2/3 256/2/3 255/2/3
f 258/2/3 254/2/3 256/2/3
f 258/2/3 256/2/3 257/2/3
f 261/2/3 260/2/3 259/2/3
f 262/2/3 260/2/3 261/2/3
f 265/2/3 264/2/3 263/2/3
f 266/2/3 264/2/3 265/2/3
f 270/5/3 268/5/3 267/5/3
f 271/5/3 268/5/3 270/5/3
f 272/1/3 269/1/3 268/1/3
f 272/5/3 268/5/3 271/5/3
f 273/1/3 269/1/3 272/1/3
f 278/5/3 275/5/3 274/5/3
f 278/5/3 276/5/3 275/5/3
f 279/1/3 277/1/3 276/1/3
f 279/5/3 276/5/3 278/5/3
f 280/1/3 277/1/3 279/1/3
f 281/3/4 282/3/4 283/3/4
f 283/3/4 282/3/4 284/3/4
f 285/3/4 286/3/4 287/3/4
f 287/3/4 286/3/4 288/3/4
f 289/3/4 290/3/4 291/3/4
f 291/3/4 290/3/4 292/3/4
f 293/2/4 294/2/4 295/2/4
f 295/2/4 294/2/4 296/2/4
f 297/3/4 298/3/4 299/3/4
f 299/3/4 298/3/4 300/3/4
f 301/2/4 302/2/4 303/2/4
f 303/2/4 302/2/4 304/2/4
f 305/2/4 306/2/4 307/2/4
f 307/2/4 306/2/4 308/2/4
f 309/2/4 310/2/4 313/2/4
f 313/2/4 310/2/4 314/2/4
f 310/5/4 311/5/4 315/5/4
f 314/2/4 310/2/4 315/2/4
f 311/1/4 312/1/4 316/1/4
f 315/5/4 311/5/4 316/5/4
f 316/1/4 312/1/4 317/1/4
f 314/2/4 315/2/4 319/2/4
f 319/2/4 315/2/4 320/2/4
f 318/2/4 319/2/4 323/2/4
f 319/2/4 320/2/4 323/2/4
f 320/5/4 321/5/4 324/5/4
f 323/2/4 320/2/4 324/2/4
f 321/1/4 322/1/4 325/1/4
f 324/5/4 321/5/4 325/5/4
f 325/1/4 322/1/4 326/1/4
f 327/2/4 328/2/4 329/2/4
f 329/2/4 328/2/4 330/2/4
f 331/2/4 332/2/4 333/2/4
f 333/2/4 332/2/4 334/2/4
f 335/2/4 336/2/4 337/2/4
f 337/2/4 336/2/4 338/2/4
f 338/2/4 336/2/4 340/2/4
f 339/2/4 340/2/4 341/2/4
f 340/2/4 336/2/4 342/2/4
f 341/2/4 340/2/4 342/2/4
f 343/2/4 344/2/4 345/2/4
f 345/2/4 344/2/4 346/2/4
f 346/2/4 344/2/4 348/2/4
f 347/2/4 348/2/4 349/2/4
f 348/2/4 344/2/4 350/2/4
f 349/2/4 348/2/4 350/2/4
f 351/2/4 352/2/4 353/2/4
f 353/2/4 352/2/4 354/2/4
f 354/2/4 352/2/4 356/2/4
f 355/2/4 356/2/4 357/2/4
f 356/2/4 352/2/4 358/2/4
f 357/2/4 356/2/4 358/2/4
f 359/2/4 360/2/4 361/2/4
f 361/2/4 360/2/4 362/2/4
f 366/2/5 364/2/5 363/2/5
f 367/2/5 364/2/5 366/2/5
f 370/2/5 366/2/5 365/2/5
f 370/2/5 368/2/5 367/2/5
f 370/2/5 367/2/5 366/2/5
f 371/2/5 368/2/5 370/2/5
f 373/2/5 370/2/5 369/2/5
f 373/2/5 372/2/5 371/2/5
f 373/2/5 371/2/5 370/2/5
f 374/2/5 372/2/5 373/2/5
f 375/2/5 372/2/5 374/2/5
f 376/2/5 372/2/5 375/2/5
f 377/2/5 375/2/5 374/2/5
f 378/2/5 375/2/5 377/2/5
f 379/2/5 375/2/5 378/2/5
f 380/2/5 375/2/5 379/2/5
f 381/2/5 379/2/5 378/2/5
f 382/2/5 379/2/5 381/2/5
f 383/2/5 379/2/5 382/2/5
f 384/2/5 379/2/5 383/2/5
f 385/2/5 383/2/5 382/2/5
f 386/2/5 383/2/5 385/2/5
f 387/2/5 383/2/5 386/2/5
f 388/2/5 383/2/5 387/2/5
f 389/2/5 387/2/5 386/2/5
f 390/2/5 387/2/5 389/2/5
f 391/2/5 387/2/5 390/2/5
f 392/2/5 387/2/5 391/2/5
f 393/2/5 391/2/5 390/2/5
f 394/2/5 391/2/5 393/2/5
f 397/3/5 396/3/5 395/3/5
f 398/3/5 396/3/5 397/3/5
f 403/2/5 400/2/5 399/2/5
f 404/2/5 402/2/5 401/2/5
f 405/2/5 403/2/5 399/2/5
f 405/2/5 404/2/5 403/2/5
f 406/2/5 402/2/5 404/2/5
f 406/2/5 404/2/5 405/2/5
f 411/3/5 408/3/5 407/3/5
f 412/3/5 408/3/5 411/3/5
f 413/3/5 410/3/5 409/3/5
f 414/3/5 410/3/5 413/3/5
f 419/3/5 416/3/5 415/3/5
f 420/3/5 416/3/5 419/3/5
f 421/3/5 418/3/5 417/3/5
f 422/3/5 418/3/5 421/3/5
f 423/2/6 424/2/6 427/2/6
f 425/2/6 426/2/6 428/2/6
f 423/2/6 427/2/6 429/2/6
f 429/2/6 427/2/6 430/2/6
f 428/2/6 426/2/6 431/2/6
f 431/2/6 426/2/6 432/2/6
f 433/3/6 434/3/6 437/3/6
f 437/3/6 434/3/6 438/3/6
f 435/3/6 436/3/6 439/3/6
f 439/3/6 436/3/6 440/3/6
f 441/2/6 442/2/6 445/2/6
f 445/2/6 442/2/6 446/2/6
f 443/2/6 444/2/6 447/2/6
f 447/2/6 444/2/6 448/2/6
f 449/2/6 450/2/6 451/2/6
f 451/2/6 450/2/6 452/2/6
f 453/2/6 454/2/6 455/2/6
f 455/2/6 454/2/6 456/2/6
f 457/2/6 458/2/6 459/2/6
f 459/2/6 458/2/6 460/2/6
f 461/3/6 462/3/6 465/3/6
f 465/3/6 462/3/6 466/3/6
f 463/3/6 464/3/6 467/3/6
f 467/3/6 464/3/6 468/3/6
f 469/3/6 470/3/6 473/3/6
f 473/3/6 470/3/6 474/3/6
f 471/3/6 472/3/6 475/3/6
f 475/3/6 472/3/6 476/3/6
f 477/2/6 478/2/6 481/2/6
f 481/2/6 478/2/6 482/2/6
f 482/2/6 478/2/6 483/2/6
f 479/2/6 480/2/6 486/2/6
f 486/2/6 480/2/6 487/2/6
f 487/2/6 480/2/6 488/2/6
f 483/2/6 484/2/6 489/2/6
f 482/2/6 483/2/6 489/2/6
f 486/2/6 487/2/6 490/2/6
f 485/2/6 486/2/6 490/2/6
f 482/2/6 489/2/6 491/2/6
f 489/2/6 490/2/6 491/2/6
f 490/2/6 487/2/6 492/2/6
f 491/2/6 490/2/6 492/2/6
f 493/2/6 494/2/6 497/2/6
f 497/2/6 494/2/6 498/2/6
f 495/2/6 496/2/6 499/2/6
f 499/2/6 496/2/6 500/2/6
f 501/2/6 502/2/6 503/2/6
f 503/2/6 502/2/6 504/2/6
f 505/3/6 506/3/6 507/3/6
f 507/3/6 506/3/6 508/3/6
f 509/2/6 510/2/6 511/2/6
f 511/2/6 510/2/6 512/2/6
f 509/2/6 511/2/6 513/2/6
f 513/2/6 511/2/6 514/2/6
f 512/2/6 510/2/6 515/2/6
f 515/2/6 510/2/6 516/2/6
f 514/2/6 515/2/6 517/2/6
f 517/2/6 515/2/6 518/2/6
f 519/3/6 520/3/6 521/3/6
f 521/3/6 520/3/6 522/3/6
f 523/1/6 524/1/6 527/1/6
f 527/1/6 524/1/6 528/1/6
f 525/1/6 526/1/6 529/1/6
f 529/1/6 526/1/6 530/1/6
