# This file uses centimeters as units for non-parametric coordinates.

mtllib houtou.mtl
g default
v 0.371729 1.293562 -0.124465
v 0.000000 1.293562 -0.496194
v -0.371729 1.293562 -0.124465
v 0.000000 1.293562 0.247264
v 0.371729 1.637708 -0.124465
v 0.000000 1.637708 -0.496194
v -0.371729 1.637708 -0.124465
v 0.000000 1.637708 0.247264
v -0.259616 1.637708 -0.384081
v -0.259616 1.293562 -0.384081
v 0.259616 1.293562 0.135151
v 0.259616 1.637708 0.135151
v -0.259616 1.637708 0.135151
v -0.259616 1.293562 0.135151
v 0.259616 1.293562 -0.384081
v 0.259616 1.637708 -0.384081
v 0.000000 1.637708 0.175526
v 0.209514 1.637708 0.085049
v 0.000000 1.637708 -0.124465
v 0.299991 1.637708 -0.124465
v 0.209514 1.637708 -0.333979
v 0.000000 1.637708 -0.424455
v -0.209514 1.637708 -0.333979
v -0.299991 1.637708 -0.124465
v -0.209514 1.637708 0.085049
v -0.000000 1.561026 0.239840
v -0.122915 1.438111 0.187043
v -0.000000 1.315196 0.239840
v 0.122915 1.438111 0.187432
v -0.000000 1.545921 1.519798
v -0.107810 1.438111 1.519798
v -0.000000 1.330301 1.519798
v 0.107810 1.438111 1.519798
v -0.075295 1.362816 1.519798
v -0.085844 1.352267 0.187043
v 0.085844 1.523955 0.187432
v 0.075295 1.513405 1.519798
v 0.075295 1.362816 1.519798
v 0.085844 1.352267 0.187432
v -0.085844 1.523955 0.187043
v -0.075295 1.513405 1.519798
v 0.093107 1.438111 1.519798
v 0.065026 1.503137 1.519798
v -0.000000 1.438110 1.519798
v -0.000000 1.531218 1.519798
v -0.065026 1.503137 1.519798
v -0.093107 1.438111 1.519798
v -0.065026 1.373084 1.519798
v -0.000000 1.345003 1.519798
v 0.065026 1.373084 1.519798
vt 0.481781 0.855796
vt 0.788847 0.829092
vt 0.855123 0.857713
vt 0.481771 0.760937
vt 0.788847 0.696540
vt 0.521803 0.760937
vt 0.521812 0.855796
vt 0.855123 0.667919
vt 0.401708 0.760937
vt 0.921399 0.829092
vt 0.950020 0.762816
vt 0.401718 0.855796
vt 0.361686 0.855796
vt 0.681929 0.760937
vt 0.561844 0.855796
vt 0.921399 0.696540
vt 0.760226 0.762816
vt 0.561834 0.760937
vt 0.931706 0.762816
vt 0.908609 0.816302
vt 0.855123 0.762816
vt 0.855123 0.839399
vt 0.801637 0.816302
vt 0.778540 0.762816
vt 0.801637 0.709330
vt 0.855123 0.686233
vt 0.908609 0.709330
vt 0.601866 0.760937
vt 0.601875 0.855796
vt 0.641907 0.855796
vt 0.641897 0.760937
vt 0.441739 0.760937
vt 0.441749 0.855796
vt 0.681939 0.855796
vt 0.361676 0.760937
vt 0.580928 0.642601
vt 0.928001 0.530605
vt 0.908293 0.576241
vt 0.613600 0.642601
vt 0.862656 0.530604
vt 0.515978 0.642601
vt 0.484172 0.642601
vt 0.862656 0.595949
vt 0.646067 0.642601
vt 0.817020 0.576241
vt 0.797312 0.530605
vt 0.678550 0.642601
vt 0.711030 0.642601
vt 0.817020 0.484968
vt 0.862656 0.465260
vt 0.548450 0.642601
vt 0.908293 0.484968
vt 0.938319 0.530605
vt 0.915500 0.583448
vt 0.862656 0.606267
vt 0.809813 0.583448
vt 0.786993 0.530605
vt 0.809813 0.477761
vt 0.862656 0.454942
vt 0.915500 0.477761
vt 0.743058 0.642601
vt 0.701584 0.188997
vt 0.673096 0.188997
vt 0.730068 0.188997
vt 0.502181 0.188997
vt 0.530654 0.188997
vt 0.559135 0.188997
vt 0.587623 0.188997
vt 0.616113 0.188997
vt 0.644605 0.188997
vn 0.707107 0.000000 -0.707107
vn 0.707107 0.000000 -0.707107
vn 1.000000 0.000000 0.000000
vn 1.000000 0.000000 0.000000
vn -0.707107 0.000000 -0.707107
vn -0.707107 0.000000 -0.707107
vn -1.000000 0.000000 -0.000000
vn -1.000000 0.000000 0.000000
vn 0.707107 0.000000 0.707107
vn 0.707107 0.000000 0.707107
vn -0.000000 0.000000 1.000000
vn -0.000000 0.000000 1.000000
vn -0.707107 0.000000 0.707107
vn -0.707107 0.000000 0.707107
vn 0.000000 0.000000 -1.000000
vn 0.000000 0.000000 -1.000000
vn 0.000000 1.000000 0.000000
vn 0.000000 1.000000 0.000000
vn 0.000000 1.000000 0.000000
vn 0.000000 1.000000 0.000000
vn 0.000000 1.000000 0.000000
vn 0.000000 1.000000 0.000000
vn 0.000000 1.000000 0.000000
vn 0.000000 1.000000 0.000000
vn 0.000000 1.000000 0.000000
vn 0.000000 1.000000 0.000000
vn 0.000000 1.000000 0.000000
vn 0.000000 1.000000 0.000000
vn 0.000000 1.000000 0.000000
vn 0.000000 1.000000 0.000000
vn 0.000000 1.000000 0.000000
vn 0.000000 1.000000 0.000001
vn 0.000000 1.000000 0.000001
vn 0.000000 1.000000 0.000001
vn 0.000000 1.000000 -0.000001
vn 0.000000 1.000000 -0.000001
vn 0.000000 1.000000 -0.000001
vn 0.000000 1.000000 0.000000
vn 0.000000 1.000000 0.000000
vn 0.000000 1.000000 0.000000
vn 0.000000 1.000000 0.000000
vn 0.000000 1.000000 0.000000
vn 0.000000 1.000000 0.000000
vn 0.000000 1.000000 0.000000
vn 0.000000 1.000000 0.000000
vn 0.000000 1.000000 0.000000
vn 0.000000 1.000000 0.000001
vn 0.000000 1.000000 0.000001
vn 0.000000 1.000000 0.000001
vn 0.000000 1.000000 0.000000
vn 0.000000 1.000000 0.000001
vn 0.000000 1.000000 0.000000
vn 0.000000 1.000000 0.000000
vn 0.000000 1.000000 -0.000000
vn 0.000000 1.000000 -0.000001
vn 0.000000 1.000000 -0.000001
vn 0.000000 1.000000 0.000000
vn 0.000000 1.000000 0.000000
vn 0.000000 1.000000 0.000000
vn 0.000000 1.000000 0.000000
vn 0.000000 1.000000 0.000000
vn 0.000000 1.000000 -0.000000
vn 0.000000 1.000000 -0.000001
vn 0.000000 1.000000 -0.000001
vn 0.000000 1.000000 -0.000001
vn 0.000000 1.000000 0.000001
vn 0.000000 1.000000 -0.000001
vn 0.000000 1.000000 0.000002
vn 0.000000 1.000000 0.000000
vn 0.000000 1.000000 0.000000
vn 0.000000 1.000000 0.000001
vn 0.000000 1.000000 0.000001
vn -0.760990 0.648668 0.011158
vn -0.711636 0.702455 0.011408
vn -0.000415 0.999935 0.011401
vn -0.000002 0.999930 0.011800
vn -0.761579 -0.647976 0.011157
vn -0.000415 -0.999935 0.011401
vn -0.712501 -0.701578 0.011407
vn -0.000000 -0.999930 0.011800
vn 0.761201 0.648420 0.011161
vn 0.712462 0.701618 0.011409
vn 0.999936 -0.000000 0.011336
vn 0.999936 -0.000000 0.011336
vn 0.761201 -0.648420 0.011161
vn 0.712462 -0.701618 0.011409
vn -0.999935 0.001043 0.011333
vn -0.999935 0.001341 0.011333
vn 0.000001 0.000000 1.000000
vn 0.000001 0.000000 1.000000
vn 0.000001 0.000000 1.000000
vn 0.000002 0.000000 1.000000
vn 0.000002 0.000000 1.000000
vn 0.000002 0.000000 1.000000
vn 0.000000 0.000000 1.000000
vn 0.000000 0.000000 1.000000
vn 0.000000 0.000000 1.000000
vn 0.000000 0.000000 1.000000
vn 0.000000 0.000000 1.000000
vn 0.000000 0.000000 1.000000
vn 0.000001 0.000000 1.000000
vn 0.000001 0.000000 1.000000
vn 0.000001 0.000000 1.000000
vn -0.000002 0.000000 1.000000
vn -0.000002 0.000000 1.000000
vn -0.000002 0.000000 1.000000
vn 0.000000 0.000000 1.000000
vn 0.000000 0.000000 1.000000
vn 0.000000 0.000000 1.000000
vn 0.000000 0.000000 1.000000
vn 0.000000 0.000000 1.000000
vn 0.000000 0.000000 1.000000
vn 0.000000 0.000000 1.000000
vn 0.000000 0.000000 1.000000
vn 0.000000 0.000000 1.000000
vn 0.000000 0.000000 1.000000
vn 0.000007 0.000000 1.000000
vn 0.000006 0.000000 1.000000
vn 0.000001 0.000000 1.000000
vn 0.000000 0.000000 1.000000
vn 0.000003 0.000000 1.000000
vn 0.000001 0.000000 1.000000
vn 0.000003 0.000000 1.000000
vn 0.000000 0.000000 1.000000
vn 0.000000 0.000000 1.000000
vn 0.000000 0.000000 1.000000
vn 0.000000 0.000000 1.000000
vn 0.000000 0.000000 1.000000
vn 0.000000 0.000000 1.000000
vn 0.000000 0.000000 1.000000
vn 0.000000 0.000000 1.000000
vn 0.000000 0.000000 1.000000
vn -0.000007 0.000000 1.000000
vn -0.000006 0.000000 1.000000
vn -0.000001 0.000000 1.000000
vn 0.000000 0.000000 1.000000
vn 0.000003 0.000000 1.000000
vn 0.000001 0.000000 1.000000
vn 0.000003 0.000000 1.000000
vn 0.000000 0.000000 1.000000
vn 0.000000 0.000000 1.000000
vn 0.000000 0.000000 1.000000
vn 0.000000 0.000000 1.000000
vn 0.000000 0.000000 1.000000
s 1
g houtou
usemtl blinn5SG
f 15/1/1 16/4/2 1/7/3
f 1/7/3 16/4/2 5/6/4
f 9/9/5 10/12/6 7/35/7
f 7/35/7 10/12/6 3/13/8
f 11/15/9 12/18/10 4/29/11
f 4/29/11 12/18/10 8/28/12
f 14/30/13 4/29/11 13/31/14
f 13/31/14 4/29/11 8/28/12
f 10/12/6 9/9/5 2/33/15
f 2/33/15 9/9/5 6/32/16
f 12/18/10 11/15/9 5/6/4
f 5/6/4 11/15/9 1/7/3
f 14/30/13 13/31/14 3/34/8
f 3/34/8 13/31/14 7/14/7
f 16/4/2 15/1/1 6/32/16
f 6/32/16 15/1/1 2/33/15
s off
f 17/19/17 18/20/18 19/21/19
f 18/20/20 20/22/21 19/21/22
f 20/22/23 21/23/24 19/21/25
f 21/23/26 22/24/27 19/21/28
f 22/24/29 23/25/30 19/21/31
f 23/25/32 24/26/33 19/21/34
f 24/26/35 25/27/36 19/21/37
f 25/27/38 17/19/39 19/21/40
s 4
f 8/11/41 12/10/42 17/19/43
f 17/19/43 12/10/42 18/20/44
s 5
f 5/3/45 20/22/46 12/10/47
f 12/10/47 20/22/46 18/20/48
s 6
f 5/3/49 16/2/50 20/22/51
f 20/22/51 16/2/50 21/23/52
s 7
f 6/17/53 22/24/54 16/2/55
f 16/2/55 22/24/54 21/23/56
s 8
f 6/17/57 9/5/58 22/24/59
f 22/24/59 9/5/58 23/25/60
s 9
f 7/8/61 24/26/62 9/5/63
f 9/5/63 24/26/62 23/25/64
s 10
f 7/8/65 13/16/66 24/26/67
f 24/26/67 13/16/66 25/27/68
s 11
f 8/11/69 17/19/70 13/16/71
f 13/16/71 17/19/70 25/27/72
s 12
f 40/36/73 41/68/74 26/39/75
f 26/39/75 41/68/74 30/69/76
f 35/41/77 28/42/78 34/66/79
f 34/66/79 28/42/78 32/65/80
f 36/44/81 37/70/82 29/47/83
f 29/47/83 37/70/82 33/63/84
f 39/48/85 29/47/83 38/62/86
f 38/62/86 29/47/83 33/63/84
f 35/41/77 34/66/79 27/51/87
f 27/51/87 34/66/79 31/67/88
f 36/44/81 26/39/75 37/70/82
f 37/70/82 26/39/75 30/69/76
f 39/48/85 38/62/86 28/61/78
f 28/61/78 38/62/86 32/64/80
f 41/68/74 40/36/73 31/67/88
f 31/67/88 40/36/73 27/51/87
s off
f 42/37/89 43/38/90 44/40/91
f 43/38/92 45/43/93 44/40/94
f 45/43/95 46/45/96 44/40/97
f 46/45/98 47/46/99 44/40/100
f 47/46/101 48/49/102 44/40/103
f 48/49/104 49/50/105 44/40/106
f 49/50/107 50/52/108 44/40/109
f 50/52/110 42/37/111 44/40/112
s 15
f 33/53/113 37/54/114 42/37/115
f 42/37/115 37/54/114 43/38/116
s 16
f 30/55/117 45/43/118 37/54/119
f 37/54/119 45/43/118 43/38/120
s 17
f 30/55/121 41/56/122 45/43/123
f 45/43/123 41/56/122 46/45/124
s 18
f 31/57/125 47/46/126 41/56/127
f 41/56/127 47/46/126 46/45/128
s 19
f 31/57/129 34/58/130 47/46/131
f 47/46/131 34/58/130 48/49/132
s 20
f 32/59/133 49/50/134 34/58/135
f 34/58/135 49/50/134 48/49/136
s 21
f 32/59/137 38/60/138 49/50/139
f 49/50/139 38/60/138 50/52/140
s 22
f 33/53/141 42/37/142 38/60/143
f 38/60/143 42/37/142 50/52/144
