# This file uses centimeters as units for non-parametric coordinates.

mtllib leg_R.mtl
g default
v -0.380553 0.213776 0.236601
v -0.285379 0.213776 0.275394
v -0.190205 0.213776 0.236601
v -0.354236 0.592337 0.234552
v -0.285379 0.566594 0.304863
v -0.216522 0.592337 0.234552
v -0.365911 0.713113 0.248594
v -0.285379 0.677554 0.309649
v -0.204847 0.713113 0.248594
v -0.408730 1.038872 0.281561
v -0.285379 1.038872 0.348129
v -0.162027 1.038872 0.281561
v -0.471761 1.038872 0.146047
v -0.098997 1.038872 0.146047
v -0.416356 1.038872 0.032048
v -0.285379 1.038872 -0.021338
v -0.154402 1.038872 0.032048
v -0.379038 0.738855 0.047528
v -0.285379 0.738855 0.014883
v -0.191719 0.738855 0.047528
v -0.365461 0.566595 0.070421
v -0.285379 0.566595 0.037780
v -0.205297 0.566595 0.070421
v -0.354428 0.213776 0.086687
v -0.285379 0.213776 0.058543
v -0.216330 0.213776 0.086687
v -0.393993 0.213776 0.156002
v -0.176765 0.213776 0.156002
v -0.178150 0.566595 0.145120
v -0.154918 0.738855 0.146047
v -0.412574 0.566595 0.145120
v -0.434139 0.738855 0.146047
v -0.385813 -0.001461 0.473113
v -0.183551 -0.001461 0.473113
v -0.451737 0.085907 0.497702
v -0.323592 0.120342 0.800227
v -0.236096 0.120342 0.800227
v -0.107950 0.085907 0.497702
v -0.422658 0.173274 0.497702
v -0.368125 0.173274 0.605105
v -0.191562 0.173274 0.605105
v -0.137029 0.173274 0.497702
v -0.323170 0.216696 0.452276
v -0.236518 0.216696 0.452276
v -0.356321 0.240713 0.299880
v -0.203367 0.240713 0.299880
v -0.389473 0.216234 0.256571
v -0.355509 0.230772 0.256139
v -0.204179 0.230772 0.256139
v -0.170215 0.216234 0.256571
v -0.403863 0.216234 0.085397
v -0.155824 0.216234 0.085397
v -0.363624 0.230809 0.052756
v -0.323170 0.216233 -0.004104
v -0.236518 0.216233 -0.004104
v -0.196063 0.230809 0.052756
v -0.422658 0.173274 0.013844
v -0.323170 0.173274 -0.066981
v -0.236518 0.173274 -0.066981
v -0.137029 0.173274 0.013844
v -0.451737 0.085907 0.013844
v -0.323170 0.085907 -0.066981
v -0.236518 0.085907 -0.066981
v -0.107950 0.085907 0.013844
v -0.401250 -0.001461 0.057388
v -0.158438 -0.001461 0.057388
vt 0.253598 0.917270
vt 0.407880 0.917270
vt 0.464032 0.740906
vt 0.196006 0.714483
vt 0.366502 0.917270
vt 0.428991 0.714483
vt 0.479721 0.686094
vt 0.181274 0.640295
vt 0.444996 0.640295
vt 0.087691 0.511677
vt 0.664360 1.048778
vt 0.486541 0.494813
vt 0.255759 0.474976
vt 0.314987 0.472305
vt 0.316660 0.640295
vt 0.275015 0.640295
vt 0.374078 0.474587
vt 0.358384 0.640295
vt 0.316380 0.714483
vt 0.278479 0.714483
vt 0.354204 0.714483
vt 0.311652 0.871107
vt 0.290339 0.871107
vt 0.333094 0.871107
vt 0.352147 0.871107
vt 0.388024 0.714483
vt 0.402059 0.640295
vt 0.426412 0.480366
vt 0.269136 0.871107
vt 0.240765 0.714483
vt 0.228092 0.640295
vt 0.203272 0.481477
vt 0.160609 0.737950
vt 0.664360 1.048778
vt 0.664360 1.048778
vt 0.664360 1.048778
vt 0.664360 1.048778
vt 0.664360 1.048778
vt 0.142746 0.494638
vt 0.146008 0.684161
vt 0.664360 1.048778
vt 0.541261 0.512729
vt 0.664360 1.048778
vt 0.306845 0.917270
vt 0.212710 0.917270
vt 0.332655 0.040135
vt 0.313563 0.123785
vt 0.277719 0.169829
vt 0.290185 0.169829
vt 0.370165 0.040135
vt 0.389257 0.123785
vt 0.425101 0.169829
vt 0.412635 0.169829
vt 0.332836 0.189303
vt 0.369984 0.189303
vt 0.318624 0.254636
vt 0.384196 0.254636
vt 0.318972 0.273389
vt 0.304412 0.273203
vt 0.383848 0.273389
vt 0.398408 0.273203
vt 0.315493 0.360580
vt 0.332836 0.384956
vt 0.290185 0.377261
vt 0.332836 0.411911
vt 0.369984 0.384956
vt 0.369984 0.411911
vt 0.387327 0.360580
vt 0.412635 0.377261
vt 0.332836 0.411911
vt 0.277719 0.377261
vt 0.369984 0.411911
vt 0.425101 0.377261
vt 0.131242 0.180370
vt 0.124624 0.358594
vt 0.217953 0.180370
vt 0.228719 0.358594
vt 0.404578 0.346586
vt 0.298242 0.346586
vt 0.250363 0.377261
vt 0.195246 0.411911
vt 0.158097 0.411911
vt 0.102980 0.377261
vt 0.102980 0.169829
vt 0.250363 0.169829
vt 0.195426 0.040135
vt 0.157917 0.040135
vn 0.000000 -0.083236 0.996530
vn 0.000000 0.029606 0.999562
vn -0.441717 -0.054108 0.895522
vn -0.698601 0.011107 0.715425
vn 0.441718 -0.054106 0.895521
vn 0.698602 0.011104 0.715425
vn -0.000000 -0.114730 0.993397
vn -0.597191 -0.107885 0.794811
vn 0.597192 -0.107887 0.794809
vn -0.000000 -0.160187 0.987087
vn -0.469563 -0.149777 0.870102
vn 0.469563 -0.149775 0.870102
vn -0.375765 -0.094310 -0.921904
vn 0.000000 -0.104593 -0.994515
vn -0.342515 -0.114597 -0.932497
vn 0.000000 -0.124062 -0.992274
vn 0.375766 -0.094307 -0.921903
vn 0.342515 -0.114597 -0.932497
vn 0.000000 -0.091600 -0.995796
vn -0.376006 -0.087294 -0.922496
vn 0.376006 -0.087294 -0.922496
vn 0.000000 -0.058748 -0.998273
vn -0.376887 -0.054415 -0.924659
vn 0.376890 -0.054415 -0.924658
vn 0.986268 -0.001221 -0.165152
vn 0.879785 -0.016523 -0.475085
vn 0.998191 -0.023992 0.055133
vn 0.936843 -0.073777 -0.341881
vn 0.977635 0.020860 0.209270
vn 0.919193 0.002011 0.393801
vn 0.985387 -0.156450 0.067347
vn 0.929005 -0.128525 -0.347031
vn 0.902710 -0.147486 0.404182
vn 0.895173 -0.159658 -0.416143
vn 0.982613 -0.183148 0.030468
vn 0.895830 -0.165128 0.412579
vn -0.984304 -0.056987 -0.167029
vn -0.997720 -0.031752 0.059551
vn -0.863271 -0.059253 -0.501251
vn -0.847747 -0.074411 -0.525155
vn -0.966439 -0.021330 0.256009
vn -0.837161 -0.002993 0.546949
vn -0.985681 -0.152554 0.071838
vn -0.865069 -0.132537 -0.483827
vn -0.837499 -0.146424 0.526456
vn -0.888045 -0.116370 -0.444785
vn -0.991764 -0.124368 0.030606
vn -0.888067 -0.124658 0.442490
vn 0.000000 1.000000 0.000000
vn 0.000000 1.000000 0.000000
vn 0.000000 1.000000 0.000000
vn 0.000000 1.000000 0.000000
vn 0.000000 1.000000 0.000001
vn 0.000000 1.000000 0.000001
vn 0.000000 1.000000 0.000000
vn 0.000000 1.000000 0.000000
vn 0.000000 -1.000000 -0.000001
vn 0.000000 -1.000000 0.000000
vn -0.000000 -1.000000 0.000000
vn -0.000000 -1.000000 0.000000
vn -0.000000 -1.000000 0.000000
vn 0.000000 -1.000000 -0.000000
vn 0.000000 -1.000000 0.000000
vn 0.000000 -1.000000 0.000000
vn -0.240043 0.921665 0.304816
vn -0.440858 0.836502 0.325436
vn -0.854300 0.374612 0.360330
vn -0.561106 0.776957 0.285478
vn 0.175600 0.939260 0.294880
vn 0.439221 0.837600 0.324825
vn 0.854296 0.374621 0.360329
vn 0.561106 0.776957 0.285478
vn -0.131079 0.966575 0.220345
vn 0.137364 0.968587 0.207293
vn -0.313596 0.941403 0.124169
vn 0.291952 0.947981 0.126874
vn -0.386919 0.897605 -0.211187
vn -0.612899 0.789835 0.022717
vn 0.386917 0.897606 -0.211186
vn 0.612892 0.789840 0.022717
vn -0.418322 0.762758 -0.493160
vn -0.273990 0.796962 -0.538313
vn -0.546132 0.331030 -0.769519
vn -0.353383 0.360967 -0.863031
vn 0.273992 0.796960 -0.538315
vn 0.353383 0.360964 -0.863033
vn 0.418319 0.762762 -0.493157
vn 0.546132 0.331033 -0.769518
vn -0.379532 0.048636 -0.923900
vn -0.524066 0.174420 -0.833626
vn 0.379531 0.048639 -0.923899
vn 0.524066 0.174428 -0.833625
vn 0.000000 -1.000000 0.000000
vn 0.000000 -1.000000 0.000000
vn 0.000000 -1.000000 0.000000
vn 0.000000 -1.000000 0.000000
vn 0.000000 0.975133 -0.221622
vn 0.048734 0.994412 -0.093642
vn 0.000000 0.975132 -0.221623
vn -0.037992 0.995074 -0.091567
vn 0.392937 0.918972 0.033034
vn 0.009924 0.999697 -0.022528
vn -0.392954 0.918965 0.033035
vn -0.008569 0.999002 -0.043835
vn 0.000000 0.977090 0.212828
vn 0.000000 0.978911 0.204289
vn 0.000000 0.968678 -0.248320
vn 0.000000 0.968678 -0.248319
vn 0.429973 -0.589349 -0.683953
vn 0.133286 -0.769676 -0.624366
vn 0.071303 -0.794585 -0.602952
vn -0.156034 -0.759508 -0.631507
vn -0.130121 -0.771043 -0.623346
vn -0.429975 -0.589344 -0.683955
vn -0.865834 -0.500332 0.000000
vn -0.858246 -0.513228 0.003428
vn -0.807568 -0.589272 0.024326
vn -0.793888 -0.607349 0.029480
vn 0.749086 -0.660925 0.045252
vn 0.852792 -0.522218 0.005836
vn 0.770674 -0.636104 0.037851
vn 0.865829 -0.500340 0.000000
vn 0.655762 -0.666992 0.353693
vn 0.013114 -0.943333 0.331589
vn 0.222336 -0.901467 0.371381
vn -0.267694 -0.856439 0.441422
vn -0.576669 -0.656836 0.485818
vn 0.000000 -0.993584 0.113097
vn -0.948826 0.315799 0.000000
vn -0.948826 0.315799 0.000000
vn -0.948826 0.315799 0.000000
vn -0.948826 0.315799 0.000000
vn 0.948829 0.315790 0.000000
vn 0.948829 0.315792 0.000000
vn 0.948824 0.315807 0.000000
vn 0.948823 0.315809 0.000000
vn -0.791378 0.611328 0.000000
vn -0.795596 0.605826 0.001551
vn -0.803186 0.592610 -0.060879
vn -0.906373 0.422198 -0.015403
vn -0.542783 0.775316 -0.322911
vn 0.791373 0.611333 0.000000
vn 0.803187 0.592608 -0.060880
vn 0.795592 0.605831 0.001551
vn 0.906382 0.422178 -0.015404
vn 0.542783 0.775316 -0.322911
s 1
g pasted__group_pasted__leg_kutu_pasted__pCube4 group7
usemtl blinn14SG
f 2/45/1 5/33/2 1/1/3
f 1/1/3 5/33/2 4/4/4
f 2/2/1 3/5/5 5/3/2
f 5/3/2 3/5/5 6/6/6
f 5/33/2 8/40/7 4/4/4
f 4/4/4 8/40/7 7/8/8
f 5/3/2 6/6/6 8/7/7
f 8/7/7 6/6/6 9/9/9
f 8/40/7 11/10/10 7/8/8
f 7/8/8 11/10/10 10/39/11
f 8/7/7 9/9/9 11/42/10
f 11/42/10 9/9/9 12/12/12
s 2
f 15/13/13 16/14/14 18/16/15
f 18/16/15 16/14/14 19/15/16
f 17/17/17 20/18/18 16/14/14
f 16/14/14 20/18/18 19/15/16
f 19/15/16 22/19/19 18/16/15
f 18/16/15 22/19/19 21/20/20
f 19/15/16 20/18/18 22/19/19
f 22/19/19 20/18/18 23/21/21
f 22/19/19 25/22/22 21/20/20
f 21/20/20 25/22/22 24/23/23
f 22/19/19 23/21/21 25/22/22
f 25/22/22 23/21/21 26/24/24
s 3
f 28/25/25 26/24/26 29/26/27
f 29/26/27 26/24/26 23/21/28
f 28/25/25 29/26/27 3/5/29
f 3/5/29 29/26/27 6/6/30
f 29/26/27 23/21/28 30/27/31
f 30/27/31 23/21/28 20/18/32
f 6/6/30 29/26/27 9/9/33
f 9/9/33 29/26/27 30/27/31
f 20/18/32 17/17/34 30/27/31
f 30/27/31 17/17/34 14/28/35
f 9/9/33 30/27/31 12/12/36
f 12/12/36 30/27/31 14/28/35
s 4
f 27/29/37 31/30/38 24/23/39
f 24/23/39 31/30/38 21/20/40
f 27/29/37 1/1/41 31/30/38
f 31/30/38 1/1/41 4/4/42
f 31/30/38 32/31/43 21/20/40
f 21/20/40 32/31/43 18/16/44
f 4/4/42 7/8/45 31/30/38
f 31/30/38 7/8/45 32/31/43
f 18/16/44 32/31/43 15/13/46
f 15/13/46 32/31/43 13/32/47
f 7/8/45 10/39/48 32/31/43
f 32/31/43 10/39/48 13/32/47
s 5
f 11/41/49 12/38/50 10/11/51
f 12/38/50 14/34/52 10/11/51
f 14/34/52 17/35/53 10/11/51
f 17/35/53 16/43/54 10/11/51
f 16/43/54 15/37/55 10/11/51
f 15/37/55 13/36/56 10/11/51
s 6
f 1/1/57 27/29/58 2/44/59
f 27/29/58 24/23/60 2/44/59
f 2/44/59 24/23/60 3/5/61
f 3/5/61 24/23/60 28/25/62
f 28/25/62 24/23/60 26/24/63
f 24/23/60 25/22/64 26/24/63
s 7
f 36/46/65 40/47/66 35/48/67
f 35/48/67 40/47/66 39/49/68
f 36/46/65 37/50/69 40/47/66
f 40/47/66 37/50/69 41/51/70
f 37/50/69 38/52/71 41/51/70
f 41/51/70 38/52/71 42/53/72
f 40/47/66 41/51/70 43/54/73
f 43/54/73 41/51/70 44/55/74
f 43/54/73 44/55/74 45/56/75
f 45/56/75 44/55/74 46/57/76
f 48/58/77 47/59/78 45/56/75
f 47/59/78 39/49/68 45/56/75
f 45/56/75 39/49/68 43/54/73
f 39/49/68 40/47/66 43/54/73
f 49/60/79 46/57/76 50/61/80
f 50/61/80 46/57/76 42/53/72
f 46/57/76 44/55/74 42/53/72
f 42/53/72 44/55/74 41/51/70
s 11
f 53/62/81 54/63/82 57/64/83
f 57/64/83 54/63/82 58/65/84
f 54/63/82 55/66/85 58/65/84
f 58/65/84 55/66/85 59/67/86
f 56/68/87 60/69/88 55/66/85
f 55/66/85 60/69/88 59/67/86
f 58/65/84 62/70/89 57/64/83
f 57/64/83 62/70/89 61/71/90
f 58/65/84 59/67/86 62/70/89
f 62/70/89 59/67/86 63/72/91
f 59/67/86 60/69/88 63/72/91
f 63/72/91 60/69/88 64/73/92
s 12
f 33/74/93 65/75/94 34/76/95
f 34/76/95 65/75/94 66/77/96
s 13
f 46/57/97 49/60/98 45/56/99
f 45/56/99 49/60/98 48/58/100
f 50/61/101 52/78/102 49/60/98
f 47/59/103 48/58/100 51/79/104
f 49/60/98 52/78/102 48/58/100
f 48/58/100 52/78/102 51/79/104
f 52/78/102 56/68/105 51/79/104
f 51/79/104 56/68/105 53/62/106
f 56/68/105 55/66/107 53/62/106
f 55/66/107 54/63/108 53/62/106
s 15
f 64/80/109 66/77/110 63/81/111
f 66/77/110 65/75/112 63/81/111
f 63/81/111 65/75/112 62/82/113
f 62/82/113 65/75/112 61/83/114
s 16
f 61/83/115 65/75/116 35/84/117
f 35/84/117 65/75/116 33/74/118
s 17
f 34/76/119 66/77/120 38/85/121
f 38/85/121 66/77/120 64/80/122
s 18
f 38/85/123 37/86/124 34/76/125
f 34/76/125 37/86/124 33/74/126
f 33/74/126 37/86/124 35/84/127
f 37/86/124 36/87/128 35/84/127
s 19
f 39/49/129 57/64/130 35/48/131
f 35/48/131 57/64/130 61/71/132
s 20
f 42/53/133 38/52/134 60/69/135
f 60/69/135 38/52/134 64/73/136
s 21
f 39/49/137 47/59/138 57/64/139
f 47/59/138 51/79/140 57/64/139
f 51/79/140 53/62/141 57/64/139
s 22
f 42/53/142 60/69/143 50/61/144
f 50/61/144 60/69/143 52/78/145
f 60/69/143 56/68/146 52/78/145
