# MagicaVoxel @ Ephtracy

# group
o 

# material
mtllib mine.mtl
usemtl palette

# normals
vn -1 0 0
vn 1 0 0
vn 0 0 1
vn 0 0 -1
vn 0 -1 0
vn 0 1 0

# texcoords
vt 0.845703 0.5
vt 0.970703 0.5
vt 0.978516 0.5
vt 0.982422 0.5

# verts
v 1.2 2 -1.9
v 1.2 2 -2.1
v 1.2 2.2 -1.9
v 1.2 2.2 -2.1
v 1.4 2 -1.8
v 1.4 2 -1.9
v 1.4 2 -2.1
v 1.4 2 -2.2
v 1.4 2.1 -1.8
v 1.4 2.1 -1.9
v 1.4 2.1 -2.1
v 1.4 2.1 -2.2
v 1.5 2 -1.7
v 1.5 2 -1.8
v 1.5 2 -2.2
v 1.5 2 -2.3
v 1.5 2.1 -1.7
v 1.5 2.1 -1.8
v 1.5 2.1 -1.9
v 1.5 2.1 -2.1
v 1.5 2.1 -2.2
v 1.5 2.1 -2.3
v 1.5 2.2 -1.9
v 1.5 2.2 -2.1
v 1.6 2 -1.6
v 1.6 2 -1.7
v 1.6 2 -2.3
v 1.6 2 -2.4
v 1.6 2.1 -1.6
v 1.6 2.1 -1.7
v 1.6 2.1 -1.8
v 1.6 2.1 -1.9
v 1.6 2.1 -2.1
v 1.6 2.1 -2.2
v 1.6 2.1 -2.3
v 1.6 2.1 -2.4
v 1.6 2.2 -1.8
v 1.6 2.2 -1.9
v 1.6 2.2 -2.1
v 1.6 2.2 -2.2
v 1.6 2.3 -1.8
v 1.6 2.3 -1.9
v 1.6 2.3 -2.1
v 1.6 2.3 -2.2
v 1.7 2 -1.5
v 1.7 2 -1.6
v 1.7 2 -2.4
v 1.7 2 -2.5
v 1.7 2.1 -1.5
v 1.7 2.1 -1.6
v 1.7 2.1 -1.7
v 1.7 2.1 -1.8
v 1.7 2.1 -2.2
v 1.7 2.1 -2.3
v 1.7 2.1 -2.4
v 1.7 2.1 -2.5
v 1.7 2.2 -1.7
v 1.7 2.2 -1.8
v 1.7 2.2 -2.2
v 1.7 2.2 -2.3
v 1.8 2 -1.4
v 1.8 2 -1.5
v 1.8 2 -2.5
v 1.8 2 -2.6
v 1.8 2.1 -1.4
v 1.8 2.1 -1.5
v 1.8 2.1 -1.6
v 1.8 2.1 -1.7
v 1.8 2.1 -2.3
v 1.8 2.1 -2.4
v 1.8 2.1 -2.5
v 1.8 2.1 -2.6
v 1.8 2.2 -1.6
v 1.8 2.2 -1.7
v 1.8 2.2 -2.3
v 1.8 2.2 -2.4
v 1.8 2.3 -1.6
v 1.8 2.3 -1.7
v 1.8 2.3 -2.3
v 1.8 2.3 -2.4
v 1.9 2 -1.2
v 1.9 2 -1.4
v 1.9 2 -2.6
v 1.9 2 -2.8
v 1.9 2.1 -1.3
v 1.9 2.1 -1.4
v 1.9 2.1 -1.5
v 1.9 2.1 -1.6
v 1.9 2.1 -2.4
v 1.9 2.1 -2.5
v 1.9 2.1 -2.6
v 1.9 2.1 -2.7
v 1.9 2.2 -1.2
v 1.9 2.2 -1.3
v 1.9 2.2 -1.5
v 1.9 2.2 -1.6
v 1.9 2.2 -1.9
v 1.9 2.2 -2.1
v 1.9 2.2 -2.4
v 1.9 2.2 -2.5
v 1.9 2.2 -2.7
v 1.9 2.2 -2.8
v 1.9 2.3 -1.9
v 1.9 2.3 -2.1
v 2.1 2.2 -1.6
v 2.1 2.2 -1.7
v 2.1 2.2 -2.3
v 2.1 2.2 -2.4
v 2.1 2.3 -1.6
v 2.1 2.3 -1.7
v 2.1 2.3 -2.3
v 2.1 2.3 -2.4
v 2.3 2.2 -1.8
v 2.3 2.2 -1.9
v 2.3 2.2 -2.1
v 2.3 2.2 -2.2
v 2.3 2.3 -1.8
v 2.3 2.3 -1.9
v 2.3 2.3 -2.1
v 2.3 2.3 -2.2
v 2.7 2.1 -1.9
v 2.7 2.1 -2.1
v 2.7 2.2 -1.9
v 2.7 2.2 -2.1
v 1.3 2.1 -1.9
v 1.3 2.1 -2.1
v 1.3 2.2 -1.9
v 1.3 2.2 -2.1
v 1.7 2.2 -1.8
v 1.7 2.2 -1.9
v 1.7 2.2 -2.1
v 1.7 2.2 -2.2
v 1.7 2.3 -1.8
v 1.7 2.3 -1.9
v 1.7 2.3 -2.1
v 1.7 2.3 -2.2
v 1.9 2.2 -1.6
v 1.9 2.2 -1.7
v 1.9 2.2 -2.3
v 1.9 2.2 -2.4
v 1.9 2.3 -1.6
v 1.9 2.3 -1.7
v 1.9 2.3 -2.3
v 1.9 2.3 -2.4
v 2.1 2 -1.2
v 2.1 2 -1.4
v 2.1 2 -2.6
v 2.1 2 -2.8
v 2.1 2.1 -1.3
v 2.1 2.1 -1.4
v 2.1 2.1 -1.5
v 2.1 2.1 -1.6
v 2.1 2.1 -2.4
v 2.1 2.1 -2.5
v 2.1 2.1 -2.6
v 2.1 2.1 -2.7
v 2.1 2.2 -1.2
v 2.1 2.2 -1.3
v 2.1 2.2 -1.5
v 2.1 2.2 -1.6
v 2.1 2.2 -1.9
v 2.1 2.2 -2.1
v 2.1 2.2 -2.4
v 2.1 2.2 -2.5
v 2.1 2.2 -2.7
v 2.1 2.2 -2.8
v 2.1 2.3 -1.9
v 2.1 2.3 -2.1
v 2.2 2 -1.4
v 2.2 2 -1.5
v 2.2 2 -2.5
v 2.2 2 -2.6
v 2.2 2.1 -1.4
v 2.2 2.1 -1.5
v 2.2 2.1 -1.6
v 2.2 2.1 -1.7
v 2.2 2.1 -2.3
v 2.2 2.1 -2.4
v 2.2 2.1 -2.5
v 2.2 2.1 -2.6
v 2.2 2.2 -1.6
v 2.2 2.2 -1.7
v 2.2 2.2 -2.3
v 2.2 2.2 -2.4
v 2.2 2.3 -1.6
v 2.2 2.3 -1.7
v 2.2 2.3 -2.3
v 2.2 2.3 -2.4
v 2.3 2 -1.5
v 2.3 2 -1.6
v 2.3 2 -2.4
v 2.3 2 -2.5
v 2.3 2.1 -1.5
v 2.3 2.1 -1.6
v 2.3 2.1 -1.7
v 2.3 2.1 -1.8
v 2.3 2.1 -2.2
v 2.3 2.1 -2.3
v 2.3 2.1 -2.4
v 2.3 2.1 -2.5
v 2.3 2.2 -1.7
v 2.3 2.2 -1.8
v 2.3 2.2 -2.2
v 2.3 2.2 -2.3
v 2.4 2 -1.6
v 2.4 2 -1.7
v 2.4 2 -2.3
v 2.4 2 -2.4
v 2.4 2.1 -1.6
v 2.4 2.1 -1.7
v 2.4 2.1 -1.8
v 2.4 2.1 -1.9
v 2.4 2.1 -2.1
v 2.4 2.1 -2.2
v 2.4 2.1 -2.3
v 2.4 2.1 -2.4
v 2.4 2.2 -1.8
v 2.4 2.2 -1.9
v 2.4 2.2 -2.1
v 2.4 2.2 -2.2
v 2.4 2.3 -1.8
v 2.4 2.3 -1.9
v 2.4 2.3 -2.1
v 2.4 2.3 -2.2
v 2.5 2 -1.7
v 2.5 2 -1.8
v 2.5 2 -2.2
v 2.5 2 -2.3
v 2.5 2.1 -1.7
v 2.5 2.1 -1.8
v 2.5 2.1 -1.9
v 2.5 2.1 -2.1
v 2.5 2.1 -2.2
v 2.5 2.1 -2.3
v 2.5 2.2 -1.9
v 2.5 2.2 -2.1
v 2.6 2 -1.8
v 2.6 2 -1.9
v 2.6 2 -2.1
v 2.6 2 -2.2
v 2.6 2.1 -1.8
v 2.6 2.1 -1.9
v 2.6 2.1 -2.1
v 2.6 2.1 -2.2
v 2.8 2 -1.9
v 2.8 2 -2.1
v 2.8 2.2 -1.9
v 2.8 2.2 -2.1
v 1.9 2 -1.2
v 1.9 2.2 -1.2
v 2.1 2 -1.2
v 2.1 2.2 -1.2
v 1.8 2 -1.4
v 1.8 2.1 -1.4
v 1.9 2 -1.4
v 1.9 2.1 -1.4
v 2.1 2 -1.4
v 2.1 2.1 -1.4
v 2.2 2 -1.4
v 2.2 2.1 -1.4
v 1.7 2 -1.5
v 1.7 2.1 -1.5
v 1.8 2 -1.5
v 1.8 2.1 -1.5
v 1.9 2.1 -1.5
v 1.9 2.2 -1.5
v 2.1 2.1 -1.5
v 2.1 2.2 -1.5
v 2.2 2 -1.5
v 2.2 2.1 -1.5
v 2.3 2 -1.5
v 2.3 2.1 -1.5
v 1.6 2 -1.6
v 1.6 2.1 -1.6
v 1.7 2 -1.6
v 1.7 2.1 -1.6
v 1.8 2.1 -1.6
v 1.8 2.2 -1.6
v 1.8 2.3 -1.6
v 1.9 2.1 -1.6
v 1.9 2.2 -1.6
v 1.9 2.3 -1.6
v 2.1 2.1 -1.6
v 2.1 2.2 -1.6
v 2.1 2.3 -1.6
v 2.2 2.1 -1.6
v 2.2 2.2 -1.6
v 2.2 2.3 -1.6
v 2.3 2 -1.6
v 2.3 2.1 -1.6
v 2.4 2 -1.6
v 2.4 2.1 -1.6
v 1.5 2 -1.7
v 1.5 2.1 -1.7
v 1.6 2 -1.7
v 1.6 2.1 -1.7
v 1.7 2.1 -1.7
v 1.7 2.2 -1.7
v 1.8 2.1 -1.7
v 1.8 2.2 -1.7
v 2.2 2.1 -1.7
v 2.2 2.2 -1.7
v 2.3 2.1 -1.7
v 2.3 2.2 -1.7
v 2.4 2 -1.7
v 2.4 2.1 -1.7
v 2.5 2 -1.7
v 2.5 2.1 -1.7
v 1.4 2 -1.8
v 1.4 2.1 -1.8
v 1.5 2 -1.8
v 1.5 2.1 -1.8
v 1.6 2.1 -1.8
v 1.6 2.2 -1.8
v 1.6 2.3 -1.8
v 1.7 2.1 -1.8
v 1.7 2.2 -1.8
v 1.7 2.3 -1.8
v 2.3 2.1 -1.8
v 2.3 2.2 -1.8
v 2.3 2.3 -1.8
v 2.4 2.1 -1.8
v 2.4 2.2 -1.8
v 2.4 2.3 -1.8
v 2.5 2 -1.8
v 2.5 2.1 -1.8
v 2.6 2 -1.8
v 2.6 2.1 -1.8
v 1.2 2 -1.9
v 1.2 2.2 -1.9
v 1.3 2.1 -1.9
v 1.3 2.2 -1.9
v 1.4 2 -1.9
v 1.4 2.1 -1.9
v 1.5 2.1 -1.9
v 1.5 2.2 -1.9
v 1.6 2.1 -1.9
v 1.6 2.2 -1.9
v 1.9 2.2 -1.9
v 1.9 2.3 -1.9
v 2.1 2.2 -1.9
v 2.1 2.3 -1.9
v 2.4 2.1 -1.9
v 2.4 2.2 -1.9
v 2.5 2.1 -1.9
v 2.5 2.2 -1.9
v 2.6 2 -1.9
v 2.6 2.1 -1.9
v 2.7 2.1 -1.9
v 2.7 2.2 -1.9
v 2.8 2 -1.9
v 2.8 2.2 -1.9
v 1.6 2.2 -2.1
v 1.6 2.3 -2.1
v 1.7 2.2 -2.1
v 1.7 2.3 -2.1
v 2.3 2.2 -2.1
v 2.3 2.3 -2.1
v 2.4 2.2 -2.1
v 2.4 2.3 -2.1
v 1.8 2.2 -2.3
v 1.8 2.3 -2.3
v 1.9 2.2 -2.3
v 1.9 2.3 -2.3
v 2.1 2.2 -2.3
v 2.1 2.3 -2.3
v 2.2 2.2 -2.3
v 2.2 2.3 -2.3
v 1.9 2.1 -2.7
v 1.9 2.2 -2.7
v 2.1 2.1 -2.7
v 2.1 2.2 -2.7
v 1.9 2.1 -1.3
v 1.9 2.2 -1.3
v 2.1 2.1 -1.3
v 2.1 2.2 -1.3
v 1.8 2.2 -1.7
v 1.8 2.3 -1.7
v 1.9 2.2 -1.7
v 1.9 2.3 -1.7
v 2.1 2.2 -1.7
v 2.1 2.3 -1.7
v 2.2 2.2 -1.7
v 2.2 2.3 -1.7
v 1.6 2.2 -1.9
v 1.6 2.3 -1.9
v 1.7 2.2 -1.9
v 1.7 2.3 -1.9
v 2.3 2.2 -1.9
v 2.3 2.3 -1.9
v 2.4 2.2 -1.9
v 2.4 2.3 -1.9
v 1.2 2 -2.1
v 1.2 2.2 -2.1
v 1.3 2.1 -2.1
v 1.3 2.2 -2.1
v 1.4 2 -2.1
v 1.4 2.1 -2.1
v 1.5 2.1 -2.1
v 1.5 2.2 -2.1
v 1.6 2.1 -2.1
v 1.6 2.2 -2.1
v 1.9 2.2 -2.1
v 1.9 2.3 -2.1
v 2.1 2.2 -2.1
v 2.1 2.3 -2.1
v 2.4 2.1 -2.1
v 2.4 2.2 -2.1
v 2.5 2.1 -2.1
v 2.5 2.2 -2.1
v 2.6 2 -2.1
v 2.6 2.1 -2.1
v 2.7 2.1 -2.1
v 2.7 2.2 -2.1
v 2.8 2 -2.1
v 2.8 2.2 -2.1
v 1.4 2 -2.2
v 1.4 2.1 -2.2
v 1.5 2 -2.2
v 1.5 2.1 -2.2
v 1.6 2.1 -2.2
v 1.6 2.2 -2.2
v 1.6 2.3 -2.2
v 1.7 2.1 -2.2
v 1.7 2.2 -2.2
v 1.7 2.3 -2.2
v 2.3 2.1 -2.2
v 2.3 2.2 -2.2
v 2.3 2.3 -2.2
v 2.4 2.1 -2.2
v 2.4 2.2 -2.2
v 2.4 2.3 -2.2
v 2.5 2 -2.2
v 2.5 2.1 -2.2
v 2.6 2 -2.2
v 2.6 2.1 -2.2
v 1.5 2 -2.3
v 1.5 2.1 -2.3
v 1.6 2 -2.3
v 1.6 2.1 -2.3
v 1.7 2.1 -2.3
v 1.7 2.2 -2.3
v 1.8 2.1 -2.3
v 1.8 2.2 -2.3
v 2.2 2.1 -2.3
v 2.2 2.2 -2.3
v 2.3 2.1 -2.3
v 2.3 2.2 -2.3
v 2.4 2 -2.3
v 2.4 2.1 -2.3
v 2.5 2 -2.3
v 2.5 2.1 -2.3
v 1.6 2 -2.4
v 1.6 2.1 -2.4
v 1.7 2 -2.4
v 1.7 2.1 -2.4
v 1.8 2.1 -2.4
v 1.8 2.2 -2.4
v 1.8 2.3 -2.4
v 1.9 2.1 -2.4
v 1.9 2.2 -2.4
v 1.9 2.3 -2.4
v 2.1 2.1 -2.4
v 2.1 2.2 -2.4
v 2.1 2.3 -2.4
v 2.2 2.1 -2.4
v 2.2 2.2 -2.4
v 2.2 2.3 -2.4
v 2.3 2 -2.4
v 2.3 2.1 -2.4
v 2.4 2 -2.4
v 2.4 2.1 -2.4
v 1.7 2 -2.5
v 1.7 2.1 -2.5
v 1.8 2 -2.5
v 1.8 2.1 -2.5
v 1.9 2.1 -2.5
v 1.9 2.2 -2.5
v 2.1 2.1 -2.5
v 2.1 2.2 -2.5
v 2.2 2 -2.5
v 2.2 2.1 -2.5
v 2.3 2 -2.5
v 2.3 2.1 -2.5
v 1.8 2 -2.6
v 1.8 2.1 -2.6
v 1.9 2 -2.6
v 1.9 2.1 -2.6
v 2.1 2 -2.6
v 2.1 2.1 -2.6
v 2.2 2 -2.6
v 2.2 2.1 -2.6
v 1.9 2 -2.8
v 1.9 2.2 -2.8
v 2.1 2 -2.8
v 2.1 2.2 -2.8
v 1.9 2 -1.2
v 2.1 2 -1.2
v 1.8 2 -1.4
v 1.9 2 -1.4
v 2.1 2 -1.4
v 2.2 2 -1.4
v 1.7 2 -1.5
v 1.8 2 -1.5
v 2.2 2 -1.5
v 2.3 2 -1.5
v 1.6 2 -1.6
v 1.7 2 -1.6
v 2.3 2 -1.6
v 2.4 2 -1.6
v 1.5 2 -1.7
v 1.6 2 -1.7
v 2.4 2 -1.7
v 2.5 2 -1.7
v 1.4 2 -1.8
v 1.5 2 -1.8
v 2.5 2 -1.8
v 2.6 2 -1.8
v 1.2 2 -1.9
v 1.4 2 -1.9
v 2.6 2 -1.9
v 2.8 2 -1.9
v 1.2 2 -2.1
v 1.4 2 -2.1
v 2.6 2 -2.1
v 2.8 2 -2.1
v 1.4 2 -2.2
v 1.5 2 -2.2
v 2.5 2 -2.2
v 2.6 2 -2.2
v 1.5 2 -2.3
v 1.6 2 -2.3
v 2.4 2 -2.3
v 2.5 2 -2.3
v 1.6 2 -2.4
v 1.7 2 -2.4
v 2.3 2 -2.4
v 2.4 2 -2.4
v 1.7 2 -2.5
v 1.8 2 -2.5
v 2.2 2 -2.5
v 2.3 2 -2.5
v 1.8 2 -2.6
v 1.9 2 -2.6
v 2.1 2 -2.6
v 2.2 2 -2.6
v 1.9 2 -2.8
v 2.1 2 -2.8
v 1.9 2.1 -1.3
v 2.1 2.1 -1.3
v 1.8 2.1 -1.4
v 1.9 2.1 -1.4
v 2.1 2.1 -1.4
v 2.2 2.1 -1.4
v 1.7 2.1 -1.5
v 1.8 2.1 -1.5
v 1.9 2.1 -1.5
v 2.1 2.1 -1.5
v 2.2 2.1 -1.5
v 2.3 2.1 -1.5
v 1.6 2.1 -1.6
v 1.7 2.1 -1.6
v 1.8 2.1 -1.6
v 1.9 2.1 -1.6
v 2.1 2.1 -1.6
v 2.2 2.1 -1.6
v 2.3 2.1 -1.6
v 2.4 2.1 -1.6
v 1.5 2.1 -1.7
v 1.6 2.1 -1.7
v 1.7 2.1 -1.7
v 1.8 2.1 -1.7
v 2.2 2.1 -1.7
v 2.3 2.1 -1.7
v 2.4 2.1 -1.7
v 2.5 2.1 -1.7
v 1.4 2.1 -1.8
v 1.5 2.1 -1.8
v 1.6 2.1 -1.8
v 1.7 2.1 -1.8
v 2.3 2.1 -1.8
v 2.4 2.1 -1.8
v 2.5 2.1 -1.8
v 2.6 2.1 -1.8
v 1.3 2.1 -1.9
v 1.4 2.1 -1.9
v 1.5 2.1 -1.9
v 1.6 2.1 -1.9
v 2.4 2.1 -1.9
v 2.5 2.1 -1.9
v 2.6 2.1 -1.9
v 2.7 2.1 -1.9
v 1.3 2.1 -2.1
v 1.4 2.1 -2.1
v 1.5 2.1 -2.1
v 1.6 2.1 -2.1
v 2.4 2.1 -2.1
v 2.5 2.1 -2.1
v 2.6 2.1 -2.1
v 2.7 2.1 -2.1
v 1.4 2.1 -2.2
v 1.5 2.1 -2.2
v 1.6 2.1 -2.2
v 1.7 2.1 -2.2
v 2.3 2.1 -2.2
v 2.4 2.1 -2.2
v 2.5 2.1 -2.2
v 2.6 2.1 -2.2
v 1.5 2.1 -2.3
v 1.6 2.1 -2.3
v 1.7 2.1 -2.3
v 1.8 2.1 -2.3
v 2.2 2.1 -2.3
v 2.3 2.1 -2.3
v 2.4 2.1 -2.3
v 2.5 2.1 -2.3
v 1.6 2.1 -2.4
v 1.7 2.1 -2.4
v 1.8 2.1 -2.4
v 1.9 2.1 -2.4
v 2.1 2.1 -2.4
v 2.2 2.1 -2.4
v 2.3 2.1 -2.4
v 2.4 2.1 -2.4
v 1.7 2.1 -2.5
v 1.8 2.1 -2.5
v 1.9 2.1 -2.5
v 2.1 2.1 -2.5
v 2.2 2.1 -2.5
v 2.3 2.1 -2.5
v 1.8 2.1 -2.6
v 1.9 2.1 -2.6
v 2.1 2.1 -2.6
v 2.2 2.1 -2.6
v 1.9 2.1 -2.7
v 2.1 2.1 -2.7
v 1.9 2.2 -1.2
v 2.1 2.2 -1.2
v 1.9 2.2 -1.3
v 2.1 2.2 -1.3
v 1.9 2.2 -1.5
v 2.1 2.2 -1.5
v 1.9 2.2 -1.6
v 2.1 2.2 -1.6
v 1.7 2.2 -1.7
v 1.8 2.2 -1.7
v 1.9 2.2 -1.7
v 2.1 2.2 -1.7
v 2.2 2.2 -1.7
v 2.3 2.2 -1.7
v 1.7 2.2 -1.8
v 1.8 2.2 -1.8
v 1.9 2.2 -1.8
v 2.1 2.2 -1.8
v 2.2 2.2 -1.8
v 2.3 2.2 -1.8
v 1.2 2.2 -1.9
v 1.3 2.2 -1.9
v 1.5 2.2 -1.9
v 1.6 2.2 -1.9
v 1.7 2.2 -1.9
v 1.8 2.2 -1.9
v 1.9 2.2 -1.9
v 2.1 2.2 -1.9
v 2.2 2.2 -1.9
v 2.3 2.2 -1.9
v 2.4 2.2 -1.9
v 2.5 2.2 -1.9
v 2.7 2.2 -1.9
v 2.8 2.2 -1.9
v 1.2 2.2 -2.1
v 1.3 2.2 -2.1
v 1.5 2.2 -2.1
v 1.6 2.2 -2.1
v 1.7 2.2 -2.1
v 1.8 2.2 -2.1
v 1.9 2.2 -2.1
v 2.1 2.2 -2.1
v 2.2 2.2 -2.1
v 2.3 2.2 -2.1
v 2.4 2.2 -2.1
v 2.5 2.2 -2.1
v 2.7 2.2 -2.1
v 2.8 2.2 -2.1
v 1.7 2.2 -2.2
v 1.8 2.2 -2.2
v 1.9 2.2 -2.2
v 2.1 2.2 -2.2
v 2.2 2.2 -2.2
v 2.3 2.2 -2.2
v 1.7 2.2 -2.3
v 1.8 2.2 -2.3
v 1.9 2.2 -2.3
v 2.1 2.2 -2.3
v 2.2 2.2 -2.3
v 2.3 2.2 -2.3
v 1.9 2.2 -2.4
v 2.1 2.2 -2.4
v 1.9 2.2 -2.5
v 2.1 2.2 -2.5
v 1.9 2.2 -2.7
v 2.1 2.2 -2.7
v 1.9 2.2 -2.8
v 2.1 2.2 -2.8
v 1.8 2.3 -1.6
v 1.9 2.3 -1.6
v 2.1 2.3 -1.6
v 2.2 2.3 -1.6
v 1.8 2.3 -1.7
v 1.9 2.3 -1.7
v 2.1 2.3 -1.7
v 2.2 2.3 -1.7
v 1.6 2.3 -1.8
v 1.7 2.3 -1.8
v 2.3 2.3 -1.8
v 2.4 2.3 -1.8
v 1.6 2.3 -1.9
v 1.7 2.3 -1.9
v 1.9 2.3 -1.9
v 2.1 2.3 -1.9
v 2.3 2.3 -1.9
v 2.4 2.3 -1.9
v 1.6 2.3 -2.1
v 1.7 2.3 -2.1
v 1.9 2.3 -2.1
v 2.1 2.3 -2.1
v 2.3 2.3 -2.1
v 2.4 2.3 -2.1
v 1.6 2.3 -2.2
v 1.7 2.3 -2.2
v 2.3 2.3 -2.2
v 2.4 2.3 -2.2
v 1.8 2.3 -2.3
v 1.9 2.3 -2.3
v 2.1 2.3 -2.3
v 2.2 2.3 -2.3
v 1.8 2.3 -2.4
v 1.9 2.3 -2.4
v 2.1 2.3 -2.4
v 2.2 2.3 -2.4

# faces
f 3/4/1 2/4/1 1/4/1
f 4/4/1 2/4/1 3/4/1
f 9/4/1 6/4/1 5/4/1
f 10/4/1 6/4/1 9/4/1
f 11/4/1 8/4/1 7/4/1
f 12/4/1 8/4/1 11/4/1
f 17/4/1 14/4/1 13/4/1
f 18/4/1 14/4/1 17/4/1
f 21/4/1 16/4/1 15/4/1
f 22/4/1 16/4/1 21/4/1
f 23/3/1 20/3/1 19/3/1
f 24/3/1 20/3/1 23/3/1
f 29/4/1 26/4/1 25/4/1
f 30/4/1 26/4/1 29/4/1
f 35/4/1 28/4/1 27/4/1
f 36/4/1 28/4/1 35/4/1
f 37/3/1 32/3/1 31/3/1
f 38/3/1 32/3/1 37/3/1
f 39/3/1 34/3/1 33/3/1
f 40/3/1 34/3/1 39/3/1
f 41/4/1 38/4/1 37/4/1
f 42/4/1 38/4/1 41/4/1
f 43/4/1 40/4/1 39/4/1
f 44/4/1 40/4/1 43/4/1
f 49/4/1 46/4/1 45/4/1
f 50/4/1 46/4/1 49/4/1
f 55/4/1 48/4/1 47/4/1
f 56/4/1 48/4/1 55/4/1
f 57/3/1 52/3/1 51/3/1
f 58/3/1 52/3/1 57/3/1
f 59/3/1 54/3/1 53/3/1
f 60/3/1 54/3/1 59/3/1
f 65/4/1 62/4/1 61/4/1
f 66/4/1 62/4/1 65/4/1
f 71/4/1 64/4/1 63/4/1
f 72/4/1 64/4/1 71/4/1
f 73/3/1 68/3/1 67/3/1
f 74/3/1 68/3/1 73/3/1
f 75/3/1 70/3/1 69/3/1
f 76/3/1 70/3/1 75/3/1
f 77/4/1 74/4/1 73/4/1
f 78/4/1 74/4/1 77/4/1
f 79/4/1 76/4/1 75/4/1
f 80/4/1 76/4/1 79/4/1
f 85/4/1 82/4/1 81/4/1
f 86/4/1 82/4/1 85/4/1
f 91/4/1 84/4/1 83/4/1
f 92/4/1 84/4/1 91/4/1
f 93/4/1 85/4/1 81/4/1
f 94/4/1 85/4/1 93/4/1
f 95/3/1 88/3/1 87/3/1
f 96/3/1 88/3/1 95/3/1
f 99/3/1 90/3/1 89/3/1
f 100/3/1 90/3/1 99/3/1
f 101/4/1 84/4/1 92/4/1
f 102/4/1 84/4/1 101/4/1
f 103/1/1 98/1/1 97/1/1
f 104/1/1 98/1/1 103/1/1
f 109/4/1 106/4/1 105/4/1
f 110/4/1 106/4/1 109/4/1
f 111/4/1 108/4/1 107/4/1
f 112/4/1 108/4/1 111/4/1
f 117/4/1 114/4/1 113/4/1
f 118/4/1 114/4/1 117/4/1
f 119/4/1 116/4/1 115/4/1
f 120/4/1 116/4/1 119/4/1
f 123/4/1 122/4/1 121/4/1
f 124/4/1 122/4/1 123/4/1
f 125/4/2 126/4/2 127/4/2
f 127/4/2 126/4/2 128/4/2
f 129/4/2 130/4/2 133/4/2
f 133/4/2 130/4/2 134/4/2
f 131/4/2 132/4/2 135/4/2
f 135/4/2 132/4/2 136/4/2
f 137/4/2 138/4/2 141/4/2
f 141/4/2 138/4/2 142/4/2
f 139/4/2 140/4/2 143/4/2
f 143/4/2 140/4/2 144/4/2
f 145/4/2 146/4/2 149/4/2
f 149/4/2 146/4/2 150/4/2
f 147/4/2 148/4/2 155/4/2
f 155/4/2 148/4/2 156/4/2
f 145/4/2 149/4/2 157/4/2
f 157/4/2 149/4/2 158/4/2
f 151/3/2 152/3/2 159/3/2
f 159/3/2 152/3/2 160/3/2
f 153/3/2 154/3/2 163/3/2
f 163/3/2 154/3/2 164/3/2
f 156/4/2 148/4/2 165/4/2
f 165/4/2 148/4/2 166/4/2
f 161/1/2 162/1/2 167/1/2
f 167/1/2 162/1/2 168/1/2
f 169/4/2 170/4/2 173/4/2
f 173/4/2 170/4/2 174/4/2
f 171/4/2 172/4/2 179/4/2
f 179/4/2 172/4/2 180/4/2
f 175/3/2 176/3/2 181/3/2
f 181/3/2 176/3/2 182/3/2
f 177/3/2 178/3/2 183/3/2
f 183/3/2 178/3/2 184/3/2
f 181/4/2 182/4/2 185/4/2
f 185/4/2 182/4/2 186/4/2
f 183/4/2 184/4/2 187/4/2
f 187/4/2 184/4/2 188/4/2
f 189/4/2 190/4/2 193/4/2
f 193/4/2 190/4/2 194/4/2
f 191/4/2 192/4/2 199/4/2
f 199/4/2 192/4/2 200/4/2
f 195/3/2 196/3/2 201/3/2
f 201/3/2 196/3/2 202/3/2
f 197/3/2 198/3/2 203/3/2
f 203/3/2 198/3/2 204/3/2
f 205/4/2 206/4/2 209/4/2
f 209/4/2 206/4/2 210/4/2
f 207/4/2 208/4/2 215/4/2
f 215/4/2 208/4/2 216/4/2
f 211/3/2 212/3/2 217/3/2
f 217/3/2 212/3/2 218/3/2
f 213/3/2 214/3/2 219/3/2
f 219/3/2 214/3/2 220/3/2
f 217/4/2 218/4/2 221/4/2
f 221/4/2 218/4/2 222/4/2
f 219/4/2 220/4/2 223/4/2
f 223/4/2 220/4/2 224/4/2
f 225/4/2 226/4/2 229/4/2
f 229/4/2 226/4/2 230/4/2
f 227/4/2 228/4/2 233/4/2
f 233/4/2 228/4/2 234/4/2
f 231/3/2 232/3/2 235/3/2
f 235/3/2 232/3/2 236/3/2
f 237/4/2 238/4/2 241/4/2
f 241/4/2 238/4/2 242/4/2
f 239/4/2 240/4/2 243/4/2
f 243/4/2 240/4/2 244/4/2
f 245/4/2 246/4/2 247/4/2
f 247/4/2 246/4/2 248/4/2
f 251/4/3 250/4/3 249/4/3
f 252/4/3 250/4/3 251/4/3
f 255/4/3 254/4/3 253/4/3
f 256/4/3 254/4/3 255/4/3
f 259/4/3 258/4/3 257/4/3
f 260/4/3 258/4/3 259/4/3
f 263/4/3 262/4/3 261/4/3
f 264/4/3 262/4/3 263/4/3
f 267/3/3 266/3/3 265/3/3
f 268/3/3 266/3/3 267/3/3
f 271/4/3 270/4/3 269/4/3
f 272/4/3 270/4/3 271/4/3
f 275/4/3 274/4/3 273/4/3
f 276/4/3 274/4/3 275/4/3
f 280/3/3 278/3/3 277/3/3
f 281/4/3 279/4/3 278/4/3
f 281/3/3 278/3/3 280/3/3
f 282/4/3 279/4/3 281/4/3
f 286/3/3 284/3/3 283/3/3
f 287/4/3 285/4/3 284/4/3
f 287/3/3 284/3/3 286/3/3
f 288/4/3 285/4/3 287/4/3
f 291/4/3 290/4/3 289/4/3
f 292/4/3 290/4/3 291/4/3
f 295/4/3 294/4/3 293/4/3
f 296/4/3 294/4/3 295/4/3
f 299/3/3 298/3/3 297/3/3
f 300/3/3 298/3/3 299/3/3
f 303/3/3 302/3/3 301/3/3
f 304/3/3 302/3/3 303/3/3
f 307/4/3 306/4/3 305/4/3
f 308/4/3 306/4/3 307/4/3
f 311/4/3 310/4/3 309/4/3
f 312/4/3 310/4/3 311/4/3
f 316/3/3 314/3/3 313/3/3
f 317/4/3 315/4/3 314/4/3
f 317/3/3 314/3/3 316/3/3
f 318/4/3 315/4/3 317/4/3
f 322/3/3 320/3/3 319/3/3
f 323/4/3 321/4/3 320/4/3
f 323/3/3 320/3/3 322/3/3
f 324/4/3 321/4/3 323/4/3
f 327/4/3 326/4/3 325/4/3
f 328/4/3 326/4/3 327/4/3
f 331/4/3 330/4/3 329/4/3
f 332/4/3 330/4/3 331/4/3
f 333/4/3 331/4/3 329/4/3
f 334/4/3 331/4/3 333/4/3
f 337/3/3 336/3/3 335/3/3
f 338/3/3 336/3/3 337/3/3
f 341/1/3 340/1/3 339/1/3
f 342/1/3 340/1/3 341/1/3
f 345/3/3 344/3/3 343/3/3
f 346/3/3 344/3/3 345/3/3
f 349/4/3 348/4/3 347/4/3
f 351/4/3 349/4/3 347/4/3
f 351/4/3 350/4/3 349/4/3
f 352/4/3 350/4/3 351/4/3
f 355/4/3 354/4/3 353/4/3
f 356/4/3 354/4/3 355/4/3
f 359/4/3 358/4/3 357/4/3
f 360/4/3 358/4/3 359/4/3
f 363/4/3 362/4/3 361/4/3
f 364/4/3 362/4/3 363/4/3
f 367/4/3 366/4/3 365/4/3
f 368/4/3 366/4/3 367/4/3
f 371/4/3 370/4/3 369/4/3
f 372/4/3 370/4/3 371/4/3
f 373/4/4 374/4/4 375/4/4
f 375/4/4 374/4/4 376/4/4
f 377/4/4 378/4/4 379/4/4
f 379/4/4 378/4/4 380/4/4
f 381/4/4 382/4/4 383/4/4
f 383/4/4 382/4/4 384/4/4
f 385/4/4 386/4/4 387/4/4
f 387/4/4 386/4/4 388/4/4
f 389/4/4 390/4/4 391/4/4
f 391/4/4 390/4/4 392/4/4
f 393/4/4 394/4/4 395/4/4
f 395/4/4 394/4/4 396/4/4
f 393/4/4 395/4/4 397/4/4
f 397/4/4 395/4/4 398/4/4
f 399/3/4 400/3/4 401/3/4
f 401/3/4 400/3/4 402/3/4
f 403/1/4 404/1/4 405/1/4
f 405/1/4 404/1/4 406/1/4
f 407/3/4 408/3/4 409/3/4
f 409/3/4 408/3/4 410/3/4
f 411/4/4 412/4/4 413/4/4
f 411/4/4 413/4/4 415/4/4
f 413/4/4 414/4/4 415/4/4
f 415/4/4 414/4/4 416/4/4
f 417/4/4 418/4/4 419/4/4
f 419/4/4 418/4/4 420/4/4
f 421/3/4 422/3/4 424/3/4
f 422/4/4 423/4/4 425/4/4
f 424/3/4 422/3/4 425/3/4
f 425/4/4 423/4/4 426/4/4
f 427/3/4 428/3/4 430/3/4
f 428/4/4 429/4/4 431/4/4
f 430/3/4 428/3/4 431/3/4
f 431/4/4 429/4/4 432/4/4
f 433/4/4 434/4/4 435/4/4
f 435/4/4 434/4/4 436/4/4
f 437/4/4 438/4/4 439/4/4
f 439/4/4 438/4/4 440/4/4
f 441/3/4 442/3/4 443/3/4
f 443/3/4 442/3/4 444/3/4
f 445/3/4 446/3/4 447/3/4
f 447/3/4 446/3/4 448/3/4
f 449/4/4 450/4/4 451/4/4
f 451/4/4 450/4/4 452/4/4
f 453/4/4 454/4/4 455/4/4
f 455/4/4 454/4/4 456/4/4
f 457/3/4 458/3/4 460/3/4
f 458/4/4 459/4/4 461/4/4
f 460/3/4 458/3/4 461/3/4
f 461/4/4 459/4/4 462/4/4
f 463/3/4 464/3/4 466/3/4
f 464/4/4 465/4/4 467/4/4
f 466/3/4 464/3/4 467/3/4
f 467/4/4 465/4/4 468/4/4
f 469/4/4 470/4/4 471/4/4
f 471/4/4 470/4/4 472/4/4
f 473/4/4 474/4/4 475/4/4
f 475/4/4 474/4/4 476/4/4
f 477/3/4 478/3/4 479/3/4
f 479/3/4 478/3/4 480/3/4
f 481/4/4 482/4/4 483/4/4
f 483/4/4 482/4/4 484/4/4
f 485/4/4 486/4/4 487/4/4
f 487/4/4 486/4/4 488/4/4
f 489/4/4 490/4/4 491/4/4
f 491/4/4 490/4/4 492/4/4
f 493/4/4 494/4/4 495/4/4
f 495/4/4 494/4/4 496/4/4
f 500/4/5 498/4/5 497/4/5
f 501/4/5 498/4/5 500/4/5
f 504/4/5 500/4/5 499/4/5
f 504/4/5 502/4/5 501/4/5
f 504/4/5 501/4/5 500/4/5
f 505/4/5 502/4/5 504/4/5
f 508/4/5 504/4/5 503/4/5
f 508/4/5 506/4/5 505/4/5
f 508/4/5 505/4/5 504/4/5
f 509/4/5 506/4/5 508/4/5
f 512/4/5 508/4/5 507/4/5
f 512/4/5 510/4/5 509/4/5
f 512/4/5 509/4/5 508/4/5
f 513/4/5 510/4/5 512/4/5
f 516/4/5 512/4/5 511/4/5
f 516/4/5 514/4/5 513/4/5
f 516/4/5 513/4/5 512/4/5
f 517/4/5 514/4/5 516/4/5
f 520/4/5 516/4/5 515/4/5
f 520/4/5 518/4/5 517/4/5
f 520/4/5 517/4/5 516/4/5
f 521/4/5 518/4/5 520/4/5
f 523/4/5 520/4/5 519/4/5
f 523/4/5 522/4/5 521/4/5
f 523/4/5 521/4/5 520/4/5
f 524/4/5 522/4/5 523/4/5
f 525/4/5 522/4/5 524/4/5
f 526/4/5 522/4/5 525/4/5
f 527/4/5 525/4/5 524/4/5
f 528/4/5 525/4/5 527/4/5
f 529/4/5 525/4/5 528/4/5
f 530/4/5 525/4/5 529/4/5
f 531/4/5 529/4/5 528/4/5
f 532/4/5 529/4/5 531/4/5
f 533/4/5 529/4/5 532/4/5
f 534/4/5 529/4/5 533/4/5
f 535/4/5 533/4/5 532/4/5
f 536/4/5 533/4/5 535/4/5
f 537/4/5 533/4/5 536/4/5
f 538/4/5 533/4/5 537/4/5
f 539/4/5 537/4/5 536/4/5
f 540/4/5 537/4/5 539/4/5
f 541/4/5 537/4/5 540/4/5
f 542/4/5 537/4/5 541/4/5
f 543/4/5 541/4/5 540/4/5
f 544/4/5 541/4/5 543/4/5
f 545/4/5 541/4/5 544/4/5
f 546/4/5 541/4/5 545/4/5
f 547/4/5 545/4/5 544/4/5
f 548/4/5 545/4/5 547/4/5
f 549/4/6 550/4/6 552/4/6
f 552/4/6 550/4/6 553/4/6
f 551/4/6 552/4/6 556/4/6
f 553/4/6 554/4/6 556/4/6
f 552/4/6 553/4/6 556/4/6
f 556/4/6 554/4/6 557/4/6
f 557/4/6 554/4/6 558/4/6
f 558/4/6 554/4/6 559/4/6
f 555/4/6 556/4/6 562/4/6
f 556/4/6 557/4/6 562/4/6
f 562/4/6 557/4/6 563/4/6
f 563/4/6 557/4/6 564/4/6
f 558/4/6 559/4/6 565/4/6
f 559/4/6 560/4/6 565/4/6
f 565/4/6 560/4/6 566/4/6
f 566/4/6 560/4/6 567/4/6
f 562/4/6 563/4/6 570/4/6
f 561/4/6 562/4/6 570/4/6
f 570/4/6 563/4/6 571/4/6
f 571/4/6 563/4/6 572/4/6
f 567/4/6 568/4/6 573/4/6
f 566/4/6 567/4/6 573/4/6
f 573/4/6 568/4/6 574/4/6
f 574/4/6 568/4/6 575/4/6
f 570/4/6 571/4/6 578/4/6
f 569/4/6 570/4/6 578/4/6
f 578/4/6 571/4/6 579/4/6
f 579/4/6 571/4/6 580/4/6
f 575/4/6 576/4/6 581/4/6
f 574/4/6 575/4/6 581/4/6
f 581/4/6 576/4/6 582/4/6
f 582/4/6 576/4/6 583/4/6
f 578/4/6 579/4/6 586/4/6
f 577/4/6 578/4/6 586/4/6
f 586/4/6 579/4/6 587/4/6
f 587/4/6 579/4/6 588/4/6
f 583/4/6 584/4/6 589/4/6
f 582/4/6 583/4/6 589/4/6
f 589/4/6 584/4/6 590/4/6
f 590/4/6 584/4/6 591/4/6
f 586/4/6 587/4/6 593/4/6
f 585/4/6 586/4/6 593/4/6
f 593/4/6 587/4/6 594/4/6
f 594/4/6 587/4/6 595/4/6
f 591/4/6 592/4/6 598/4/6
f 590/4/6 591/4/6 598/4/6
f 598/4/6 592/4/6 599/4/6
f 599/4/6 592/4/6 600/4/6
f 595/4/6 596/4/6 601/4/6
f 594/4/6 595/4/6 601/4/6
f 601/4/6 596/4/6 602/4/6
f 602/4/6 596/4/6 603/4/6
f 598/4/6 599/4/6 606/4/6
f 597/4/6 598/4/6 606/4/6
f 606/4/6 599/4/6 607/4/6
f 607/4/6 599/4/6 608/4/6
f 603/4/6 604/4/6 609/4/6
f 602/4/6 603/4/6 609/4/6
f 609/4/6 604/4/6 610/4/6
f 610/4/6 604/4/6 611/4/6
f 606/4/6 607/4/6 614/4/6
f 605/4/6 606/4/6 614/4/6
f 614/4/6 607/4/6 615/4/6
f 615/4/6 607/4/6 616/4/6
f 611/4/6 612/4/6 617/4/6
f 610/4/6 611/4/6 617/4/6
f 617/4/6 612/4/6 618/4/6
f 618/4/6 612/4/6 619/4/6
f 614/4/6 615/4/6 622/4/6
f 613/4/6 614/4/6 622/4/6
f 622/4/6 615/4/6 623/4/6
f 623/4/6 615/4/6 624/4/6
f 619/4/6 620/4/6 625/4/6
f 618/4/6 619/4/6 625/4/6
f 625/4/6 620/4/6 626/4/6
f 626/4/6 620/4/6 627/4/6
f 622/4/6 623/4/6 628/4/6
f 621/4/6 622/4/6 628/4/6
f 628/4/6 623/4/6 629/4/6
f 629/4/6 623/4/6 630/4/6
f 626/4/6 627/4/6 631/4/6
f 628/4/6 629/4/6 631/4/6
f 627/4/6 628/4/6 631/4/6
f 631/4/6 629/4/6 632/4/6
f 632/4/6 629/4/6 633/4/6
f 633/4/6 629/4/6 634/4/6
f 632/4/6 633/4/6 635/4/6
f 635/4/6 633/4/6 636/4/6
f 637/4/6 638/4/6 639/4/6
f 639/4/6 638/4/6 640/4/6
f 641/3/6 642/3/6 643/3/6
f 643/3/6 642/3/6 644/3/6
f 643/3/6 644/3/6 647/3/6
f 647/3/6 644/3/6 648/3/6
f 645/3/6 646/3/6 651/3/6
f 647/2/6 648/2/6 652/2/6
f 651/3/6 646/3/6 652/3/6
f 646/2/6 647/2/6 652/2/6
f 648/2/6 649/2/6 652/2/6
f 652/2/6 649/2/6 653/2/6
f 653/2/6 649/2/6 654/2/6
f 649/3/6 650/3/6 655/3/6
f 654/2/6 649/2/6 655/2/6
f 655/3/6 650/3/6 656/3/6
f 651/2/6 652/2/6 661/2/6
f 652/3/6 653/3/6 662/3/6
f 661/2/6 652/2/6 662/2/6
f 653/2/6 654/2/6 663/2/6
f 662/3/6 653/3/6 663/3/6
f 654/3/6 655/3/6 664/3/6
f 663/2/6 654/2/6 664/2/6
f 655/2/6 656/2/6 665/2/6
f 664/3/6 655/3/6 665/3/6
f 665/2/6 656/2/6 666/2/6
f 657/4/6 658/4/6 671/4/6
f 671/4/6 658/4/6 672/4/6
f 659/3/6 660/3/6 673/3/6
f 660/3/6 661/3/6 673/3/6
f 673/3/6 661/3/6 674/3/6
f 661/2/6 662/2/6 675/2/6
f 674/3/6 661/3/6 675/3/6
f 662/2/6 663/2/6 675/2/6
f 675/2/6 663/2/6 676/2/6
f 676/2/6 663/2/6 677/2/6
f 665/2/6 666/2/6 678/2/6
f 664/2/6 665/2/6 678/2/6
f 678/2/6 666/2/6 679/2/6
f 667/3/6 668/3/6 680/3/6
f 679/2/6 666/2/6 680/2/6
f 666/3/6 667/3/6 680/3/6
f 680/3/6 668/3/6 681/3/6
f 681/3/6 668/3/6 682/3/6
f 669/4/6 670/4/6 683/4/6
f 683/4/6 670/4/6 684/4/6
f 675/2/6 676/2/6 685/2/6
f 676/3/6 677/3/6 686/3/6
f 685/2/6 676/2/6 686/2/6
f 677/2/6 678/2/6 687/2/6
f 686/3/6 677/3/6 687/3/6
f 678/3/6 679/3/6 688/3/6
f 687/2/6 678/2/6 688/2/6
f 679/2/6 680/2/6 689/2/6
f 688/3/6 679/3/6 689/3/6
f 689/2/6 680/2/6 690/2/6
f 685/3/6 686/3/6 691/3/6
f 687/2/6 688/2/6 692/2/6
f 691/3/6 686/3/6 692/3/6
f 686/2/6 687/2/6 692/2/6
f 688/2/6 689/2/6 692/2/6
f 692/2/6 689/2/6 693/2/6
f 693/2/6 689/2/6 694/2/6
f 689/3/6 690/3/6 695/3/6
f 694/2/6 689/2/6 695/2/6
f 695/3/6 690/3/6 696/3/6
f 693/3/6 694/3/6 697/3/6
f 697/3/6 694/3/6 698/3/6
f 697/3/6 698/3/6 699/3/6
f 699/3/6 698/3/6 700/3/6
f 701/4/6 702/4/6 703/4/6
f 703/4/6 702/4/6 704/4/6
f 705/4/6 706/4/6 709/4/6
f 709/4/6 706/4/6 710/4/6
f 707/4/6 708/4/6 711/4/6
f 711/4/6 708/4/6 712/4/6
f 713/4/6 714/4/6 717/4/6
f 717/4/6 714/4/6 718/4/6
f 715/4/6 716/4/6 721/4/6
f 721/4/6 716/4/6 722/4/6
f 719/1/6 720/1/6 725/1/6
f 725/1/6 720/1/6 726/1/6
f 723/4/6 724/4/6 729/4/6
f 729/4/6 724/4/6 730/4/6
f 727/4/6 728/4/6 731/4/6
f 731/4/6 728/4/6 732/4/6
f 733/4/6 734/4/6 737/4/6
f 737/4/6 734/4/6 738/4/6
f 735/4/6 736/4/6 739/4/6
f 739/4/6 736/4/6 740/4/6
