# This file uses centimeters as units for non-parametric coordinates.

mtllib stone_s.mtl
g default
v -0.848475 -0.037939 0.693134
v -0.273014 -0.037939 0.697662
v 0.273014 -0.037939 0.819041
v 0.558950 -0.037939 0.637286
v -0.819041 0.418429 0.610122
v -0.273014 0.418429 0.905605
v 0.273014 0.418429 0.723348
v 0.516469 0.418429 0.437037
v -0.619792 0.891761 0.623361
v -0.273014 0.786711 0.819041
v 0.273014 0.909435 0.704487
v 0.527829 0.815364 0.580896
v -0.435782 1.090526 0.607149
v -0.207577 1.066496 0.622731
v 0.207577 1.066496 0.622731
v 0.377371 0.887644 0.557954
v -0.647674 1.193993 0.273014
v -0.273014 1.173445 0.273014
v 0.162717 1.254602 0.041895
v 0.537353 0.877354 0.063432
v -0.647674 1.115438 -0.273014
v -0.273014 1.372523 -0.273014
v 0.162717 1.316169 -0.504132
v 0.588986 0.851531 -0.165870
v -0.545002 1.002149 -0.493209
v -0.207577 1.066496 -0.622731
v 0.207577 1.066496 -0.622731
v 0.490031 1.104326 -0.447104
v -0.579177 0.806072 -0.417217
v -0.201866 0.819662 -0.687382
v 0.273014 0.909435 -0.819041
v 0.470675 0.714536 -0.431318
v -0.753291 0.418429 -0.610585
v -0.273014 0.418429 -0.819041
v 0.273014 0.418429 -0.906237
v 0.474326 0.418429 -0.616358
v -0.705146 -0.037939 -0.784220
v -0.273014 -0.037939 -0.691364
v 0.273014 -0.037939 -0.819041
v 0.474326 -0.037939 -0.616358
v -1.071464 -0.037939 -0.273014
v 0.819041 -0.037939 -0.273014
v -1.046270 -0.037939 0.344781
v 0.662979 -0.037939 0.204517
v 0.819041 0.418429 -0.273014
v 0.819041 0.418429 0.273014
v 0.764048 0.909435 -0.283386
v 0.727585 0.870906 0.271151
v -0.819041 0.418429 -0.273014
v -1.049410 0.418429 0.273014
v -0.735250 0.776012 -0.073814
v -0.933761 0.776012 0.273014
vt 0.406679 0.214802
vt 0.468893 0.214802
vt 0.531107 0.214802
vt 0.593321 0.214802
vt 0.406679 0.277016
vt 0.468893 0.277016
vt 0.531107 0.277016
vt 0.593321 0.277016
vt 0.406679 0.339230
vt 0.468893 0.339230
vt 0.531107 0.339230
vt 0.593321 0.339230
vt 0.406679 0.401444
vt 0.468893 0.401444
vt 0.531107 0.401444
vt 0.593321 0.401444
vt 0.406679 0.463658
vt 0.468893 0.463658
vt 0.531107 0.463658
vt 0.593321 0.463658
vt 0.406679 0.525872
vt 0.468893 0.525872
vt 0.531107 0.525872
vt 0.593321 0.525872
vt 0.406679 0.588086
vt 0.468893 0.588086
vt 0.531107 0.588086
vt 0.593321 0.588086
vt 0.406679 0.650300
vt 0.468893 0.650300
vt 0.531107 0.650300
vt 0.593321 0.650300
vt 0.406679 0.712514
vt 0.468893 0.712514
vt 0.531107 0.712514
vt 0.593321 0.712514
vt 0.406679 0.774728
vt 0.468893 0.774728
vt 0.531107 0.774728
vt 0.593321 0.774728
vt 0.779963 0.214802
vt 0.717749 0.214802
vt 0.655535 0.214802
vt 0.779963 0.277016
vt 0.717749 0.277016
vt 0.655535 0.277016
vt 0.779963 0.339230
vt 0.717749 0.339230
vt 0.655535 0.339230
vt 0.779963 0.401444
vt 0.717749 0.401444
vt 0.655535 0.401444
vt 0.220037 0.214802
vt 0.282251 0.214802
vt 0.344465 0.214802
vt 0.220037 0.277016
vt 0.282251 0.277016
vt 0.344465 0.277016
vt 0.220037 0.339230
vt 0.282251 0.339230
vt 0.344465 0.339230
vt 0.220037 0.401444
vt 0.282251 0.401444
vt 0.344465 0.401444
vn -0.007740 0.179438 0.983739
vn -0.115914 -0.172915 0.978092
vn -0.343968 0.026700 0.938602
vn -0.091701 -0.141740 0.985647
vn 0.062618 0.204818 0.976795
vn 0.359188 0.037979 0.932492
vn 0.623047 0.250643 0.740939
vn 0.759978 0.069484 0.646224
vn -0.439210 0.232337 0.867822
vn -0.025838 0.288388 0.957165
vn 0.271283 0.208454 0.939656
vn 0.598084 -0.039576 0.800456
vn -0.221322 0.475312 0.851525
vn 0.029844 0.562285 0.826405
vn 0.122354 0.497892 0.858564
vn 0.534944 0.803399 0.261505
vn 0.023523 0.957240 0.288338
vn -0.066154 0.967696 0.243286
vn 0.065575 0.960537 0.270310
vn 0.054746 0.998185 -0.025093
vn 0.342308 0.902167 0.262528
vn 0.390991 0.895252 0.213659
vn 0.712493 0.676867 0.184944
vn 0.695683 0.700061 0.161060
vn -0.436348 0.895705 -0.085514
vn -0.255594 0.966123 -0.035748
vn 0.338046 0.899789 -0.275871
vn 0.680984 0.720416 0.131383
vn -0.414716 0.670371 -0.615316
vn -0.275568 0.655577 -0.703051
vn 0.192952 0.449077 -0.872410
vn 0.478815 0.822466 0.307060
vn -0.182357 0.245176 -0.952174
vn -0.341291 0.296830 -0.891859
vn -0.523245 -0.081251 -0.848300
vn -0.478402 0.325234 -0.815693
vn -0.044006 0.706769 -0.706075
vn 0.257233 0.341017 -0.904178
vn 0.830624 0.114888 -0.544853
vn 0.906134 0.102655 -0.410345
vn -0.241421 0.141779 -0.960008
vn -0.361492 0.419102 -0.832872
vn 0.234064 0.016327 -0.972084
vn 0.844031 0.066343 -0.532175
vn -0.141624 0.058705 -0.988178
vn -0.033928 -0.269267 -0.962468
vn 0.187754 -0.181533 -0.965295
vn 0.709501 0.000000 -0.704704
vn 0.974594 0.000000 -0.223980
vn 0.705697 0.000000 -0.708514
vn 0.953353 0.038334 -0.299414
vn 0.697967 0.147605 -0.700753
vn 0.952228 -0.100330 0.288435
vn 0.925647 -0.082545 0.369275
vn 0.954675 0.189561 0.229484
vn 0.738471 -0.042473 0.672946
vn 0.631611 0.228088 -0.740975
vn 0.876291 0.360500 -0.319614
vn 0.833639 0.481894 0.269860
vn 0.812524 0.176332 0.555618
vn 0.184439 0.852810 -0.488567
vn 0.923038 -0.061218 -0.379807
vn -0.025451 0.999295 0.027607
vn 0.180125 0.969987 0.163341
vn -0.805452 0.134622 -0.577168
vn -0.910623 0.271452 -0.311575
vn -0.867187 0.321823 -0.380023
vn -0.848412 0.445734 -0.285514
vn -0.963207 0.053055 0.263472
vn -0.966695 0.245826 0.071204
vn -0.860489 0.144371 0.488585
vn -0.809066 0.202998 0.551547
vn -0.904886 0.251345 -0.343522
vn -0.883221 0.339581 -0.323427
vn -0.897415 0.432844 0.085394
vn -0.715524 0.441452 0.541429
vn -0.971619 0.139169 -0.191280
vn -0.907262 -0.004853 -0.420538
vn -0.862775 0.487324 0.134669
vn -0.587417 0.589071 0.554921
s 1
g pCube1
usemtl blinn2SG
f 1/1/1 2/2/2 5/5/3
f 5/5/3 2/2/2 6/6/4
f 3/3/5 7/7/6 2/2/2
f 2/2/2 7/7/6 6/6/4
f 3/3/5 4/4/7 7/7/6
f 7/7/6 4/4/7 8/8/8
f 5/5/3 6/6/4 9/9/9
f 9/9/9 6/6/4 10/10/10
f 6/6/4 7/7/6 10/10/10
f 10/10/10 7/7/6 11/11/11
f 8/8/8 12/12/12 7/7/6
f 7/7/6 12/12/12 11/11/11
f 9/9/9 10/10/10 13/13/13
f 13/13/13 10/10/10 14/14/14
f 10/10/10 11/11/11 14/14/14
f 14/14/14 11/11/11 15/15/15
f 12/12/12 16/16/16 11/11/11
f 11/11/11 16/16/16 15/15/15
s 3
f 14/14/17 18/18/18 13/13/19
f 13/13/19 18/18/18 17/17/20
f 14/14/17 15/15/21 18/18/18
f 18/18/18 15/15/21 19/19/22
f 15/15/21 16/16/23 19/19/22
f 19/19/22 16/16/23 20/20/24
f 17/17/20 18/18/18 21/21/25
f 21/21/25 18/18/18 22/22/26
f 18/18/18 19/19/22 22/22/26
f 22/22/26 19/19/22 23/23/27
f 20/20/24 24/24/28 19/19/22
f 19/19/22 24/24/28 23/23/27
f 21/21/25 22/22/26 25/25/29
f 25/25/29 22/22/26 26/26/30
f 22/22/26 23/23/27 26/26/30
f 26/26/30 23/23/27 27/27/31
f 24/24/28 28/28/32 23/23/27
f 23/23/27 28/28/32 27/27/31
s 4
f 26/26/33 30/30/34 25/25/35
f 25/25/35 30/30/34 29/29/36
f 26/26/33 27/27/37 30/30/34
f 30/30/34 27/27/37 31/31/38
f 27/27/37 28/28/39 31/31/38
f 31/31/38 28/28/39 32/32/40
f 30/30/34 34/34/41 29/29/36
f 29/29/36 34/34/41 33/33/42
f 31/31/38 35/35/43 30/30/34
f 30/30/34 35/35/43 34/34/41
f 32/32/40 36/36/44 31/31/38
f 31/31/38 36/36/44 35/35/43
f 33/33/42 34/34/41 37/37/45
f 37/37/45 34/34/41 38/38/46
f 35/35/43 39/39/47 34/34/41
f 34/34/41 39/39/47 38/38/46
f 35/35/43 36/36/44 39/39/47
f 39/39/47 36/36/44 40/40/48
s 5
f 42/42/49 40/41/50 45/45/51
f 45/45/51 40/41/50 36/44/52
f 42/42/49 45/45/51 44/43/53
f 44/43/53 45/45/51 46/46/54
f 4/4/55 44/43/53 8/8/56
f 8/8/56 44/43/53 46/46/54
f 36/44/52 32/47/57 45/45/51
f 45/45/51 32/47/57 47/48/58
f 46/46/54 45/45/51 48/49/59
f 48/49/59 45/45/51 47/48/58
f 46/46/54 48/49/59 8/8/56
f 8/8/56 48/49/59 12/12/60
f 47/48/58 32/47/57 24/51/61
f 32/47/57 28/50/62 24/51/61
f 48/49/59 47/48/58 20/52/63
f 20/52/63 47/48/58 24/51/61
f 12/12/60 48/49/59 16/16/64
f 16/16/64 48/49/59 20/52/63
s 6
f 37/53/65 41/54/66 33/56/67
f 33/56/67 41/54/66 49/57/68
f 43/55/69 50/58/70 41/54/66
f 41/54/66 50/58/70 49/57/68
f 1/1/71 5/5/72 43/55/69
f 43/55/69 5/5/72 50/58/70
f 33/56/67 49/57/68 29/59/73
f 29/59/73 49/57/68 51/60/74
f 49/57/68 50/58/70 51/60/74
f 51/60/74 50/58/70 52/61/75
f 50/58/70 5/5/72 52/61/75
f 52/61/75 5/5/72 9/9/76
f 51/60/74 21/63/77 29/59/73
f 29/59/73 21/63/77 25/62/78
f 52/61/75 17/64/79 51/60/74
f 51/60/74 17/64/79 21/63/77
f 52/61/75 9/9/76 17/64/79
f 17/64/79 9/9/76 13/13/80
