# This file uses centimeters as units for non-parametric coordinates.

mtllib yari_elf_body.mtl
g default
v -0.474739 0.993188 0.548191
v -0.284946 0.993188 0.690377
v 0.012149 0.993188 0.742278
v 0.309244 0.993188 0.690376
v 0.499037 0.993188 0.548192
v -0.367022 1.654161 0.475701
v -0.203683 1.654161 0.524409
v 0.012449 1.654161 0.524409
v 0.228580 1.654161 0.524409
v 0.391919 1.654161 0.475701
v -0.370121 1.757279 0.478561
v -0.205448 1.757279 0.527666
v 0.012449 1.757279 0.527666
v 0.230346 1.757279 0.527666
v 0.395019 1.757279 0.478561
v -0.402942 2.268804 0.528093
v -0.223936 2.268804 0.653090
v 0.012449 2.268804 0.640869
v 0.248833 2.268804 0.653090
v 0.427839 2.268804 0.528093
v -0.333047 2.532557 0.471091
v -0.223936 2.532557 0.530330
v 0.012449 2.532557 0.520935
v 0.248833 2.532557 0.530330
v 0.357945 2.532557 0.471091
v -0.459474 2.538743 0.315928
v -0.164161 2.652610 0.235484
v 0.012449 2.652610 0.304605
v 0.189059 2.652610 0.235484
v 0.484372 2.538743 0.315928
v -0.490935 2.538743 0.125595
v -0.231515 2.652610 0.048141
v 0.256412 2.652610 0.048141
v 0.515833 2.538743 0.125595
v -0.459474 2.538743 -0.064737
v -0.173580 2.652610 -0.068675
v 0.012449 2.652610 -0.147756
v 0.198478 2.652610 -0.068675
v 0.484372 2.538743 -0.064737
v -0.333047 2.532557 -0.219901
v -0.223936 2.532557 -0.279139
v 0.012449 2.532557 -0.313447
v 0.248833 2.532557 -0.279139
v 0.357945 2.532557 -0.219901
v -0.369914 2.294340 -0.256768
v -0.223936 2.294340 -0.347174
v 0.012449 2.294340 -0.347174
v 0.248833 2.294340 -0.347174
v 0.394812 2.294340 -0.256768
v -0.312267 1.757279 -0.216927
v -0.205448 1.757279 -0.276475
v 0.012449 1.757279 -0.276475
v 0.230346 1.757279 -0.276475
v 0.337164 1.757279 -0.216927
v -0.309636 1.654161 -0.214499
v -0.203683 1.654161 -0.273218
v 0.012449 1.654161 -0.273218
v 0.228580 1.654161 -0.273218
v 0.334534 1.654161 -0.214499
v -0.424919 0.993188 -0.231911
v -0.284946 0.993188 -0.337179
v 0.012149 0.993188 -0.380008
v 0.309244 0.993188 -0.337179
v 0.483950 0.993188 -0.231911
v -0.514212 0.993188 -0.089759
v 0.583349 0.993188 -0.089759
v -0.619623 0.993188 0.125595
v 0.643921 0.993188 0.125595
v -0.581988 0.993188 0.340950
v 0.608658 0.993188 0.340950
v 0.502347 1.654161 -0.073811
v 0.535007 1.654161 0.125595
v 0.502347 1.654161 0.325002
v 0.506349 1.757279 -0.075440
v 0.539276 1.757279 0.125595
v 0.506349 1.757279 0.326631
v 0.548254 2.294340 -0.110789
v 0.583974 2.294340 0.125595
v 0.548254 2.294340 0.361980
v -0.477450 1.654161 -0.073811
v -0.510110 1.654161 0.125595
v -0.477450 1.654161 0.325002
v -0.481451 1.757279 -0.075440
v -0.514378 1.757279 0.125595
v -0.481451 1.757279 0.326631
v -0.523356 2.294340 -0.110789
v -0.559076 2.294340 0.125595
v -0.523356 2.294340 0.361980
vt 0.108436 0.322944
vt 0.077963 0.322713
vt 0.110917 0.233258
vt 0.133333 0.233258
vt 0.555597 0.298731
vt 0.513791 0.233258
vt 0.518650 0.326047
vt 0.486930 0.233258
vt 0.501566 0.339446
vt 0.464364 0.233258
vt 0.115508 0.207333
vt 0.137875 0.207333
vt 0.509115 0.207333
vt 0.482535 0.207333
vt 0.460023 0.207333
vt 0.139508 0.156300
vt 0.160413 0.156300
vt 0.483863 0.156300
vt 0.459597 0.156300
vt 0.438533 0.156300
vt 0.167128 0.125729
vt 0.177983 0.125729
vt 0.446678 0.125729
vt 0.432408 0.125729
vt 0.421536 0.125729
vt 0.417912 0.041135
vt 0.197310 0.125729
vt 0.190280 0.094846
vt 0.389850 0.094846
vt 0.402158 0.125729
vt 0.396492 0.041135
vt 0.217793 0.125729
vt 0.381630 0.125729
vt 0.359386 0.094846
vt 0.263744 0.094846
vt 0.237486 0.125729
vt 0.361890 0.125729
vt 0.336291 0.094846
vt 0.272500 0.125729
vt 0.258891 0.125729
vt 0.299998 0.094846
vt 0.299710 0.125729
vt 0.326891 0.125729
vt 0.340470 0.125729
vt 0.273972 0.156300
vt 0.255588 0.156300
vt 0.299382 0.156300
vt 0.324784 0.156300
vt 0.343163 0.156300
vt 0.267786 0.207333
vt 0.250422 0.207333
vt 0.298653 0.207333
vt 0.329548 0.207333
vt 0.346939 0.207333
vt 0.266881 0.233258
vt 0.249069 0.233258
vt 0.298476 0.233258
vt 0.330110 0.233258
vt 0.347977 0.233258
vt 0.253356 0.324040
vt 0.643416 0.428029
vt 0.297164 0.324372
vt 0.340936 0.324703
vt 0.370506 0.324926
vt 0.395301 0.325114
vt 0.380245 0.233258
vt 0.426816 0.325352
vt 0.409670 0.233258
vt 0.456865 0.325580
vt 0.438588 0.233258
vt 0.378360 0.207333
vt 0.406917 0.207333
vt 0.435171 0.207333
vt 0.366068 0.156300
vt 0.391647 0.156300
vt 0.416487 0.156300
vt 0.203868 0.323666
vt 0.217021 0.233258
vt 0.169864 0.323409
vt 0.187725 0.233258
vt 0.139710 0.323181
vt 0.158955 0.233258
vt 0.219123 0.207333
vt 0.190678 0.207333
vt 0.162562 0.207333
vt 0.232687 0.156300
vt 0.207145 0.156300
vt 0.182407 0.156300
vt 0.501566 0.370367
vt 0.488219 0.325817
vt 0.643416 0.327775
vt 0.642973 0.298731
vt 0.501566 0.399687
vt 0.643416 0.354493
vt 0.501566 0.428029
vt 0.643416 0.386325
vt 0.528948 0.428029
vt 0.227959 0.323848
vt 0.356242 0.085016
vt 0.356242 0.072584
vt 0.240749 0.094846
vt 0.367639 0.027880
vt 0.210759 0.094846
vt 0.152846 0.125729
vt 0.408273 0.094846
vt 0.115471 0.156300
vt 0.089115 0.207333
vt 0.084247 0.233258
vt 0.041194 0.322435
vt 0.555477 0.428029
vt 0.595721 0.428029
vt 0.643416 0.428029
vt 0.356242 0.041135
vt 0.596165 0.298731
vn -0.589515 0.182373 0.786900
vn -0.340590 0.236347 0.910021
vn -0.353000 0.215374 0.910497
vn -0.139526 0.249290 0.958325
vn -0.000045 0.270693 0.962666
vn 0.000000 0.270409 0.962746
vn 0.340504 0.236073 0.910124
vn 0.139587 0.249171 0.958347
vn 0.589570 0.181858 0.786979
vn 0.353048 0.215076 0.910549
vn -0.156676 -0.166388 0.973534
vn -0.284382 -0.098270 0.953661
vn 0.000000 -0.186311 0.982491
vn 0.156676 -0.166388 0.973534
vn 0.284382 -0.098270 0.953661
vn -0.537401 -0.026924 0.842897
vn -0.249044 -0.014093 0.968390
vn -0.000000 0.003681 0.999993
vn 0.249044 -0.014093 0.968390
vn 0.537401 -0.026924 0.842897
vn -0.197017 0.396556 0.896620
vn -0.454911 0.301636 0.837897
vn -0.000000 0.413936 0.910306
vn 0.197017 0.396556 0.896620
vn 0.454911 0.301636 0.837897
vn -0.100343 0.912801 0.395886
vn -0.254042 0.936738 0.240801
vn -0.242130 0.923643 0.297080
vn -0.319803 0.935504 0.150192
vn -0.000000 0.874381 0.485240
vn -0.000000 0.914392 0.404829
vn 0.100343 0.912801 0.395886
vn 0.254042 0.936738 0.240801
vn 0.242129 0.923643 0.297081
vn 0.319803 0.935504 0.150193
vn -0.377670 0.925566 0.026324
vn -0.379391 0.925234 -0.002083
vn 0.377670 0.925566 0.026325
vn 0.379391 0.925234 -0.002084
vn -0.391530 0.903145 -0.176165
vn -0.278363 0.891612 -0.357131
vn 0.391530 0.903145 -0.176163
vn 0.278363 0.891612 -0.357131
vn -0.315102 0.876623 -0.363651
vn -0.174237 0.853034 -0.491909
vn -0.000000 0.852269 -0.523103
vn -0.000000 0.809780 -0.586733
vn 0.174237 0.853034 -0.491908
vn 0.315102 0.876623 -0.363651
vn -0.466963 0.205377 -0.860097
vn -0.281047 0.255500 -0.925058
vn -0.523103 -0.016914 -0.852101
vn -0.233438 -0.019291 -0.972180
vn 0.000000 0.210875 -0.977513
vn 0.000000 -0.046516 -0.998918
vn 0.281047 0.255500 -0.925058
vn 0.233438 -0.019291 -0.972180
vn 0.466962 0.205377 -0.860097
vn 0.523104 -0.016913 -0.852101
vn -0.492211 -0.114020 -0.862976
vn -0.176966 -0.118985 -0.976998
vn 0.000000 -0.114837 -0.993384
vn 0.176966 -0.118985 -0.976998
vn 0.492210 -0.114020 -0.862977
vn -0.503183 0.118884 -0.855963
vn -0.184986 0.125215 -0.974731
vn 0.000000 0.134271 -0.990945
vn 0.185084 0.125064 -0.974732
vn 0.488512 0.121828 -0.864011
vn -0.321431 0.121278 -0.939135
vn -0.596348 0.124899 -0.792950
vn -0.000039 0.120838 -0.992672
vn 0.301443 0.125635 -0.945171
vn 0.511168 0.137899 -0.848346
vn 0.909204 0.137095 -0.393133
vn 0.777221 0.125832 -0.616517
vn 0.861031 0.124657 -0.493038
vn 0.636591 0.134795 -0.759330
vn 0.985112 0.162324 -0.056619
vn 0.992262 0.123660 -0.011115
vn 0.934638 0.158008 0.318569
vn 0.917511 0.148008 0.369145
vn 0.863006 0.157736 0.479937
vn 0.796055 0.161324 0.583328
vn 0.637719 -0.110249 -0.762338
vn 0.866948 -0.097713 -0.488727
vn 0.997080 -0.076368 -0.000000
vn 0.926959 -0.087994 0.364698
vn 0.802788 -0.097375 0.588260
vn 0.691539 0.008233 -0.722292
vn 0.893208 0.027332 -0.448813
vn 0.999705 0.024300 -0.000000
vn 0.928197 0.039172 0.370022
vn 0.805430 0.032197 0.591815
vn 0.874087 0.275157 -0.400325
vn 0.753299 0.212883 -0.622271
vn 0.963261 0.268567 0.000000
vn 0.878485 0.296771 0.374422
vn 0.736536 0.314005 0.599096
vn -0.885947 0.103501 -0.452091
vn -0.869224 0.078575 -0.488135
vn -0.802172 0.077848 -0.591996
vn -0.638720 0.107652 -0.761871
vn -0.975560 0.161636 -0.148851
vn -0.994345 0.101114 -0.032478
vn -0.935036 0.156870 0.317961
vn -0.918065 0.146905 0.368206
vn -0.866823 0.156323 0.473477
vn -0.795976 0.161921 0.583270
vn -0.637718 -0.110248 -0.762339
vn -0.866948 -0.097713 -0.488727
vn -0.997080 -0.076367 -0.000000
vn -0.926959 -0.087993 0.364698
vn -0.802788 -0.097374 0.588260
vn -0.691539 0.008233 -0.722292
vn -0.893207 0.027332 -0.448813
vn -0.999705 0.024300 -0.000000
vn -0.928197 0.039173 0.370023
vn -0.805430 0.032196 0.591815
vn -0.874087 0.275157 -0.400325
vn -0.753300 0.212885 -0.622270
vn -0.963262 0.268564 -0.000000
vn -0.878484 0.296772 0.374422
vn -0.736536 0.314004 0.599096
vn 0.000000 1.000000 0.000000
vn 0.000000 1.000000 0.000000
vn 0.000000 1.000000 0.000000
vn 0.000000 1.000000 0.000000
vn 0.000000 1.000000 0.000000
vn 0.000000 1.000000 0.000000
vn 0.000000 1.000000 0.000000
vn 0.000000 1.000000 0.000001
vn 0.000000 -1.000000 0.000000
vn 0.000000 -1.000000 -0.000000
vn 0.000001 -1.000000 0.000000
vn -0.000000 -1.000000 0.000000
vn -0.000000 -1.000000 0.000001
vn 0.000000 -1.000000 0.000000
vn 0.000000 -1.000000 0.000000
vn -0.000000 -1.000000 0.000000
vn -0.000000 -1.000000 0.000000
vn 0.000000 -1.000000 -0.000001
vn -0.000000 -1.000000 -0.000000
vn -0.000000 -1.000000 -0.000000
vn 0.000000 -1.000000 -0.000000
vn 0.000000 -1.000000 -0.000001
vn -0.000002 -1.000000 0.000000
vn 0.000000 -1.000000 0.000000
s 1
g pasted__pasted__pCube3 pasted__pasted__body_bow pasted__group1 body
usemtl blinn3SG
f 1/1/1 2/2/2 6/4/3
f 6/4/3 2/2/2 7/3/4
f 2/2/2 3/109/5 7/3/4
f 7/3/4 3/109/5 8/108/6
f 4/7/7 9/8/8 3/5/5
f 3/5/5 9/8/8 8/6/6
f 5/90/9 10/10/10 4/7/7
f 4/7/7 10/10/10 9/8/8
f 7/3/4 12/11/11 6/4/3
f 6/4/3 12/11/11 11/12/12
f 8/108/6 13/107/13 7/3/4
f 7/3/4 13/107/13 12/11/11
f 8/6/6 9/8/8 13/13/13
f 13/13/13 9/8/8 14/14/14
f 9/8/8 10/10/10 14/14/14
f 14/14/14 10/10/10 15/15/15
f 11/12/12 12/11/11 16/17/16
f 16/17/16 12/11/11 17/16/17
f 13/107/13 18/106/18 12/11/11
f 12/11/11 18/106/18 17/16/17
f 13/13/13 14/14/14 18/18/18
f 18/18/18 14/14/14 19/19/19
f 15/15/15 20/20/20 14/14/14
f 14/14/14 20/20/20 19/19/19
f 17/16/17 22/21/21 16/17/16
f 16/17/16 22/21/21 21/22/22
f 17/16/17 18/106/18 22/21/21
f 22/21/21 18/106/18 23/104/23
f 19/19/19 24/24/24 18/18/18
f 18/18/18 24/24/24 23/23/23
f 19/19/19 20/20/20 24/24/24
f 24/24/24 20/20/20 25/25/25
s 3
f 22/21/26 27/103/27 21/22/28
f 21/22/28 27/103/27 26/27/29
f 23/104/30 28/28/31 22/21/26
f 22/21/26 28/28/31 27/103/27
f 23/23/30 24/24/32 28/105/31
f 28/105/31 24/24/32 29/29/33
f 24/24/32 25/25/34 29/29/33
f 29/29/33 25/25/34 30/30/35
f 26/27/29 27/103/27 31/32/36
f 31/32/36 27/103/27 32/101/37
f 30/30/35 34/33/38 29/29/33
f 29/29/33 34/33/38 33/34/39
f 31/32/36 32/101/37 35/36/40
f 35/36/40 32/101/37 36/35/41
f 34/33/38 39/37/42 33/34/39
f 33/34/39 39/37/42 38/38/43
f 35/36/40 36/35/41 40/40/44
f 40/40/44 36/35/41 41/39/45
f 36/35/41 37/41/46 41/39/45
f 41/39/45 37/41/46 42/42/47
f 38/38/43 43/43/48 37/41/46
f 37/41/46 43/43/48 42/42/47
f 39/37/42 44/44/49 38/38/43
f 38/38/43 44/44/49 43/43/48
s 6
f 40/40/50 41/39/51 45/46/52
f 45/46/52 41/39/51 46/45/53
f 41/39/51 42/42/54 46/45/53
f 46/45/53 42/42/54 47/47/55
f 43/43/56 48/48/57 42/42/54
f 42/42/54 48/48/57 47/47/55
f 44/44/58 49/49/59 43/43/56
f 43/43/56 49/49/59 48/48/57
f 45/46/52 46/45/53 50/51/60
f 50/51/60 46/45/53 51/50/61
f 46/45/53 47/47/55 51/50/61
f 51/50/61 47/47/55 52/52/62
f 48/48/57 53/53/63 47/47/55
f 47/47/55 53/53/63 52/52/62
f 49/49/59 54/54/64 48/48/57
f 48/48/57 54/54/64 53/53/63
f 50/51/60 51/50/61 55/56/65
f 55/56/65 51/50/61 56/55/66
f 51/50/61 52/52/62 56/55/66
f 56/55/66 52/52/62 57/57/67
f 53/53/63 58/58/68 52/52/62
f 52/52/62 58/58/68 57/57/67
f 54/54/64 59/59/69 53/53/63
f 53/53/63 59/59/69 58/58/68
f 56/55/66 61/60/70 55/56/65
f 55/56/65 61/60/70 60/98/71
f 57/57/67 62/62/72 56/55/66
f 56/55/66 62/62/72 61/60/70
f 57/57/67 58/58/68 62/62/72
f 62/62/72 58/58/68 63/63/73
f 58/58/68 59/59/69 63/63/73
f 63/63/73 59/59/69 64/64/74
s 8
f 66/65/75 64/64/76 71/66/77
f 71/66/77 64/64/76 59/59/78
f 68/67/79 66/65/75 72/68/80
f 72/68/80 66/65/75 71/66/77
f 68/67/79 72/68/80 70/69/81
f 70/69/81 72/68/80 73/70/82
f 70/69/81 73/70/82 5/90/83
f 5/90/83 73/70/82 10/10/84
f 59/59/78 54/54/85 71/66/77
f 71/66/77 54/54/85 74/71/86
f 72/68/80 71/66/77 75/72/87
f 75/72/87 71/66/77 74/71/86
f 72/68/80 75/72/87 73/70/82
f 73/70/82 75/72/87 76/73/88
f 10/10/84 73/70/82 15/15/89
f 15/15/89 73/70/82 76/73/88
f 54/54/85 49/49/90 74/71/86
f 74/71/86 49/49/90 77/74/91
f 75/72/87 74/71/86 78/75/92
f 78/75/92 74/71/86 77/74/91
f 75/72/87 78/75/92 76/73/88
f 76/73/88 78/75/92 79/76/93
f 15/15/89 76/73/88 20/20/94
f 20/20/94 76/73/88 79/76/93
f 77/74/91 49/49/90 39/37/95
f 39/37/95 49/49/90 44/44/96
f 77/74/91 39/37/95 78/75/92
f 78/75/92 39/37/95 34/33/97
f 79/76/93 78/75/92 30/30/98
f 30/30/98 78/75/92 34/33/97
f 20/20/94 79/76/93 25/25/99
f 25/25/99 79/76/93 30/30/98
s 9
f 65/77/100 80/78/101 60/98/102
f 60/98/102 80/78/101 55/56/103
f 67/79/104 81/80/105 65/77/100
f 65/77/100 81/80/105 80/78/101
f 67/79/104 69/81/106 81/80/105
f 81/80/105 69/81/106 82/82/107
f 69/81/106 1/1/108 82/82/107
f 82/82/107 1/1/108 6/4/109
f 55/56/103 80/78/101 50/51/110
f 50/51/110 80/78/101 83/83/111
f 81/80/105 84/84/112 80/78/101
f 80/78/101 84/84/112 83/83/111
f 81/80/105 82/82/107 84/84/112
f 84/84/112 82/82/107 85/85/113
f 6/4/109 11/12/114 82/82/107
f 82/82/107 11/12/114 85/85/113
f 50/51/110 83/83/111 45/46/115
f 45/46/115 83/83/111 86/86/116
f 84/84/112 87/87/117 83/83/111
f 83/83/111 87/87/117 86/86/116
f 84/84/112 85/85/113 87/87/117
f 87/87/117 85/85/113 88/88/118
f 11/12/114 16/17/119 85/85/113
f 85/85/113 16/17/119 88/88/118
f 86/86/116 35/36/120 45/46/115
f 45/46/115 35/36/120 40/40/121
f 86/86/116 87/87/117 35/36/120
f 35/36/120 87/87/117 31/32/122
f 88/88/118 26/27/123 87/87/117
f 87/87/117 26/27/123 31/32/122
f 16/17/119 21/22/124 88/88/118
f 88/88/118 21/22/124 26/27/123
s 11
f 29/29/125 33/99/126 28/105/127
f 33/99/126 38/100/128 28/105/127
f 38/100/128 37/113/129 28/105/127
f 37/113/129 36/102/130 28/105/127
f 28/105/127 36/102/130 27/26/131
f 36/102/130 32/31/132 27/26/131
s 12
f 67/94/133 65/96/134 69/91/135
f 69/91/135 65/96/134 1/92/136
f 1/92/136 65/96/134 2/114/137
f 2/114/137 65/96/134 3/5/138
f 3/5/138 65/96/134 4/7/139
f 4/7/139 65/96/134 5/9/140
f 5/9/140 65/96/134 70/89/141
f 65/96/134 60/61/142 70/89/141
f 60/61/142 61/112/143 70/89/141
f 61/112/143 62/111/144 70/89/141
f 62/111/144 63/110/145 70/89/141
f 63/110/145 64/97/146 70/89/141
f 64/97/146 66/95/147 70/89/141
f 66/95/147 68/93/148 70/89/141
